YoungSerif-Regular.ufo
<glyph name="quotedbl" format="1">
  <advance width="405.972"/>
  <unicode hex="0022"/>
  <outline>
    <contour>
      <point x="63.92" y="779.85" type="line" smooth="yes"/>
      <point x="54.6599" y="779.85"/>
      <point x="49.5778" y="775.086"/>
      <point x="49.5778" y="766.569" type="curve" smooth="yes"/>
      <point x="49.5778" y="765.778"/>
      <point x="49.6216" y="764.955"/>
      <point x="49.71" y="764.1" type="curve" smooth="yes"/>
      <point x="73.21" y="536.59" type="line" smooth="yes"/>
      <point x="74.17" y="527.23"/>
      <point x="79.51" y="522.41"/>
      <point x="88.93" y="522.41" type="curve" smooth="yes"/>
      <point x="133.45" y="522.41" type="line" smooth="yes"/>
      <point x="142.87" y="522.41"/>
      <point x="148.21" y="527.23"/>
      <point x="149.18" y="536.59" type="curve" smooth="yes"/>
      <point x="172.67" y="764.1" type="line" smooth="yes"/>
      <point x="173.71" y="774.16"/>
      <point x="168.58" y="779.85"/>
      <point x="158.46" y="779.85" type="curve" smooth="yes"/>
    </contour>
    <contour>
      <point x="247.08" y="779.85" type="line" smooth="yes"/>
      <point x="237.828" y="779.85"/>
      <point x="232.738" y="775.085"/>
      <point x="232.738" y="766.566" type="curve" smooth="yes"/>
      <point x="232.738" y="765.776"/>
      <point x="232.782" y="764.954"/>
      <point x="232.87" y="764.1" type="curve" smooth="yes"/>
      <point x="256.37" y="536.59" type="line" smooth="yes"/>
      <point x="257.34" y="527.23"/>
      <point x="262.68" y="522.41"/>
      <point x="272.09" y="522.41" type="curve" smooth="yes"/>
      <point x="316.62" y="522.41" type="line" smooth="yes"/>
      <point x="326.03" y="522.41"/>
      <point x="331.38" y="527.23"/>
      <point x="332.34" y="536.59" type="curve" smooth="yes"/>
      <point x="355.84" y="764.1" type="line" smooth="yes"/>
      <point x="356.88" y="774.16"/>
      <point x="351.75" y="779.85"/>
      <point x="341.63" y="779.85" type="curve" smooth="yes"/>
    </contour>
  </outline>
</glyph>
<glyph name="numbersign" format="1">
  <advance width="760.860"/>
  <unicode hex="0023"/>
  <outline>
    <contour>
      <point x="599.15" y="513.31" type="line"/>
      <point x="723.69" y="513.31" type="line" smooth="yes"/>
      <point x="732.477" y="513.31"/>
      <point x="737.378" y="509.016"/>
      <point x="737.378" y="501.715" type="curve" smooth="yes"/>
      <point x="737.378" y="500.159"/>
      <point x="737.155" y="498.467"/>
      <point x="736.7" y="496.65" type="curve" smooth="yes"/>
      <point x="722.64" y="440.27" type="line" smooth="yes"/>
      <point x="720.47" y="431.55"/>
      <point x="715.04" y="427.31"/>
      <point x="706.05" y="427.31" type="curve" smooth="yes"/>
      <point x="577.7" y="427.31" type="line"/>
      <point x="530.67" y="238.77" type="line"/>
      <point x="655.23" y="238.77" type="line" smooth="yes"/>
      <point x="664.017" y="238.77"/>
      <point x="668.918" y="234.482"/>
      <point x="668.918" y="227.179" type="curve" smooth="yes"/>
      <point x="668.918" y="225.622"/>
      <point x="668.695" y="223.928"/>
      <point x="668.24" y="222.11" type="curve" smooth="yes"/>
      <point x="654.18" y="165.73" type="line" smooth="yes"/>
      <point x="652.01" y="157.01"/>
      <point x="646.58" y="152.77"/>
      <point x="637.59" y="152.77" type="curve" smooth="yes"/>
      <point x="509.21" y="152.77" type="line"/>
      <point x="474.33" y="12.96" type="line" smooth="yes"/>
      <point x="472.16" y="4.24"/>
      <point x="466.73" y="-7.62939e-07"/>
      <point x="457.74" y="-7.62939e-07" type="curve" smooth="yes"/>
      <point x="389.94" y="-7.62939e-07" type="line" smooth="yes"/>
      <point x="381.15" y="-7.62939e-07"/>
      <point x="376.256" y="4.2904"/>
      <point x="376.256" y="11.5985" type="curve" smooth="yes"/>
      <point x="376.256" y="13.1532"/>
      <point x="376.477" y="14.8444"/>
      <point x="376.93" y="16.66" type="curve" smooth="yes"/>
      <point x="410.88" y="152.77" type="line"/>
      <point x="270.07" y="152.77" type="line"/>
      <point x="235.19" y="12.96" type="line" smooth="yes"/>
      <point x="233.02" y="4.24"/>
      <point x="227.59" y="-4.76837e-07"/>
      <point x="218.6" y="-4.76837e-07" type="curve" smooth="yes"/>
      <point x="150.79" y="-4.76837e-07" type="line" smooth="yes"/>
      <point x="142" y="-4.76837e-07"/>
      <point x="137.106" y="4.2904"/>
      <point x="137.106" y="11.5985" type="curve" smooth="yes"/>
      <point x="137.106" y="13.1532"/>
      <point x="137.327" y="14.8444"/>
      <point x="137.78" y="16.66" type="curve" smooth="yes"/>
      <point x="171.73" y="152.77" type="line"/>
      <point x="37.17" y="152.77" type="line" smooth="yes"/>
      <point x="28.38" y="152.77"/>
      <point x="23.4859" y="157.067"/>
      <point x="23.4859" y="164.372" type="curve" smooth="yes"/>
      <point x="23.4859" y="165.926"/>
      <point x="23.7074" y="167.616"/>
      <point x="24.16" y="169.43" type="curve" smooth="yes"/>
      <point x="38.23" y="225.81" type="line" smooth="yes"/>
      <point x="40.4" y="234.53"/>
      <point x="45.83" y="238.77"/>
      <point x="54.82" y="238.77" type="curve" smooth="yes"/>
      <point x="193.18" y="238.77" type="line"/>
      <point x="240.22" y="427.31" type="line"/>
      <point x="105.7" y="427.31" type="line" smooth="yes"/>
      <point x="96.9015" y="427.31"/>
      <point x="92.006" y="431.607"/>
      <point x="92.006" y="438.913" type="curve" smooth="yes"/>
      <point x="92.006" y="440.466"/>
      <point x="92.2275" y="442.156"/>
      <point x="92.68" y="443.97" type="curve" smooth="yes"/>
      <point x="106.75" y="500.35" type="line" smooth="yes"/>
      <point x="108.92" y="509.07"/>
      <point x="114.35" y="513.31"/>
      <point x="123.34" y="513.31" type="curve" smooth="yes"/>
      <point x="261.67" y="513.31" type="line"/>
      <point x="301.69" y="674.4" type="line" smooth="yes"/>
      <point x="303.86" y="683.13"/>
      <point x="309.28" y="687.37"/>
      <point x="318.28" y="687.37" type="curve" smooth="yes"/>
      <point x="386.1" y="687.37" type="line" smooth="yes"/>
      <point x="394.895" y="687.37"/>
      <point x="399.79" y="683.075"/>
      <point x="399.79" y="675.759" type="curve" smooth="yes"/>
      <point x="399.79" y="674.208"/>
      <point x="399.57" y="672.521"/>
      <point x="399.12" y="670.71" type="curve" smooth="yes"/>
      <point x="360.01" y="513.31" type="line"/>
      <point x="500.82" y="513.31" type="line"/>
      <point x="540.84" y="674.4" type="line" smooth="yes"/>
      <point x="543.01" y="683.13"/>
      <point x="548.43" y="687.37"/>
      <point x="557.43" y="687.37" type="curve" smooth="yes"/>
      <point x="625.24" y="687.37" type="line" smooth="yes"/>
      <point x="634.035" y="687.37"/>
      <point x="638.93" y="683.075"/>
      <point x="638.93" y="675.759" type="curve" smooth="yes"/>
      <point x="638.93" y="674.208"/>
      <point x="638.71" y="672.521"/>
      <point x="638.26" y="670.71" type="curve" smooth="yes"/>
    </contour>
    <contour>
      <point x="479.37" y="427.31" type="line"/>
      <point x="338.56" y="427.31" type="line"/>
      <point x="291.53" y="238.77" type="line"/>
      <point x="432.33" y="238.77" type="line"/>
    </contour>
  </outline>
</glyph>
<glyph name="percent" format="1">
  <advance width="881.092"/>
  <unicode hex="0025"/>
  <outline>
    <contour>
      <point x="181.59" y="-11" type="line" smooth="yes"/>
      <point x="189.57" y="-11"/>
      <point x="194.99" y="-8"/>
      <point x="199.86" y="-2" type="curve" smooth="yes"/>
      <point x="753.06" y="717.18" type="line" smooth="yes"/>
      <point x="755.715" y="720.721"/>
      <point x="756.978" y="723.99"/>
      <point x="756.978" y="726.756" type="curve" smooth="yes"/>
      <point x="756.978" y="732.042"/>
      <point x="752.365" y="735.49"/>
      <point x="744.04" y="735.49" type="curve" smooth="yes"/>
      <point x="702.8" y="735.49" type="line" smooth="yes"/>
      <point x="694.82" y="735.49"/>
      <point x="689.39" y="732.49"/>
      <point x="684.53" y="726.49" type="curve" smooth="yes"/>
      <point x="131.32" y="7.32" type="line" smooth="yes"/>
      <point x="128.665" y="3.77518"/>
      <point x="127.402" y="0.504085"/>
      <point x="127.402" y="-2.26309" type="curve" smooth="yes"/>
      <point x="127.402" y="-7.55196"/>
      <point x="132.015" y="-11"/>
      <point x="140.34" y="-11" type="curve" smooth="yes"/>
    </contour>
    <contour>
      <point x="111.021" y="680.42"/>
      <point x="72.5516" y="615.322"/>
      <point x="72.5516" y="546.363" type="curve" smooth="yes"/>
      <point x="72.5516" y="521.002"/>
      <point x="77.7544" y="495.119"/>
      <point x="88.73" y="470.31" type="curve" smooth="yes"/>
      <point x="119.332" y="401.574"/>
      <point x="185.906" y="360.407"/>
      <point x="254.9" y="360.407" type="curve" smooth="yes"/>
      <point x="278.522" y="360.407"/>
      <point x="302.427" y="365.233"/>
      <point x="325.27" y="375.43" type="curve" smooth="yes"/>
      <point x="390.727" y="404.577"/>
      <point x="429.331" y="469.642"/>
      <point x="429.331" y="538.575" type="curve" smooth="yes"/>
      <point x="429.331" y="563.959"/>
      <point x="424.096" y="589.867"/>
      <point x="413.04" y="614.7" type="curve" smooth="yes"/>
      <point x="382.434" y="683.445"/>
      <point x="315.847" y="724.552"/>
      <point x="246.844" y="724.552" type="curve" smooth="yes"/>
      <point x="223.231" y="724.552"/>
      <point x="199.334" y="719.738"/>
      <point x="176.5" y="709.57" type="curve" smooth="yes"/>
    </contour>
    <contour>
      <point x="210.774" y="655.682"/>
      <point x="219.21" y="657.435"/>
      <point x="227.416" y="657.435" type="curve" smooth="yes"/>
      <point x="266.31" y="657.435"/>
      <point x="300.049" y="618.075"/>
      <point x="320" y="573.26" type="curve" smooth="yes"/>
      <point x="330.752" y="549.113"/>
      <point x="337.648" y="523.049"/>
      <point x="337.648" y="499.622" type="curve" smooth="yes"/>
      <point x="337.648" y="470.408"/>
      <point x="326.924" y="445.296"/>
      <point x="299.58" y="433.12" type="curve" smooth="yes"/>
      <point x="290.983" y="429.275"/>
      <point x="282.534" y="427.513"/>
      <point x="274.315" y="427.513" type="curve" smooth="yes"/>
      <point x="235.441" y="427.513"/>
      <point x="201.713" y="466.922"/>
      <point x="181.77" y="511.72" type="curve" smooth="yes"/>
      <point x="171.018" y="535.872"/>
      <point x="164.122" y="561.938"/>
      <point x="164.122" y="585.365" type="curve" smooth="yes"/>
      <point x="164.122" y="614.58"/>
      <point x="174.846" y="639.689"/>
      <point x="202.19" y="651.86" type="curve" smooth="yes"/>
    </contour>
    <contour>
      <point x="587.622" y="3.39652"/>
      <point x="608.537" y="-0.30933"/>
      <point x="629.171" y="-0.30933" type="curve" smooth="yes"/>
      <point x="701.43" y="-0.309329"/>
      <point x="770.251" y="45.1348"/>
      <point x="798.55" y="118.34" type="curve" smooth="yes"/>
      <point x="807.061" y="140.516"/>
      <point x="811.094" y="163.283"/>
      <point x="811.094" y="185.592" type="curve" smooth="yes"/>
      <point x="811.094" y="258.152"/>
      <point x="768.429" y="325.875"/>
      <point x="698.37" y="352.69" type="curve" smooth="yes"/>
      <point x="678.022" y="360.501"/>
      <point x="657.081" y="364.204"/>
      <point x="636.418" y="364.204" type="curve" smooth="yes"/>
      <point x="564.142" y="364.204"/>
      <point x="495.272" y="318.896"/>
      <point x="467.12" y="245.57" type="curve" smooth="yes"/>
      <point x="458.612" y="223.406"/>
      <point x="454.581" y="200.656"/>
      <point x="454.581" y="178.364" type="curve" smooth="yes"/>
      <point x="454.581" y="105.809"/>
      <point x="497.28" y="38.1009"/>
      <point x="567.29" y="11.22" type="curve" smooth="yes"/>
    </contour>
    <contour>
      <point x="559.92" y="81.7151"/>
      <point x="548.271" y="109.152"/>
      <point x="548.271" y="141.184" type="curve" smooth="yes"/>
      <point x="548.271" y="162.877"/>
      <point x="553.614" y="186.677"/>
      <point x="562.21" y="209.07" type="curve" smooth="yes"/>
      <point x="580.244" y="256.049"/>
      <point x="613.067" y="298.055"/>
      <point x="653.281" y="298.055" type="curve" smooth="yes"/>
      <point x="660.541" y="298.055"/>
      <point x="668.042" y="296.686"/>
      <point x="675.74" y="293.73" type="curve" smooth="yes"/>
      <point x="705.785" y="282.259"/>
      <point x="717.429" y="254.838"/>
      <point x="717.429" y="222.814" type="curve" smooth="yes"/>
      <point x="717.429" y="201.097"/>
      <point x="712.074" y="177.262"/>
      <point x="703.47" y="154.85" type="curve" smooth="yes"/>
      <point x="685.435" y="107.869"/>
      <point x="652.61" y="65.8682"/>
      <point x="612.393" y="65.8682" type="curve" smooth="yes"/>
      <point x="605.135" y="65.8682"/>
      <point x="597.636" y="67.2363"/>
      <point x="589.94" y="70.19" type="curve" smooth="yes"/>
    </contour>
  </outline>
</glyph>
<glyph name="comma" format="1">
  <advance width="236.532"/>
  <unicode hex="002C"/>
  <outline>
    <contour>
      <point x="163.86" y="155.97" type="line" smooth="yes"/>
      <point x="151.185" y="168.645"/>
      <point x="138.019" y="174.965"/>
      <point x="124.857" y="174.965" type="curve" smooth="yes"/>
      <point x="111.767" y="174.965"/>
      <point x="98.6798" y="168.715"/>
      <point x="86.08" y="156.25" type="curve" smooth="yes"/>
      <point x="46.98" y="117.16" type="line" smooth="yes"/>
      <point x="34.34" y="104.52"/>
      <point x="28.02" y="91.3925"/>
      <point x="28.02" y="78.2663" type="curve" smooth="yes"/>
      <point x="28.02" y="65.14"/>
      <point x="34.34" y="52.015"/>
      <point x="46.98" y="39.38" type="curve" smooth="yes"/>
      <point x="86.08" y="0.28" type="line" smooth="yes"/>
      <point x="91.8051" y="-5.44738"/>
      <point x="94.4844" y="-13.2649"/>
      <point x="94.4844" y="-22.4896" type="curve" smooth="yes"/>
      <point x="94.4844" y="-53.9817"/>
      <point x="63.2583" y="-101.875"/>
      <point x="15.39" y="-139" type="curve"/>
      <point x="44.3" y="-152"/>
      <point x="50.17" y="-154"/>
      <point x="55.08" y="-154" type="curve" smooth="yes"/>
      <point x="78.12" y="-154"/>
      <point x="204.38" y="-47"/>
      <point x="220.79" y="32" type="curve" smooth="yes"/>
      <point x="223.067" y="42.9893"/>
      <point x="224.095" y="52.8267"/>
      <point x="224.095" y="61.654" type="curve" smooth="yes"/>
      <point x="224.095" y="87.7128"/>
      <point x="215.14" y="104.969"/>
      <point x="202.95" y="117.07" type="curve" smooth="yes"/>
    </contour>
  </outline>
</glyph>
<glyph name="period" format="1">
  <advance width="354.414"/>
  <unicode hex="002E"/>
  <outline>
    <contour>
      <point x="99.48" y="116.88" type="line" smooth="yes"/>
      <point x="86.84" y="104.24"/>
      <point x="80.52" y="91.1125"/>
      <point x="80.52" y="77.9862" type="curve" smooth="yes"/>
      <point x="80.52" y="64.86"/>
      <point x="86.84" y="51.735"/>
      <point x="99.48" y="39.1" type="curve" smooth="yes"/>
      <point x="138.58" y="-6.86646e-07" type="line" smooth="yes"/>
      <point x="151.22" y="-12.5"/>
      <point x="164.345" y="-18.75"/>
      <point x="177.47" y="-18.75" type="curve" smooth="yes"/>
      <point x="190.595" y="-18.75"/>
      <point x="203.72" y="-12.5"/>
      <point x="216.36" y="-6.86646e-07" type="curve" smooth="yes"/>
      <point x="255.46" y="39.1" type="line" smooth="yes"/>
      <point x="268.095" y="51.735"/>
      <point x="274.413" y="64.86"/>
      <point x="274.413" y="77.9862" type="curve" smooth="yes"/>
      <point x="274.413" y="91.1125"/>
      <point x="268.095" y="104.24"/>
      <point x="255.46" y="116.88" type="curve" smooth="yes"/>
      <point x="216.36" y="155.97" type="line" smooth="yes"/>
      <point x="203.685" y="168.645"/>
      <point x="190.522" y="174.965"/>
      <point x="177.36" y="174.965" type="curve" smooth="yes"/>
      <point x="164.272" y="174.965"/>
      <point x="151.185" y="168.715"/>
      <point x="138.58" y="156.25" type="curve" smooth="yes"/>
    </contour>
  </outline>
</glyph>
<glyph name="slash" format="1">
  <advance width="499.942"/>
  <unicode hex="002F"/>
  <outline>
    <contour>
      <point x="49.04" y="-119" type="line" smooth="yes"/>
      <point x="45.11" y="-130"/>
      <point x="50.04" y="-136"/>
      <point x="61.14" y="-136" type="curve" smooth="yes"/>
      <point x="142.71" y="-136" type="line" smooth="yes"/>
      <point x="151.43" y="-136"/>
      <point x="156.63" y="-133"/>
      <point x="159.84" y="-124" type="curve" smooth="yes"/>
      <point x="479.63" y="765.2" type="line" smooth="yes"/>
      <point x="483.38" y="775.64"/>
      <point x="478.62" y="782.41"/>
      <point x="467.52" y="782.41" type="curve" smooth="yes"/>
      <point x="385.95" y="782.41" type="line" smooth="yes"/>
      <point x="377.24" y="782.41"/>
      <point x="371.78" y="778.57"/>
      <point x="368.83" y="770.37" type="curve" smooth="yes"/>
    </contour>
  </outline>
</glyph>
<glyph name="one" format="1">
  <advance width="422.480"/>
  <unicode hex="0031"/>
  <outline>
    <contour>
      <point x="289.01" y="357.66" type="line" smooth="yes"/>
      <point x="289.01" y="442"/>
      <point x="306.67" y="476.73"/>
      <point x="361.56" y="480.73" type="curve" smooth="yes"/>
      <point x="382.48" y="482.61" type="line"/>
      <point x="392.23" y="482.61"/>
      <point x="397.48" y="487.86"/>
      <point x="397.48" y="497.61" type="curve" smooth="yes"/>
      <point x="397.48" y="527.73" type="line" smooth="yes"/>
      <point x="397.48" y="537.48"/>
      <point x="392.23" y="542.73"/>
      <point x="382.48" y="542.73" type="curve"/>
      <point x="266.65" y="522.73"/>
      <point x="150.83" y="512.73"/>
      <point x="35" y="512.73" type="curve" smooth="yes"/>
      <point x="25.25" y="512.73"/>
      <point x="20" y="507.48"/>
      <point x="20" y="497.73" type="curve" smooth="yes"/>
      <point x="20" y="467.61" type="line" smooth="yes"/>
      <point x="20" y="457.86"/>
      <point x="25.25" y="452.61"/>
      <point x="35" y="452.61" type="curve" smooth="yes"/>
      <point x="116.29" y="452.61"/>
      <point x="129.21" y="412"/>
      <point x="129.21" y="357.66" type="curve" smooth="yes"/>
      <point x="129.21" y="155.08" type="line" smooth="yes"/>
      <point x="129.21" y="102.439"/>
      <point x="112.643" y="62.5744"/>
      <point x="61.7268" y="60.12" type="curve"/>
      <point x="35" y="60.12" type="line" smooth="yes"/>
      <point x="25.25" y="60.12"/>
      <point x="20" y="54.87"/>
      <point x="20" y="45.12" type="curve" smooth="yes"/>
      <point x="20" y="15" type="line" smooth="yes"/>
      <point x="20" y="5.25"/>
      <point x="25.25" y="-4.92096e-06"/>
      <point x="35" y="-4.92096e-06" type="curve" smooth="yes"/>
      <point x="382.48" y="-4.92096e-06" type="line" smooth="yes"/>
      <point x="392.23" y="-4.92096e-06"/>
      <point x="397.48" y="5.25"/>
      <point x="397.48" y="15" type="curve" smooth="yes"/>
      <point x="397.48" y="45.12" type="line" smooth="yes"/>
      <point x="397.48" y="54.87"/>
      <point x="392.23" y="60.12"/>
      <point x="382.48" y="60.12" type="curve" smooth="yes"/>
      <point x="356.493" y="60.12" type="line"/>
      <point x="305.577" y="62.5744"/>
      <point x="289.01" y="102.439"/>
      <point x="289.01" y="155.08" type="curve" smooth="yes"/>
    </contour>
  </outline>
</glyph>
<glyph name="three" format="1">
  <advance width="538.790"/>
  <unicode hex="0033"/>
  <outline>
    <contour>
      <point x="167.23" y="327.21" type="line" smooth="yes"/>
      <point x="173.961" y="325.689"/>
      <point x="177.048" y="330.264"/>
      <point x="177.048" y="336.379" type="curve" smooth="yes"/>
      <point x="177.048" y="339.829"/>
      <point x="176.065" y="343.769"/>
      <point x="174.2" y="347.38" type="curve" smooth="yes"/>
      <point x="158.807" y="377.16"/>
      <point x="152.496" y="401.231"/>
      <point x="152.496" y="420.47" type="curve" smooth="yes"/>
      <point x="152.496" y="470.636"/>
      <point x="195.406" y="487.95"/>
      <point x="232.11" y="487.95" type="curve" smooth="yes"/>
      <point x="275.91" y="487.95"/>
      <point x="302.43" y="458.13"/>
      <point x="302.43" y="399.62" type="curve" smooth="yes"/>
      <point x="302.43" y="327.91"/>
      <point x="239.4" y="264.37"/>
      <point x="126.32" y="227.74" type="curve" smooth="yes"/>
      <point x="123.334" y="226.771"/>
      <point x="120.918" y="225.523"/>
      <point x="119.103" y="224.029" type="curve"/>
      <point x="114.994" y="221.578"/>
      <point x="112.899" y="217.725"/>
      <point x="112.899" y="212.683" type="curve" smooth="yes"/>
      <point x="112.899" y="211.35"/>
      <point x="113.046" y="209.935"/>
      <point x="113.34" y="208.44" type="curve" smooth="yes"/>
      <point x="119.13" y="178.99" type="line" smooth="yes"/>
      <point x="120.709" y="170.955"/>
      <point x="125.357" y="166.861"/>
      <point x="132.545" y="166.861" type="curve" smooth="yes"/>
      <point x="133.963" y="166.861"/>
      <point x="135.479" y="167.02"/>
      <point x="137.09" y="167.34" type="curve" smooth="yes"/>
      <point x="165.828" y="173.041"/>
      <point x="192.908" y="176.214"/>
      <point x="217.562" y="176.214" type="curve" smooth="yes"/>
      <point x="299.6" y="176.214"/>
      <point x="354.77" y="141.074"/>
      <point x="354.77" y="46.98" type="curve" smooth="yes"/>
      <point x="354.77" y="-72.8947"/>
      <point x="270.902" y="-125.329"/>
      <point x="161.666" y="-125.329" type="curve" smooth="yes"/>
      <point x="133.321" y="-125.329"/>
      <point x="103.269" y="-121.799"/>
      <point x="72.53" y="-115" type="curve" smooth="yes"/>
      <point x="62.9991" y="-113.186"/>
      <point x="57.432" y="-118.774"/>
      <point x="57.432" y="-127.288" type="curve" smooth="yes"/>
      <point x="57.432" y="-128.163"/>
      <point x="57.4908" y="-129.068"/>
      <point x="57.61" y="-130" type="curve" smooth="yes"/>
      <point x="62.8" y="-173" type="line" smooth="yes"/>
      <point x="63.92" y="-182"/>
      <point x="69.39" y="-186"/>
      <point x="78.71" y="-187" type="curve" smooth="yes"/>
      <point x="110.476" y="-190.997"/>
      <point x="141.655" y="-192.999"/>
      <point x="171.806" y="-192.999" type="curve" smooth="yes"/>
      <point x="360.418" y="-192.999"/>
      <point x="508.79" y="-114.64"/>
      <point x="508.79" y="44" type="curve" smooth="yes"/>
      <point x="508.79" y="155.195"/>
      <point x="427.492" y="219.758"/>
      <point x="312.663" y="236.571" type="curve"/>
      <point x="391.559" y="266.119"/>
      <point x="446.467" y="315.618"/>
      <point x="446.467" y="399.247" type="curve" smooth="yes"/>
      <point x="446.467" y="498.427"/>
      <point x="372.098" y="546.18"/>
      <point x="236.56" y="546.18" type="curve" smooth="yes"/>
      <point x="113.299" y="546.18"/>
      <point x="30.001" y="477.885"/>
      <point x="30.001" y="406.313" type="curve" smooth="yes"/>
      <point x="30.001" y="394.288"/>
      <point x="32.3522" y="382.171"/>
      <point x="37.26" y="370.27" type="curve" smooth="yes"/>
      <point x="41.63" y="359.53"/>
      <point x="47.47" y="354.56"/>
      <point x="62.34" y="351.21" type="curve" smooth="yes"/>
    </contour>
  </outline>
</glyph>
<glyph name="four" format="1">
  <advance width="564.850"/>
  <unicode hex="0034"/>
  <outline>
    <contour>
      <point x="539.85" y="73.12" type="line" smooth="yes"/>
      <point x="539.85" y="82.87"/>
      <point x="534.6" y="88.12"/>
      <point x="524.85" y="88.12" type="curve" smooth="yes"/>
      <point x="413.27" y="88.12" type="line"/>
      <point x="413.27" y="210.06" type="line" smooth="yes"/>
      <point x="413.27" y="219.05"/>
      <point x="408.856" y="223.633"/>
      <point x="401.174" y="223.633" type="curve" smooth="yes"/>
      <point x="399.781" y="223.633"/>
      <point x="398.281" y="223.482"/>
      <point x="396.68" y="223.18" type="curve" smooth="yes"/>
      <point x="308.22" y="206.49" type="line" smooth="yes"/>
      <point x="299.35" y="204.81"/>
      <point x="295.15" y="198.99"/>
      <point x="295.15" y="189.96" type="curve" smooth="yes"/>
      <point x="295.15" y="88.12" type="line"/>
      <point x="116.68" y="88.12" type="line"/>
      <point x="185.858" y="169.426"/>
      <point x="370.249" y="350.532"/>
      <point x="370.249" y="469.772" type="curve" smooth="yes"/>
      <point x="370.249" y="481.099"/>
      <point x="368.585" y="491.868"/>
      <point x="365" y="501.94" type="curve" smooth="yes"/>
      <point x="361.12" y="512.86"/>
      <point x="355.28" y="518.43"/>
      <point x="340.36" y="521.56" type="curve" smooth="yes"/>
      <point x="196.49" y="551.76" type="line" smooth="yes"/>
      <point x="189.608" y="553.207"/>
      <point x="186.51" y="548.606"/>
      <point x="186.51" y="542.402" type="curve" smooth="yes"/>
      <point x="186.51" y="539.086"/>
      <point x="187.395" y="535.313"/>
      <point x="189.06" y="531.76" type="curve" smooth="yes"/>
      <point x="204.709" y="498.363"/>
      <point x="211.496" y="467.794"/>
      <point x="211.496" y="439.038" type="curve" smooth="yes"/>
      <point x="211.496" y="317.96"/>
      <point x="91.1715" y="229.039"/>
      <point x="5.44999" y="96.57" type="curve" smooth="yes"/>
      <point x="1.49999" y="90.38"/>
      <point x="-8.96931e-06" y="85.31"/>
      <point x="-8.96931e-06" y="78" type="curve" smooth="yes"/>
      <point x="-8.96931e-06" y="16" type="line" smooth="yes"/>
      <point x="-8.96931e-06" y="6"/>
      <point x="5.24999" y="1"/>
      <point x="15" y="1" type="curve" smooth="yes"/>
      <point x="295.15" y="1" type="line"/>
      <point x="295.15" y="-185" type="line" smooth="yes"/>
      <point x="295.15" y="-195"/>
      <point x="300.4" y="-200"/>
      <point x="310.15" y="-200" type="curve" smooth="yes"/>
      <point x="398.27" y="-200" type="line" smooth="yes"/>
      <point x="408.02" y="-200"/>
      <point x="413.27" y="-195"/>
      <point x="413.27" y="-185" type="curve" smooth="yes"/>
      <point x="413.27" y="1" type="line"/>
      <point x="524.85" y="1" type="line" smooth="yes"/>
      <point x="534.6" y="1"/>
      <point x="539.85" y="6"/>
      <point x="539.85" y="16" type="curve" smooth="yes"/>
    </contour>
  </outline>
</glyph>
<glyph name="six" format="1">
  <advance width="642.098"/>
  <unicode hex="0036"/>
  <outline>
    <contour>
      <point x="579.76" y="566.99" type="line" smooth="yes"/>
      <point x="594.63" y="570.34"/>
      <point x="600.47" y="575.31"/>
      <point x="604.84" y="586.05" type="curve" smooth="yes"/>
      <point x="609.748" y="597.951"/>
      <point x="612.099" y="610.068"/>
      <point x="612.099" y="622.093" type="curve" smooth="yes"/>
      <point x="612.099" y="693.665"/>
      <point x="528.801" y="761.96"/>
      <point x="405.54" y="761.96" type="curve" smooth="yes"/>
      <point x="109.424" y="761.96"/>
      <point x="29.9986" y="483.464"/>
      <point x="29.9986" y="303.481" type="curve" smooth="yes"/>
      <point x="29.9986" y="270.279"/>
      <point x="32.7013" y="240.43"/>
      <point x="37.2452" y="216.3" type="curve" smooth="yes"/>
      <point x="38.0555" y="211.935"/>
      <point x="38.9827" y="207.561"/>
      <point x="40.0283" y="203.183" type="curve" smooth="yes"/>
      <point x="40.0923" y="202.914"/>
      <point x="40.1309" y="202.753"/>
      <point x="40.1698" y="202.592" type="curve" smooth="yes"/>
      <point x="72.7107" y="74.4882"/>
      <point x="195.78" y="-14.3045"/>
      <point x="328.52" y="-14.3045" type="curve" smooth="yes"/>
      <point x="345.201" y="-14.3045"/>
      <point x="362.034" y="-12.9023"/>
      <point x="378.86" y="-9.9998" type="curve" smooth="yes"/>
      <point x="507.632" y="13.0885"/>
      <point x="594.244" y="117.166"/>
      <point x="594.244" y="236.496" type="curve" smooth="yes"/>
      <point x="594.244" y="256.817"/>
      <point x="591.733" y="277.58"/>
      <point x="586.49" y="298.46" type="curve" smooth="yes"/>
      <point x="554.558" y="425.639"/>
      <point x="432.039" y="514.487"/>
      <point x="299.676" y="514.487" type="curve" smooth="yes"/>
      <point x="282.689" y="514.487"/>
      <point x="265.54" y="513.024"/>
      <point x="248.4" y="509.99" type="curve" smooth="yes"/>
      <point x="230.733" y="506.863"/>
      <point x="213.868" y="502.206"/>
      <point x="197.916" y="496.189" type="curve"/>
      <point x="226.518" y="601.013"/>
      <point x="288.412" y="694.13"/>
      <point x="409.99" y="694.13" type="curve" smooth="yes"/>
      <point x="446.694" y="694.13"/>
      <point x="489.604" y="682.041"/>
      <point x="489.604" y="634.771" type="curve" smooth="yes"/>
      <point x="489.604" y="616.643"/>
      <point x="483.293" y="593.34"/>
      <point x="467.9" y="563.56" type="curve" smooth="yes"/>
      <point x="463.164" y="554.39"/>
      <point x="464.118" y="543.096"/>
      <point x="472.407" y="543.096" type="curve" smooth="yes"/>
      <point x="473.166" y="543.096"/>
      <point x="473.987" y="543.191"/>
      <point x="474.87" y="543.39" type="curve" smooth="yes"/>
    </contour>
    <contour>
      <point x="274.022" y="438.563"/>
      <point x="281.184" y="439.188"/>
      <point x="288.142" y="439.188" type="curve" smooth="yes"/>
      <point x="367.361" y="439.188"/>
      <point x="420.132" y="358.145"/>
      <point x="441.56" y="272.8" type="curve" smooth="yes"/>
      <point x="448.004" y="247.133"/>
      <point x="451.667" y="220.861"/>
      <point x="451.667" y="195.938" type="curve" smooth="yes"/>
      <point x="451.667" y="130.715"/>
      <point x="426.579" y="74.738"/>
      <point x="360.6" y="63.0602" type="curve" smooth="yes"/>
      <point x="353.18" y="61.7341"/>
      <point x="345.964" y="61.0979"/>
      <point x="338.955" y="61.0979" type="curve" smooth="yes"/>
      <point x="259.811" y="61.0979"/>
      <point x="207.114" y="142.233"/>
      <point x="185.71" y="227.52" type="curve" smooth="yes"/>
      <point x="180.409" y="248.873"/>
      <point x="176.589" y="283.908"/>
      <point x="176.542" y="325.638" type="curve"/>
      <point x="181.648" y="381.447"/>
      <point x="207.979" y="426.874"/>
      <point x="266.66" y="437.26" type="curve" smooth="yes"/>
    </contour>
  </outline>
</glyph>
<glyph name="seven" format="1">
  <advance width="582.245"/>
  <unicode hex="0037"/>
  <outline>
    <contour>
      <point x="147.4" y="545.54" type="line"/>
      <point x="145.605" y="545.48" type="line"/>
      <point x="130.66" y="545.48" type="line" smooth="yes"/>
      <point x="123.44" y="545.48"/>
      <point x="117.7" y="545.51"/>
      <point x="112.06" y="550.51" type="curve" smooth="yes"/>
      <point x="106.65" y="555.51" type="line"/>
      <point x="103.936" y="557.684"/>
      <point x="101.132" y="558.675"/>
      <point x="98.4296" y="558.675" type="curve" smooth="yes"/>
      <point x="93.6736" y="558.675"/>
      <point x="89.2337" y="555.605"/>
      <point x="86.1601" y="550.51" type="curve" smooth="yes"/>
      <point x="22.7001" y="445.18" type="line" smooth="yes"/>
      <point x="20.8876" y="442.168"/>
      <point x="19.9996" y="439.299"/>
      <point x="19.9996" y="436.634" type="curve" smooth="yes"/>
      <point x="19.9996" y="431.903"/>
      <point x="22.7978" y="427.812"/>
      <point x="28.1901" y="424.69" type="curve" smooth="yes"/>
      <point x="59.1301" y="406.76" type="line" smooth="yes"/>
      <point x="62.1723" y="404.995"/>
      <point x="65.0479" y="404.121"/>
      <point x="67.7116" y="404.121" type="curve" smooth="yes"/>
      <point x="72.429" y="404.121"/>
      <point x="76.482" y="406.862"/>
      <point x="79.6201" y="412.25" type="curve" smooth="yes"/>
      <point x="82.7401" y="417.62" type="line" smooth="yes"/>
      <point x="105.7" y="457.04"/>
      <point x="227.25" y="459.46"/>
      <point x="276.12" y="460.24" type="curve" smooth="yes"/>
      <point x="475.56" y="463.42" type="line"/>
      <point x="403.868" y="379.148"/>
      <point x="73.9901" y="-6.49576"/>
      <point x="73.9901" y="-145.851" type="curve" smooth="yes"/>
      <point x="73.9901" y="-153.719"/>
      <point x="75.0415" y="-160.801"/>
      <point x="77.2501" y="-167" type="curve" smooth="yes"/>
      <point x="81.1301" y="-178"/>
      <point x="86.8901" y="-184"/>
      <point x="101.89" y="-186" type="curve"/>
      <point x="265.76" y="-217" type="line" smooth="yes"/>
      <point x="272.625" y="-218.305"/>
      <point x="275.726" y="-213.648"/>
      <point x="275.726" y="-207.476" type="curve" smooth="yes"/>
      <point x="275.726" y="-204.19"/>
      <point x="274.847" y="-200.474"/>
      <point x="273.19" y="-197" type="curve" smooth="yes"/>
      <point x="262.394" y="-173.962"/>
      <point x="257.569" y="-148.469"/>
      <point x="257.569" y="-121.194" type="curve" smooth="yes"/>
      <point x="257.569" y="57.5302"/>
      <point x="464.755" y="312.753"/>
      <point x="556.79" y="454.97" type="curve" smooth="yes"/>
      <point x="560.74" y="461.16"/>
      <point x="562.25" y="466.23"/>
      <point x="562.25" y="473.54" type="curve" smooth="yes"/>
      <point x="562.25" y="530.54" type="line" smooth="yes"/>
      <point x="562.25" y="540.54"/>
      <point x="557" y="545.54"/>
      <point x="547.25" y="545.54" type="curve" smooth="yes"/>
    </contour>
  </outline>
</glyph>
<glyph name="eight" format="1">
  <advance width="557.651"/>
  <unicode hex="0038"/>
  <outline>
    <contour>
      <point x="147.87" y="765.44"/>
      <point x="46.48" y="683.77"/>
      <point x="46.48" y="566.81" type="curve" smooth="yes"/>
      <point x="46.48" y="472.94"/>
      <point x="103.85" y="410.57"/>
      <point x="166.38" y="370.76" type="curve"/>
      <point x="89.13" y="338.62"/>
      <point x="30" y="285.39"/>
      <point x="30" y="193.58" type="curve" smooth="yes"/>
      <point x="30" y="66.49"/>
      <point x="127.27" y="-9.99999"/>
      <point x="272.67" y="-9.99999" type="curve" smooth="yes"/>
      <point x="419.16" y="-9.99999"/>
      <point x="527.651" y="67.7838"/>
      <point x="527.651" y="194.23" type="curve" smooth="yes"/>
      <point x="527.651" y="292.341"/>
      <point x="473.374" y="353.681"/>
      <point x="389.05" y="399.57" type="curve"/>
      <point x="453.36" y="434.26"/>
      <point x="507.11" y="502.09"/>
      <point x="507.11" y="577.11" type="curve" smooth="yes"/>
      <point x="507.11" y="683.89"/>
      <point x="418.07" y="765.44"/>
      <point x="282.98" y="765.44" type="curve" smooth="yes"/>
    </contour>
    <contour>
      <point x="361.27" y="702.69"/>
      <point x="396.1" y="640.18"/>
      <point x="396.1" y="577.1" type="curve" smooth="yes"/>
      <point x="396.1" y="515.51"/>
      <point x="367.42" y="460.4"/>
      <point x="298.32" y="439.63" type="curve"/>
      <point x="251.13" y="456.1"/>
      <point x="174.33" y="507.71"/>
      <point x="174.33" y="578.04" type="curve" smooth="yes"/>
      <point x="174.33" y="661.3"/>
      <point x="218.68" y="702.69"/>
      <point x="282.97" y="702.69" type="curve" smooth="yes"/>
    </contour>
    <contour>
      <point x="304.65" y="312.11"/>
      <point x="396.13" y="264.69"/>
      <point x="396.13" y="181" type="curve" smooth="yes"/>
      <point x="396.13" y="97.63"/>
      <point x="360.39" y="52.7"/>
      <point x="272.68" y="52.7" type="curve" smooth="yes"/>
      <point x="179.83" y="52.7"/>
      <point x="138.94" y="120.52"/>
      <point x="138.94" y="193.59" type="curve" smooth="yes"/>
      <point x="138.94" y="252.14"/>
      <point x="170.61" y="300.21"/>
      <point x="257.14" y="326.15" type="curve"/>
    </contour>
  </outline>
</glyph>
<glyph name="nine" format="1">
  <advance width="618.080"/>
  <unicode hex="0039"/>
  <outline>
    <contour>
      <point x="58" y="160.66" type="line" smooth="yes"/>
      <point x="43.13" y="157.31"/>
      <point x="37.29" y="152.34"/>
      <point x="32.92" y="141.6" type="curve" smooth="yes"/>
      <point x="28.0555" y="129.734"/>
      <point x="25.7242" y="117.66"/>
      <point x="25.7242" y="105.682" type="curve" smooth="yes"/>
      <point x="25.7242" y="34.1356"/>
      <point x="108.897" y="-34"/>
      <point x="232.22" y="-34" type="curve" smooth="yes"/>
      <point x="535.812" y="-34"/>
      <point x="598.082" y="277.476"/>
      <point x="598.082" y="446.843" type="curve" smooth="yes"/>
      <point x="598.082" y="479.534"/>
      <point x="595.762" y="506.93"/>
      <point x="592.41" y="525.77" type="curve" smooth="yes"/>
      <point x="565.337" y="677.96"/>
      <point x="451.738" y="743.492"/>
      <point x="325.496" y="743.492" type="curve" smooth="yes"/>
      <point x="303.546" y="743.492"/>
      <point x="281.215" y="741.511"/>
      <point x="258.89" y="737.66" type="curve" smooth="yes"/>
      <point x="131.011" y="714.73"/>
      <point x="48.1343" y="611.912"/>
      <point x="48.1343" y="493.616" type="curve" smooth="yes"/>
      <point x="48.1343" y="472.514"/>
      <point x="50.7712" y="450.921"/>
      <point x="56.26" y="429.2" type="curve" smooth="yes"/>
      <point x="87.1399" y="306.212"/>
      <point x="189.756" y="238.69"/>
      <point x="313.335" y="238.69" type="curve" smooth="yes"/>
      <point x="333.946" y="238.69"/>
      <point x="355.139" y="240.568"/>
      <point x="376.68" y="244.38" type="curve" smooth="yes"/>
      <point x="399.33" y="248.39"/>
      <point x="420.63" y="254.92"/>
      <point x="440.4" y="263.52" type="curve"/>
      <point x="416.71" y="143.07"/>
      <point x="359.18" y="33.52"/>
      <point x="227.77" y="33.52" type="curve" smooth="yes"/>
      <point x="191.066" y="33.52"/>
      <point x="148.156" y="45.6093"/>
      <point x="148.156" y="92.8792" type="curve" smooth="yes"/>
      <point x="148.156" y="111.008"/>
      <point x="154.467" y="134.31"/>
      <point x="169.86" y="164.09" type="curve" smooth="yes"/>
      <point x="174.596" y="173.26"/>
      <point x="173.642" y="184.554"/>
      <point x="165.353" y="184.554" type="curve" smooth="yes"/>
      <point x="164.594" y="184.554"/>
      <point x="163.773" y="184.46"/>
      <point x="162.89" y="184.26" type="curve" smooth="yes"/>
    </contour>
    <contour>
      <point x="257.213" y="314.527"/>
      <point x="216.994" y="372.041"/>
      <point x="196.2" y="454.86" type="curve" smooth="yes"/>
      <point x="189.754" y="480.534"/>
      <point x="186.09" y="506.923"/>
      <point x="186.09" y="531.985" type="curve" smooth="yes"/>
      <point x="186.09" y="605.025"/>
      <point x="217.21" y="666.8"/>
      <point x="301.278" y="666.8" type="curve" smooth="yes"/>
      <point x="406.262" y="666.8"/>
      <point x="454.795" y="536.275"/>
      <point x="454.795" y="460.531" type="curve" smooth="yes"/>
      <point x="454.795" y="392.675"/>
      <point x="429.535" y="314.527"/>
      <point x="330.395" y="314.527" type="curve" smooth="yes"/>
    </contour>
  </outline>
</glyph>
<glyph name="colon" format="1">
  <advance width="353.890"/>
  <unicode hex="003A"/>
  <outline>
    <contour>
      <point x="98.96" y="527.74" type="line" smooth="yes"/>
      <point x="86.32" y="515.1"/>
      <point x="80" y="501.975"/>
      <point x="80" y="488.85" type="curve" smooth="yes"/>
      <point x="80" y="475.725"/>
      <point x="86.32" y="462.6"/>
      <point x="98.96" y="449.96" type="curve" smooth="yes"/>
      <point x="138.05" y="410.86" type="line" smooth="yes"/>
      <point x="150.69" y="398.36"/>
      <point x="163.818" y="392.11"/>
      <point x="176.945" y="392.11" type="curve" smooth="yes"/>
      <point x="190.073" y="392.11"/>
      <point x="203.2" y="398.36"/>
      <point x="215.84" y="410.86" type="curve" smooth="yes"/>
      <point x="254.93" y="449.96" type="line" smooth="yes"/>
      <point x="267.57" y="462.6"/>
      <point x="273.89" y="475.725"/>
      <point x="273.89" y="488.85" type="curve" smooth="yes"/>
      <point x="273.89" y="501.975"/>
      <point x="267.57" y="515.1"/>
      <point x="254.93" y="527.74" type="curve" smooth="yes"/>
      <point x="215.84" y="566.84" type="line" smooth="yes"/>
      <point x="203.165" y="579.515"/>
      <point x="189.999" y="585.835"/>
      <point x="176.835" y="585.835" type="curve" smooth="yes"/>
      <point x="163.744" y="585.835"/>
      <point x="150.655" y="579.585"/>
      <point x="138.05" y="567.12" type="curve" smooth="yes"/>
    </contour>
    <contour>
      <point x="98.96" y="117.16" type="line" smooth="yes"/>
      <point x="86.32" y="104.52"/>
      <point x="80" y="91.3925"/>
      <point x="80" y="78.2663" type="curve" smooth="yes"/>
      <point x="80" y="65.14"/>
      <point x="86.32" y="52.015"/>
      <point x="98.96" y="39.38" type="curve" smooth="yes"/>
      <point x="138.05" y="0.28" type="line" smooth="yes"/>
      <point x="150.69" y="-12.22"/>
      <point x="163.818" y="-18.47"/>
      <point x="176.945" y="-18.47" type="curve" smooth="yes"/>
      <point x="190.073" y="-18.47"/>
      <point x="203.2" y="-12.22"/>
      <point x="215.84" y="0.28" type="curve" smooth="yes"/>
      <point x="254.93" y="39.38" type="line" smooth="yes"/>
      <point x="267.57" y="52.015"/>
      <point x="273.89" y="65.14"/>
      <point x="273.89" y="78.2663" type="curve" smooth="yes"/>
      <point x="273.89" y="91.3925"/>
      <point x="267.57" y="104.52"/>
      <point x="254.93" y="117.16" type="curve" smooth="yes"/>
      <point x="215.84" y="156.25" type="line" smooth="yes"/>
      <point x="203.165" y="168.925"/>
      <point x="189.999" y="175.245"/>
      <point x="176.835" y="175.245" type="curve" smooth="yes"/>
      <point x="163.744" y="175.245"/>
      <point x="150.655" y="168.995"/>
      <point x="138.05" y="156.53" type="curve" smooth="yes"/>
    </contour>
  </outline>
</glyph>
<glyph name="semicolon" format="1">
  <advance width="370.704"/>
  <unicode hex="003B"/>
  <outline>
    <contour>
      <point x="115.77" y="527.82" type="line" smooth="yes"/>
      <point x="103.13" y="515.18"/>
      <point x="96.81" y="502.055"/>
      <point x="96.81" y="488.93" type="curve" smooth="yes"/>
      <point x="96.81" y="475.805"/>
      <point x="103.13" y="462.68"/>
      <point x="115.77" y="450.04" type="curve" smooth="yes"/>
      <point x="154.87" y="410.94" type="line" smooth="yes"/>
      <point x="167.51" y="398.44"/>
      <point x="180.635" y="392.19"/>
      <point x="193.76" y="392.19" type="curve" smooth="yes"/>
      <point x="206.885" y="392.19"/>
      <point x="220.01" y="398.44"/>
      <point x="232.65" y="410.94" type="curve" smooth="yes"/>
      <point x="271.74" y="450.04" type="line" smooth="yes"/>
      <point x="284.38" y="462.68"/>
      <point x="290.7" y="475.805"/>
      <point x="290.7" y="488.93" type="curve" smooth="yes"/>
      <point x="290.7" y="502.055"/>
      <point x="284.38" y="515.18"/>
      <point x="271.74" y="527.82" type="curve" smooth="yes"/>
      <point x="232.65" y="566.91" type="line" smooth="yes"/>
      <point x="219.975" y="579.585"/>
      <point x="206.812" y="585.905"/>
      <point x="193.65" y="585.905" type="curve" smooth="yes"/>
      <point x="180.562" y="585.905"/>
      <point x="167.475" y="579.655"/>
      <point x="154.87" y="567.19" type="curve" smooth="yes"/>
    </contour>
    <contour>
      <point x="228.47" y="156.25" type="line" smooth="yes"/>
      <point x="215.795" y="168.925"/>
      <point x="202.629" y="175.245"/>
      <point x="189.467" y="175.245" type="curve" smooth="yes"/>
      <point x="176.377" y="175.245"/>
      <point x="163.29" y="168.995"/>
      <point x="150.69" y="156.53" type="curve" smooth="yes"/>
      <point x="111.59" y="117.44" type="line" smooth="yes"/>
      <point x="98.95" y="104.8"/>
      <point x="92.63" y="91.6725"/>
      <point x="92.63" y="78.5463" type="curve" smooth="yes"/>
      <point x="92.63" y="65.42"/>
      <point x="98.95" y="52.295"/>
      <point x="111.59" y="39.66" type="curve" smooth="yes"/>
      <point x="150.69" y="0.560001" type="line" smooth="yes"/>
      <point x="156.415" y="-5.16738"/>
      <point x="159.094" y="-12.9849"/>
      <point x="159.094" y="-22.2096" type="curve" smooth="yes"/>
      <point x="159.094" y="-53.7017"/>
      <point x="127.868" y="-101.595"/>
      <point x="80" y="-138.72" type="curve"/>
      <point x="108.91" y="-151.72"/>
      <point x="114.78" y="-153.72"/>
      <point x="119.69" y="-153.72" type="curve" smooth="yes"/>
      <point x="142.73" y="-153.72"/>
      <point x="268.99" y="-46.72"/>
      <point x="285.4" y="32.28" type="curve" smooth="yes"/>
      <point x="287.677" y="43.2693"/>
      <point x="288.705" y="53.1067"/>
      <point x="288.705" y="61.934" type="curve" smooth="yes"/>
      <point x="288.705" y="87.9928"/>
      <point x="279.75" y="105.249"/>
      <point x="267.56" y="117.35" type="curve" smooth="yes"/>
    </contour>
  </outline>
</glyph>
<glyph name="equal" format="1">
  <advance width="600"/>
  <unicode hex="003D"/>
  <outline>
    <contour>
      <point x="62.13" y="357.65" type="line" smooth="yes"/>
      <point x="62.13" y="347.9"/>
      <point x="67.38" y="342.65"/>
      <point x="77.13" y="342.65" type="curve" smooth="yes"/>
      <point x="521.92" y="342.65" type="line" smooth="yes"/>
      <point x="531.67" y="342.65"/>
      <point x="536.92" y="347.9"/>
      <point x="536.92" y="357.65" type="curve" smooth="yes"/>
      <point x="536.92" y="444.29" type="line" smooth="yes"/>
      <point x="536.92" y="454.04"/>
      <point x="531.67" y="459.29"/>
      <point x="521.92" y="459.29" type="curve" smooth="yes"/>
      <point x="77.13" y="459.29" type="line" smooth="yes"/>
      <point x="67.38" y="459.29"/>
      <point x="62.13" y="454.04"/>
      <point x="62.13" y="444.29" type="curve" smooth="yes"/>
    </contour>
    <contour>
      <point x="62.13" y="126.39" type="line" smooth="yes"/>
      <point x="62.13" y="116.64"/>
      <point x="67.38" y="111.39"/>
      <point x="77.13" y="111.39" type="curve" smooth="yes"/>
      <point x="521.92" y="111.39" type="line" smooth="yes"/>
      <point x="531.67" y="111.39"/>
      <point x="536.92" y="116.64"/>
      <point x="536.92" y="126.39" type="curve" smooth="yes"/>
      <point x="536.92" y="213.03" type="line" smooth="yes"/>
      <point x="536.92" y="222.78"/>
      <point x="531.67" y="228.03"/>
      <point x="521.92" y="228.03" type="curve" smooth="yes"/>
      <point x="77.13" y="228.03" type="line" smooth="yes"/>
      <point x="67.38" y="228.03"/>
      <point x="62.13" y="222.78"/>
      <point x="62.13" y="213.03" type="curve" smooth="yes"/>
    </contour>
  </outline>
</glyph>
<glyph name="greater" format="1">
  <advance width="600"/>
  <unicode hex="003E"/>
  <outline>
    <contour>
      <point x="571.42" y="276.9" type="line" smooth="yes"/>
      <point x="577.03" y="279.73"/>
      <point x="579.835" y="283.432"/>
      <point x="579.835" y="287.135" type="curve" smooth="yes"/>
      <point x="579.835" y="290.837"/>
      <point x="577.03" y="294.54"/>
      <point x="571.42" y="297.37" type="curve" smooth="yes"/>
      <point x="40.72" y="565.3" type="line" smooth="yes"/>
      <point x="37.8057" y="566.77"/>
      <point x="35.1327" y="567.476"/>
      <point x="32.7936" y="567.476" type="curve" smooth="yes"/>
      <point x="26.7613" y="567.476"/>
      <point x="22.95" y="562.779"/>
      <point x="22.95" y="554.37" type="curve" smooth="yes"/>
      <point x="22.95" y="485.63" type="line" smooth="yes"/>
      <point x="22.95" y="477.22"/>
      <point x="26.32" y="471.75"/>
      <point x="33.82" y="467.96" type="curve" smooth="yes"/>
      <point x="392" y="287.13" type="line"/>
      <point x="33.82" y="106.31" type="line" smooth="yes"/>
      <point x="26.32" y="102.52"/>
      <point x="22.95" y="97.05"/>
      <point x="22.95" y="88.64" type="curve" smooth="yes"/>
      <point x="22.95" y="19.9" type="line" smooth="yes"/>
      <point x="22.95" y="11.4856"/>
      <point x="26.7594" y="6.79242"/>
      <point x="32.7891" y="6.79242" type="curve" smooth="yes"/>
      <point x="35.1292" y="6.79242"/>
      <point x="37.8038" y="7.49934"/>
      <point x="40.72" y="8.97" type="curve" smooth="yes"/>
    </contour>
  </outline>
</glyph>
<glyph name="question" format="1">
  <advance width="528.808"/>
  <unicode hex="003F"/>
  <outline>
    <contour>
      <point x="164.74" y="601.58" type="line" smooth="yes"/>
      <point x="171.47" y="600.06"/>
      <point x="174.55" y="604.64"/>
      <point x="174.55" y="610.75" type="curve" smooth="yes"/>
      <point x="174.55" y="614.2"/>
      <point x="173.57" y="618.14"/>
      <point x="171.71" y="621.75" type="curve" smooth="yes"/>
      <point x="158.54" y="647.23"/>
      <point x="153.13" y="669.36"/>
      <point x="153.13" y="687.58" type="curve" smooth="yes"/>
      <point x="153.13" y="724.58"/>
      <point x="185.43" y="745.43"/>
      <point x="210.22" y="745.43" type="curve" smooth="yes"/>
      <point x="243.71" y="745.43"/>
      <point x="285.45" y="728.43"/>
      <point x="285.45" y="649.43" type="curve" smooth="yes"/>
      <point x="285.45" y="516.15"/>
      <point x="119.94" y="519.04"/>
      <point x="128.12" y="350.39" type="curve" smooth="yes"/>
      <point x="131.03" y="290.36"/>
      <point x="132.96" y="281.75"/>
      <point x="133.13" y="273.38" type="curve" smooth="yes"/>
      <point x="133.29" y="265.24"/>
      <point x="138.16" y="261"/>
      <point x="146.3" y="261" type="curve" smooth="yes"/>
      <point x="208.82" y="261" type="line" smooth="yes"/>
      <point x="216.96" y="261"/>
      <point x="221.83" y="265.24"/>
      <point x="221.99" y="273.38" type="curve" smooth="yes"/>
      <point x="222.16" y="281.76"/>
      <point x="223" y="290.31"/>
      <point x="223" y="350.41" type="curve" smooth="yes"/>
      <point x="223" y="512.5"/>
      <point x="428.81" y="473.39"/>
      <point x="428.81" y="647.62" type="curve" smooth="yes"/>
      <point x="428.81" y="730.45"/>
      <point x="361.69" y="800.27"/>
      <point x="206.21" y="800.27" type="curve" smooth="yes"/>
      <point x="100.09" y="800.27"/>
      <point x="24.24" y="754.36"/>
      <point x="24.24" y="694.14" type="curve" smooth="yes"/>
      <point x="24.24" y="678.34"/>
      <point x="27.77" y="661.56"/>
      <point x="34.76" y="644.36" type="curve" smooth="yes"/>
      <point x="39.13" y="633.63"/>
      <point x="44.97" y="628.65"/>
      <point x="59.85" y="625.3" type="curve" smooth="yes"/>
    </contour>
    <contour>
      <point x="99.48" y="117" type="line" smooth="yes"/>
      <point x="86.84" y="104.36"/>
      <point x="80.52" y="91.2325"/>
      <point x="80.52" y="78.1062" type="curve" smooth="yes"/>
      <point x="80.52" y="64.98"/>
      <point x="86.84" y="51.855"/>
      <point x="99.48" y="39.22" type="curve" smooth="yes"/>
      <point x="138.58" y="0.119996" type="line" smooth="yes"/>
      <point x="151.22" y="-12.38"/>
      <point x="164.345" y="-18.63"/>
      <point x="177.47" y="-18.63" type="curve" smooth="yes"/>
      <point x="190.595" y="-18.63"/>
      <point x="203.72" y="-12.38"/>
      <point x="216.36" y="0.119996" type="curve" smooth="yes"/>
      <point x="255.46" y="39.22" type="line" smooth="yes"/>
      <point x="268.095" y="51.855"/>
      <point x="274.413" y="64.98"/>
      <point x="274.413" y="78.1062" type="curve" smooth="yes"/>
      <point x="274.413" y="91.2325"/>
      <point x="268.095" y="104.36"/>
      <point x="255.46" y="117" type="curve" smooth="yes"/>
      <point x="216.36" y="156.09" type="line" smooth="yes"/>
      <point x="203.685" y="168.765"/>
      <point x="190.522" y="175.085"/>
      <point x="177.36" y="175.085" type="curve" smooth="yes"/>
      <point x="164.272" y="175.085"/>
      <point x="151.185" y="168.835"/>
      <point x="138.58" y="156.37" type="curve" smooth="yes"/>
    </contour>
  </outline>
</glyph>
<glyph name="at" format="1">
  <advance width="962.580"/>
  <unicode hex="0040"/>
  <outline>
    <contour>
      <point x="580.77" y="-47" type="line"/>
      <point x="550.29" y="-55"/>
      <point x="518.6" y="-59"/>
      <point x="485.79" y="-59" type="curve" smooth="yes"/>
      <point x="270.22" y="-59"/>
      <point x="96" y="115.35"/>
      <point x="96" y="330.9" type="curve" smooth="yes"/>
      <point x="96" y="546.46"/>
      <point x="270.23" y="720.69"/>
      <point x="485.79" y="720.69" type="curve" smooth="yes"/>
      <point x="721.18" y="720.69"/>
      <point x="865.58" y="546.62"/>
      <point x="865.58" y="330.9" type="curve" smooth="yes"/>
      <point x="865.58" y="245.67"/>
      <point x="828.59" y="180.52"/>
      <point x="758.33" y="184.59" type="curve"/>
      <point x="710.502" y="189.814"/>
      <point x="702.314" y="233.289"/>
      <point x="701.13" y="279.569" type="curve"/>
      <point x="701.13" y="564.086" type="line"/>
      <point x="701.14" y="578.98" type="line"/>
      <point x="701.14" y="586.45" type="line"/>
      <point x="701.13" y="596.09" type="line"/>
      <point x="701.13" y="597.55"/>
      <point x="701.05" y="597.67"/>
      <point x="699.8" y="597.67" type="curve" smooth="yes"/>
      <point x="697.52" y="597.66" type="line" smooth="yes"/>
      <point x="696.02" y="597.65"/>
      <point x="694.7" y="596.43"/>
      <point x="693.19" y="595.34" type="curve" smooth="yes"/>
      <point x="673.44" y="581.118"/>
      <point x="651.247" y="563.438"/>
      <point x="597.222" y="540.954" type="curve"/>
      <point x="556.578" y="577.719"/>
      <point x="502.953" y="597.31"/>
      <point x="439.66" y="597.31" type="curve" smooth="yes"/>
      <point x="322.33" y="597.31"/>
      <point x="213.02" y="523.03"/>
      <point x="213.02" y="343.26" type="curve" smooth="yes"/>
      <point x="213.02" y="155.5"/>
      <point x="340.57" y="87.2002"/>
      <point x="428.1" y="87.2002" type="curve" smooth="yes"/>
      <point x="527.9" y="87.2002"/>
      <point x="565.81" y="150.64"/>
      <point x="576.36" y="176.61" type="curve"/>
      <point x="565.11" y="90.1102" type="line"/>
      <point x="564.93" y="88.1702"/>
      <point x="565.2" y="87.2002"/>
      <point x="566.44" y="87.2002" type="curve" smooth="yes"/>
      <point x="568.73" y="87.2002" type="line" smooth="yes"/>
      <point x="571.56" y="87.2002"/>
      <point x="575.23" y="88.1702"/>
      <point x="576.94" y="89.1402" type="curve"/>
      <point x="621.034" y="108.681"/>
      <point x="661.223" y="126.329"/>
      <point x="758.826" y="126.329" type="curve" smooth="yes"/>
      <point x="887.212" y="126.329"/>
      <point x="941.58" y="235.134"/>
      <point x="941.58" y="330.9" type="curve" smooth="yes"/>
      <point x="941.58" y="587.85"/>
      <point x="763.02" y="796.69"/>
      <point x="485.79" y="796.69" type="curve" smooth="yes"/>
      <point x="228.71" y="796.69"/>
      <point x="20" y="587.99"/>
      <point x="20" y="330.9" type="curve" smooth="yes"/>
      <point x="20" y="73.8002"/>
      <point x="228.72" y="-135"/>
      <point x="485.79" y="-135" type="curve" smooth="yes"/>
      <point x="525.9" y="-135"/>
      <point x="565" y="-130"/>
      <point x="602.1" y="-120" type="curve"/>
    </contour>
    <contour>
      <point x="565.58" y="236.79" type="line"/>
      <point x="565.58" y="236.79"/>
      <point x="544.05" y="172.85"/>
      <point x="472.07" y="172.85" type="curve" smooth="yes"/>
      <point x="392.56" y="172.85"/>
      <point x="337.88" y="250.26"/>
      <point x="337.88" y="374.64" type="curve" smooth="yes"/>
      <point x="337.88" y="454.97"/>
      <point x="363.37" y="532.8"/>
      <point x="457.26" y="532.8" type="curve" smooth="yes"/>
      <point x="533.8" y="532.8"/>
      <point x="558.07" y="470.82"/>
      <point x="565.58" y="431.74" type="curve"/>
    </contour>
  </outline>
</glyph>
<glyph name="B" format="1">
  <advance width="721.228"/>
  <unicode hex="0042"/>
  <outline>
    <contour>
      <point x="135.58" y="750.04" type="line"/>
      <point x="45" y="750" type="line" smooth="yes"/>
      <point x="35.25" y="750"/>
      <point x="30" y="744.51"/>
      <point x="30" y="734.76" type="curve" smooth="yes"/>
      <point x="30" y="704.76" type="line" smooth="yes"/>
      <point x="30" y="695.01"/>
      <point x="35.25" y="689.76"/>
      <point x="45" y="689.76" type="curve" smooth="yes"/>
      <point x="46" y="689.76" type="line" smooth="yes"/>
      <point x="100.89" y="689.76"/>
      <point x="118.55" y="649.03"/>
      <point x="118.55" y="594.68" type="curve" smooth="yes"/>
      <point x="118.55" y="155.08" type="line" smooth="yes"/>
      <point x="118.55" y="100.732"/>
      <point x="100.891" y="60.0026"/>
      <point x="46.0052" y="60" type="curve" smooth="yes"/>
      <point x="44.9999" y="60" type="line" smooth="yes"/>
      <point x="35.2499" y="60"/>
      <point x="29.9999" y="54.75"/>
      <point x="29.9999" y="45" type="curve" smooth="yes"/>
      <point x="29.9999" y="15" type="line" smooth="yes"/>
      <point x="29.9999" y="5.25"/>
      <point x="35.2499" y="2.005e-06"/>
      <point x="44.9999" y="2.005e-06" type="curve" smooth="yes"/>
      <point x="412.42" y="2.005e-06" type="line" smooth="yes"/>
      <point x="574.62" y="2.005e-06"/>
      <point x="679.23" y="106.95"/>
      <point x="679.23" y="221.3" type="curve" smooth="yes"/>
      <point x="679.23" y="315.557"/>
      <point x="634.265" y="394.388"/>
      <point x="512.639" y="429.207" type="curve"/>
      <point x="585.022" y="464.927"/>
      <point x="613.72" y="518.705"/>
      <point x="613.72" y="568.97" type="curve" smooth="yes"/>
      <point x="613.72" y="680.32"/>
      <point x="496.86" y="750.04"/>
      <point x="366.62" y="750.04" type="curve" smooth="yes"/>
    </contour>
    <contour>
      <point x="338.68" y="689.76" type="line" smooth="yes"/>
      <point x="417.46" y="689.76"/>
      <point x="463.72" y="641.52"/>
      <point x="463.72" y="568.97" type="curve" smooth="yes"/>
      <point x="463.72" y="502.42"/>
      <point x="430.8" y="448.37"/>
      <point x="335.15" y="448.37" type="curve" smooth="yes"/>
      <point x="272.35" y="448.37" type="line"/>
      <point x="272.35" y="689.76" type="line"/>
    </contour>
    <contour>
      <point x="343.935" y="60.2301" type="line"/>
      <point x="294.505" y="63.5758"/>
      <point x="278.35" y="103.098"/>
      <point x="278.35" y="155.08" type="curve" smooth="yes"/>
      <point x="278.35" y="377.37" type="line"/>
      <point x="336.43" y="377.37" type="line" smooth="yes"/>
      <point x="469.81" y="377.37"/>
      <point x="529.23" y="331.85"/>
      <point x="529.23" y="221.3" type="curve" smooth="yes"/>
      <point x="529.23" y="128.74"/>
      <point x="468.69" y="60.2301"/>
      <point x="368.71" y="60.2301" type="curve" smooth="yes"/>
    </contour>
  </outline>
</glyph>
<glyph name="D" format="1">
  <advance width="790.230"/>
  <unicode hex="0044"/>
  <outline>
    <contour>
      <point x="311.405" y="749.76" type="line"/>
      <point x="45" y="750" type="line" smooth="yes"/>
      <point x="35.25" y="750"/>
      <point x="30" y="744.51"/>
      <point x="30" y="734.76" type="curve" smooth="yes"/>
      <point x="30" y="704.76" type="line" smooth="yes"/>
      <point x="30" y="695.01"/>
      <point x="35.25" y="689.76"/>
      <point x="45" y="689.76" type="curve" smooth="yes"/>
      <point x="46" y="689.76" type="line" smooth="yes"/>
      <point x="100.89" y="689.76"/>
      <point x="118.55" y="649.03"/>
      <point x="118.55" y="594.68" type="curve" smooth="yes"/>
      <point x="118.55" y="155.08" type="line" smooth="yes"/>
      <point x="118.55" y="102.596"/>
      <point x="102.082" y="62.8132"/>
      <point x="51.5226" y="60.1432" type="curve" smooth="yes"/>
      <point x="45" y="60" type="line" smooth="yes"/>
      <point x="35.25" y="60"/>
      <point x="30" y="54.75"/>
      <point x="30" y="45" type="curve" smooth="yes"/>
      <point x="30" y="15" type="line" smooth="yes"/>
      <point x="30" y="5.25"/>
      <point x="35.25" y="2.20363e-06"/>
      <point x="45" y="2.20363e-06" type="curve" smooth="yes"/>
      <point x="380.61" y="2.20363e-06" type="line" smooth="yes"/>
      <point x="642.8" y="2.20363e-06"/>
      <point x="755.23" y="166.94"/>
      <point x="755.23" y="376.29" type="curve" smooth="yes"/>
      <point x="755.23" y="612.64"/>
      <point x="582.86" y="749.76"/>
      <point x="352.62" y="749.76" type="curve" smooth="yes"/>
    </contour>
    <contour>
      <point x="278.35" y="689.76" type="line"/>
      <point x="324.68" y="689.76" type="line" smooth="yes"/>
      <point x="503.46" y="689.76"/>
      <point x="603.23" y="573.85"/>
      <point x="603.23" y="376.29" type="curve" smooth="yes"/>
      <point x="603.23" y="179.74"/>
      <point x="547.35" y="65.23"/>
      <point x="352.37" y="65.23" type="curve" smooth="yes"/>
      <point x="279.88" y="65.23"/>
      <point x="278.35" y="105.73"/>
      <point x="278.35" y="160.08" type="curve"/>
    </contour>
    <contour>
      <point x="393.55" y="375" type="move" name="center"/>
    </contour>
    <contour>
      <point x="320.059" y="750" type="move" name="top"/>
    </contour>
  </outline>
</glyph>
<glyph name="E" format="1">
  <advance width="754.719"/>
  <unicode hex="0045"/>
  <outline>
    <contour>
      <point x="694.45" y="232.55" type="line" smooth="yes"/>
      <point x="691.339" y="234.351"/>
      <point x="688.398" y="235.251"/>
      <point x="685.672" y="235.251" type="curve" smooth="yes"/>
      <point x="680.785" y="235.251"/>
      <point x="676.588" y="232.358"/>
      <point x="673.34" y="226.58" type="curve" smooth="yes"/>
      <point x="670.12" y="221.05" type="line" smooth="yes"/>
      <point x="582.78" y="77.58"/>
      <point x="502.87" y="70.75"/>
      <point x="411.91" y="70.75" type="curve" smooth="yes"/>
      <point x="347.31" y="70.75" type="line" smooth="yes"/>
      <point x="295.237" y="72.5004"/>
      <point x="278.35" y="112.623"/>
      <point x="278.35" y="165.77" type="curve" smooth="yes"/>
      <point x="278.35" y="364.22" type="line"/>
      <point x="365.87" y="364.22" type="line" smooth="yes"/>
      <point x="418.444" y="364.22"/>
      <point x="458.273" y="347.695"/>
      <point x="460.82" y="296.924" type="curve"/>
      <point x="460.82" y="290.75" type="line" smooth="yes"/>
      <point x="460.82" y="281"/>
      <point x="466.07" y="275.75"/>
      <point x="475.82" y="275.75" type="curve" smooth="yes"/>
      <point x="505.95" y="275.75" type="line" smooth="yes"/>
      <point x="515.7" y="275.75"/>
      <point x="520.95" y="281"/>
      <point x="520.95" y="290.75" type="curve" smooth="yes"/>
      <point x="520.95" y="518.23" type="line" smooth="yes"/>
      <point x="520.95" y="527.98"/>
      <point x="515.7" y="533.23"/>
      <point x="505.95" y="533.23" type="curve" smooth="yes"/>
      <point x="475.82" y="533.23" type="line" smooth="yes"/>
      <point x="466.07" y="533.23"/>
      <point x="460.82" y="527.98"/>
      <point x="460.82" y="518.23" type="curve" smooth="yes"/>
      <point x="460.82" y="511.306" type="line"/>
      <point x="458.273" y="460.535"/>
      <point x="418.444" y="444.02"/>
      <point x="365.87" y="444.02" type="curve" smooth="yes"/>
      <point x="272.35" y="444.02" type="line"/>
      <point x="272.35" y="678.63" type="line"/>
      <point x="440.3" y="678.63" type="line" smooth="yes"/>
      <point x="521.45" y="678.63"/>
      <point x="561.88" y="651.16"/>
      <point x="599.62" y="586.33" type="curve" smooth="yes"/>
      <point x="602.84" y="580.8" type="line" smooth="yes"/>
      <point x="606.074" y="575.253"/>
      <point x="610.246" y="572.43"/>
      <point x="615.105" y="572.43" type="curve" smooth="yes"/>
      <point x="617.85" y="572.43"/>
      <point x="620.813" y="573.331"/>
      <point x="623.95" y="575.15" type="curve" smooth="yes"/>
      <point x="665.82" y="597.62" type="line" smooth="yes"/>
      <point x="671.376" y="600.836"/>
      <point x="674.222" y="605.024"/>
      <point x="674.222" y="609.893" type="curve" smooth="yes"/>
      <point x="674.222" y="612.64"/>
      <point x="673.316" y="615.603"/>
      <point x="671.48" y="618.73" type="curve" smooth="yes"/>
      <point x="591.78" y="755.12" type="line" smooth="yes"/>
      <point x="588.682" y="760.22"/>
      <point x="584.097" y="763.287"/>
      <point x="579.177" y="763.287" type="curve" smooth="yes"/>
      <point x="576.379" y="763.287"/>
      <point x="573.472" y="762.295"/>
      <point x="570.67" y="760.12" type="curve"/>
      <point x="565.1" y="755.12" type="line" smooth="yes"/>
      <point x="559.29" y="749.72"/>
      <point x="553.37" y="749.69"/>
      <point x="545.94" y="749.69" type="curve" smooth="yes"/>
      <point x="45" y="749.69" type="line" smooth="yes"/>
      <point x="35.25" y="749.69"/>
      <point x="30" y="744.2"/>
      <point x="30" y="734.45" type="curve" smooth="yes"/>
      <point x="30" y="704.45" type="line" smooth="yes"/>
      <point x="30" y="694.7"/>
      <point x="35.25" y="689.45"/>
      <point x="45" y="689.45" type="curve" smooth="yes"/>
      <point x="46" y="689.45" type="line" smooth="yes"/>
      <point x="100.89" y="689.45"/>
      <point x="118.55" y="648.72"/>
      <point x="118.55" y="594.37" type="curve" smooth="yes"/>
      <point x="118.55" y="154.77" type="line" smooth="yes"/>
      <point x="118.55" y="100.42"/>
      <point x="100.89" y="59.6899"/>
      <point x="46" y="59.6899" type="curve" smooth="yes"/>
      <point x="45" y="59.6899" type="line" smooth="yes"/>
      <point x="35.25" y="59.6899"/>
      <point x="30" y="54.4399"/>
      <point x="30" y="44.6899" type="curve" smooth="yes"/>
      <point x="30" y="14.6899" type="line" smooth="yes"/>
      <point x="30" y="4.9399"/>
      <point x="35.25" y="-0.310096"/>
      <point x="45" y="-0.310096" type="curve" smooth="yes"/>
      <point x="592.44" y="-0.310096" type="line" smooth="yes"/>
      <point x="599.88" y="-0.310096"/>
      <point x="605.79" y="-0.310096"/>
      <point x="611.6" y="-5.3101" type="curve" smooth="yes"/>
      <point x="617.17" y="-10.3101" type="line" smooth="yes"/>
      <point x="620.097" y="-12.9609"/>
      <point x="623.248" y="-14.1776"/>
      <point x="626.256" y="-14.1776" type="curve" smooth="yes"/>
      <point x="631.19" y="-14.1776"/>
      <point x="635.739" y="-10.902"/>
      <point x="638.28" y="-5.3101" type="curve" smooth="yes"/>
      <point x="731.98" y="192.66" type="line"/>
      <point x="733.816" y="195.787"/>
      <point x="734.722" y="198.749"/>
      <point x="734.722" y="201.494" type="curve" smooth="yes"/>
      <point x="734.722" y="206.361"/>
      <point x="731.876" y="210.548"/>
      <point x="726.32" y="213.77" type="curve" smooth="yes"/>
    </contour>
    <contour>
      <point x="600.659" y="-15.412" type="move" name="ogonek"/>
    </contour>
    <contour>
      <point x="383.55" y="0" type="move" name="bottom"/>
    </contour>
    <contour>
      <point x="383.55" y="750" type="move" name="top"/>
    </contour>
  </outline>
</glyph>
<glyph name="H" format="1">
  <advance width="898.051"/>
  <unicode hex="0048"/>
  <outline>
    <contour>
      <point x="779.59" y="594.92" type="line" smooth="yes"/>
      <point x="779.59" y="647.561"/>
      <point x="796.157" y="687.426"/>
      <point x="847.073" y="689.88" type="curve"/>
      <point x="853.05" y="689.88" type="line" smooth="yes"/>
      <point x="862.8" y="689.88"/>
      <point x="868.05" y="695.13"/>
      <point x="868.05" y="704.88" type="curve" smooth="yes"/>
      <point x="868.05" y="735" type="line" smooth="yes"/>
      <point x="868.05" y="744.75"/>
      <point x="862.8" y="750"/>
      <point x="853.05" y="750" type="curve" smooth="yes"/>
      <point x="545.57" y="750" type="line" smooth="yes"/>
      <point x="535.82" y="750"/>
      <point x="530.57" y="744.75"/>
      <point x="530.57" y="735" type="curve" smooth="yes"/>
      <point x="530.57" y="704.88" type="line" smooth="yes"/>
      <point x="530.57" y="695.13"/>
      <point x="535.82" y="689.88"/>
      <point x="545.57" y="689.88" type="curve" smooth="yes"/>
      <point x="552.307" y="689.88" type="line"/>
      <point x="603.223" y="687.426"/>
      <point x="619.79" y="647.561"/>
      <point x="619.79" y="594.92" type="curve" smooth="yes"/>
      <point x="619.79" y="424.33" type="line"/>
      <point x="278.26" y="424.33" type="line"/>
      <point x="278.26" y="594.92" type="line" smooth="yes"/>
      <point x="278.26" y="647.561"/>
      <point x="294.827" y="687.426"/>
      <point x="345.743" y="689.88" type="curve"/>
      <point x="352.48" y="689.88" type="line" smooth="yes"/>
      <point x="362.23" y="689.88"/>
      <point x="367.48" y="695.13"/>
      <point x="367.48" y="704.88" type="curve" smooth="yes"/>
      <point x="367.48" y="735" type="line" smooth="yes"/>
      <point x="367.48" y="744.75"/>
      <point x="362.23" y="750"/>
      <point x="352.48" y="750" type="curve" smooth="yes"/>
      <point x="45.0001" y="750" type="line" smooth="yes"/>
      <point x="35.2501" y="750"/>
      <point x="30.0001" y="744.75"/>
      <point x="30.0001" y="735" type="curve" smooth="yes"/>
      <point x="30.0001" y="704.88" type="line" smooth="yes"/>
      <point x="30.0001" y="695.13"/>
      <point x="35.2501" y="689.88"/>
      <point x="45.0001" y="689.88" type="curve" smooth="yes"/>
      <point x="50.9772" y="689.88" type="line"/>
      <point x="101.893" y="687.426"/>
      <point x="118.46" y="647.561"/>
      <point x="118.46" y="594.92" type="curve" smooth="yes"/>
      <point x="118.46" y="155.08" type="line" smooth="yes"/>
      <point x="118.46" y="102.439"/>
      <point x="101.893" y="62.5745"/>
      <point x="50.9772" y="60.12" type="curve"/>
      <point x="45.0001" y="60.12" type="line" smooth="yes"/>
      <point x="35.2501" y="60.12"/>
      <point x="30.0001" y="54.87"/>
      <point x="30.0001" y="45.12" type="curve" smooth="yes"/>
      <point x="30.0001" y="15" type="line" smooth="yes"/>
      <point x="30.0001" y="5.25"/>
      <point x="35.2501" y="-7.53403e-07"/>
      <point x="45.0001" y="-7.53403e-07" type="curve" smooth="yes"/>
      <point x="352.48" y="-7.53403e-07" type="line" smooth="yes"/>
      <point x="362.23" y="-7.53403e-07"/>
      <point x="367.48" y="5.25"/>
      <point x="367.48" y="15" type="curve" smooth="yes"/>
      <point x="367.48" y="45.12" type="line" smooth="yes"/>
      <point x="367.48" y="54.87"/>
      <point x="362.23" y="60.12"/>
      <point x="352.48" y="60.12" type="curve" smooth="yes"/>
      <point x="345.743" y="60.12" type="line"/>
      <point x="294.827" y="62.5745"/>
      <point x="278.26" y="102.439"/>
      <point x="278.26" y="155.08" type="curve" smooth="yes"/>
      <point x="278.26" y="344.53" type="line"/>
      <point x="619.79" y="344.53" type="line"/>
      <point x="619.79" y="155.08" type="line" smooth="yes"/>
      <point x="619.79" y="102.439"/>
      <point x="603.223" y="62.5744"/>
      <point x="552.307" y="60.12" type="curve"/>
      <point x="545.57" y="60.12" type="line" smooth="yes"/>
      <point x="535.82" y="60.12"/>
      <point x="530.57" y="54.87"/>
      <point x="530.57" y="45.12" type="curve" smooth="yes"/>
      <point x="530.57" y="15" type="line" smooth="yes"/>
      <point x="530.57" y="5.25"/>
      <point x="535.82" y="-3.8147e-08"/>
      <point x="545.57" y="-3.8147e-08" type="curve" smooth="yes"/>
      <point x="853.05" y="-3.8147e-08" type="line" smooth="yes"/>
      <point x="862.8" y="-3.8147e-08"/>
      <point x="868.05" y="5.25"/>
      <point x="868.05" y="15" type="curve" smooth="yes"/>
      <point x="868.05" y="45.12" type="line" smooth="yes"/>
      <point x="868.05" y="54.87"/>
      <point x="862.8" y="60.12"/>
      <point x="853.05" y="60.12" type="curve" smooth="yes"/>
      <point x="847.073" y="60.12" type="line"/>
      <point x="796.157" y="62.5744"/>
      <point x="779.59" y="102.439"/>
      <point x="779.59" y="155.08" type="curve" smooth="yes"/>
    </contour>
    <contour>
      <point x="449.463" y="375" type="move" name="center"/>
    </contour>
    <contour>
      <point x="449.463" y="750" type="move" name="top"/>
    </contour>
  </outline>
</glyph>
<glyph name="I" format="1">
  <advance width="407.477"/>
  <unicode hex="0049"/>
  <outline>
    <contour>
      <point x="284.01" y="594.92" type="line" smooth="yes"/>
      <point x="284.01" y="647.561"/>
      <point x="300.577" y="687.426"/>
      <point x="351.493" y="689.88" type="curve"/>
      <point x="357.48" y="689.88" type="line" smooth="yes"/>
      <point x="367.23" y="689.88"/>
      <point x="372.48" y="695.13"/>
      <point x="372.48" y="704.88" type="curve" smooth="yes"/>
      <point x="372.48" y="735" type="line" smooth="yes"/>
      <point x="372.48" y="744.75"/>
      <point x="367.23" y="750"/>
      <point x="357.48" y="750" type="curve" smooth="yes"/>
      <point x="50" y="750" type="line" smooth="yes"/>
      <point x="40.25" y="750"/>
      <point x="35" y="744.75"/>
      <point x="35" y="735" type="curve" smooth="yes"/>
      <point x="35" y="704.88" type="line" smooth="yes"/>
      <point x="35" y="695.13"/>
      <point x="40.25" y="689.88"/>
      <point x="50" y="689.88" type="curve" smooth="yes"/>
      <point x="56.7271" y="689.88" type="line"/>
      <point x="107.643" y="687.426"/>
      <point x="124.21" y="647.561"/>
      <point x="124.21" y="594.92" type="curve" smooth="yes"/>
      <point x="124.21" y="155.08" type="line" smooth="yes"/>
      <point x="124.21" y="102.439"/>
      <point x="107.643" y="62.5745"/>
      <point x="56.7271" y="60.12" type="curve"/>
      <point x="50" y="60.12" type="line" smooth="yes"/>
      <point x="40.25" y="60.12"/>
      <point x="35" y="54.87"/>
      <point x="35" y="45.12" type="curve" smooth="yes"/>
      <point x="35" y="15" type="line" smooth="yes"/>
      <point x="35" y="5.25"/>
      <point x="40.25" y="-7.53403e-07"/>
      <point x="50" y="-7.53403e-07" type="curve" smooth="yes"/>
      <point x="357.48" y="-7.53403e-07" type="line" smooth="yes"/>
      <point x="367.23" y="-7.53403e-07"/>
      <point x="372.48" y="5.25"/>
      <point x="372.48" y="15" type="curve" smooth="yes"/>
      <point x="372.48" y="45.12" type="line" smooth="yes"/>
      <point x="372.48" y="54.87"/>
      <point x="367.23" y="60.12"/>
      <point x="357.48" y="60.12" type="curve" smooth="yes"/>
      <point x="351.493" y="60.12" type="line"/>
      <point x="300.577" y="62.5745"/>
      <point x="284.01" y="102.439"/>
      <point x="284.01" y="155.08" type="curve" smooth="yes"/>
    </contour>
    <contour>
      <point x="363.227" y="-16.5796" type="move" name="ogonek"/>
    </contour>
    <contour>
      <point x="204" y="750" type="move" name="top"/>
    </contour>
  </outline>
</glyph>
<glyph name="L" format="1">
  <advance width="708.719"/>
  <unicode hex="004C"/>
  <outline>
    <contour>
      <point x="648.45" y="232.55" type="line" smooth="yes"/>
      <point x="645.339" y="234.351"/>
      <point x="642.398" y="235.251"/>
      <point x="639.672" y="235.251" type="curve" smooth="yes"/>
      <point x="634.785" y="235.251"/>
      <point x="630.588" y="232.358"/>
      <point x="627.34" y="226.58" type="curve" smooth="yes"/>
      <point x="624.12" y="221.05" type="line" smooth="yes"/>
      <point x="536.78" y="77.58"/>
      <point x="456.87" y="70.75"/>
      <point x="385.91" y="70.75" type="curve" smooth="yes"/>
      <point x="347.31" y="70.75" type="line" smooth="yes"/>
      <point x="295.237" y="72.5004"/>
      <point x="278.35" y="112.623"/>
      <point x="278.35" y="165.77" type="curve" smooth="yes"/>
      <point x="278.35" y="689.45" type="line"/>
      <point x="338.68" y="689.45" type="line" smooth="yes"/>
      <point x="348.43" y="689.45"/>
      <point x="366.62" y="694.7"/>
      <point x="366.62" y="704.45" type="curve" smooth="yes"/>
      <point x="366.62" y="734.45" type="line" smooth="yes"/>
      <point x="366.62" y="744.2"/>
      <point x="358.15" y="749.69"/>
      <point x="348.4" y="749.69" type="curve" smooth="yes"/>
      <point x="45" y="749.69" type="line" smooth="yes"/>
      <point x="35.25" y="749.69"/>
      <point x="30" y="744.2"/>
      <point x="30" y="734.45" type="curve" smooth="yes"/>
      <point x="30" y="704.45" type="line" smooth="yes"/>
      <point x="30" y="694.7"/>
      <point x="35.25" y="689.45"/>
      <point x="45" y="689.45" type="curve" smooth="yes"/>
      <point x="46" y="689.45" type="line" smooth="yes"/>
      <point x="100.89" y="689.45"/>
      <point x="118.55" y="648.72"/>
      <point x="118.55" y="594.37" type="curve" smooth="yes"/>
      <point x="118.55" y="154.77" type="line" smooth="yes"/>
      <point x="118.55" y="100.42"/>
      <point x="100.89" y="59.69"/>
      <point x="46" y="59.69" type="curve" smooth="yes"/>
      <point x="45" y="59.69" type="line" smooth="yes"/>
      <point x="35.25" y="59.69"/>
      <point x="30" y="54.44"/>
      <point x="30" y="44.69" type="curve" smooth="yes"/>
      <point x="30" y="14.69" type="line" smooth="yes"/>
      <point x="30" y="4.94"/>
      <point x="35.25" y="-0.309997"/>
      <point x="45" y="-0.309997" type="curve" smooth="yes"/>
      <point x="546.44" y="-0.309997" type="line" smooth="yes"/>
      <point x="553.88" y="-0.309997"/>
      <point x="559.79" y="-0.309997"/>
      <point x="565.6" y="-5.31" type="curve" smooth="yes"/>
      <point x="571.17" y="-10.31" type="line" smooth="yes"/>
      <point x="574.097" y="-12.9608"/>
      <point x="577.248" y="-14.1775"/>
      <point x="580.256" y="-14.1775" type="curve" smooth="yes"/>
      <point x="585.19" y="-14.1775"/>
      <point x="589.739" y="-10.9019"/>
      <point x="592.28" y="-5.31" type="curve" smooth="yes"/>
      <point x="685.98" y="192.66" type="line"/>
      <point x="687.816" y="195.787"/>
      <point x="688.722" y="198.749"/>
      <point x="688.722" y="201.494" type="curve" smooth="yes"/>
      <point x="688.722" y="206.361"/>
      <point x="685.876" y="210.548"/>
      <point x="680.32" y="213.77" type="curve" smooth="yes"/>
    </contour>
    <contour>
      <point x="210.822" y="750" type="move" name="top"/>
    </contour>
    <contour>
      <point x="351.62" y="0" type="move" name="bottom"/>
    </contour>
  </outline>
</glyph>
<glyph name="M" format="1">
  <advance width="1035.950"/>
  <unicode hex="004D"/>
  <outline>
    <contour>
      <point x="917.43" y="674.842" type="line"/>
      <point x="936.447" y="686.201"/>
      <point x="957.158" y="690.03"/>
      <point x="979.45" y="690.03" type="curve" smooth="yes"/>
      <point x="989.2" y="690.03"/>
      <point x="994.45" y="695.28"/>
      <point x="994.45" y="705.03" type="curve" smooth="yes"/>
      <point x="994.45" y="735.03" type="line" smooth="yes"/>
      <point x="994.45" y="744.78"/>
      <point x="989.2" y="750.03"/>
      <point x="979.45" y="750.03" type="curve" smooth="yes"/>
      <point x="791.31" y="750.03" type="line" smooth="yes"/>
      <point x="783.42" y="750.03"/>
      <point x="778.16" y="747.28"/>
      <point x="772.97" y="741.34" type="curve"/>
      <point x="517.97" y="225.35" type="line"/>
      <point x="262.97" y="741.34" type="line"/>
      <point x="257.78" y="747.28"/>
      <point x="252.53" y="750.03"/>
      <point x="244.64" y="750.03" type="curve" smooth="yes"/>
      <point x="56.5" y="750.03" type="line" smooth="yes"/>
      <point x="46.75" y="750.03"/>
      <point x="41.5" y="744.78"/>
      <point x="41.5" y="735.03" type="curve" smooth="yes"/>
      <point x="41.5" y="705.03" type="line" smooth="yes"/>
      <point x="41.5" y="695.28"/>
      <point x="46.75" y="690.03"/>
      <point x="56.5" y="690.03" type="curve" smooth="yes"/>
      <point x="78.7927" y="690.03"/>
      <point x="99.5029" y="686.201"/>
      <point x="119.388" y="674.84" type="curve"/>
      <point x="119.388" y="155.08" type="line" smooth="yes"/>
      <point x="118.52" y="100.742"/>
      <point x="93.8916" y="60.0026"/>
      <point x="45.0047" y="60" type="curve" smooth="yes"/>
      <point x="35.25" y="60"/>
      <point x="30" y="54.75"/>
      <point x="30" y="45" type="curve" smooth="yes"/>
      <point x="30" y="15" type="line" smooth="yes"/>
      <point x="30" y="5.25"/>
      <point x="35.25" y="-3.70414e-07"/>
      <point x="45" y="-3.70414e-07" type="curve" smooth="yes"/>
      <point x="291.62" y="-3.70414e-07" type="line" smooth="yes"/>
      <point x="301.37" y="-3.70414e-07"/>
      <point x="306.62" y="5.25"/>
      <point x="306.62" y="15" type="curve" smooth="yes"/>
      <point x="306.62" y="45" type="line" smooth="yes"/>
      <point x="306.62" y="54.75"/>
      <point x="301.37" y="60"/>
      <point x="291.62" y="60" type="curve" smooth="yes"/>
      <point x="242.728" y="60"/>
      <point x="219.07" y="100.732"/>
      <point x="219.07" y="155.08" type="curve" smooth="yes"/>
      <point x="219.07" y="534.281" type="line"/>
      <point x="454.46" y="56.34" type="line" smooth="yes"/>
      <point x="458.19" y="48.75"/>
      <point x="463.6" y="45.29"/>
      <point x="472.05" y="45.29" type="curve" smooth="yes"/>
      <point x="563.9" y="45.29" type="line" smooth="yes"/>
      <point x="572.35" y="45.29"/>
      <point x="577.76" y="48.75"/>
      <point x="581.49" y="56.34" type="curve" smooth="yes"/>
      <point x="816.88" y="534.281" type="line"/>
      <point x="816.88" y="155.08" type="line" smooth="yes"/>
      <point x="816.88" y="100.73"/>
      <point x="793.22" y="60"/>
      <point x="744.33" y="60" type="curve" smooth="yes"/>
      <point x="734.58" y="60"/>
      <point x="729.33" y="54.75"/>
      <point x="729.33" y="45" type="curve" smooth="yes"/>
      <point x="729.33" y="15" type="line" smooth="yes"/>
      <point x="729.33" y="5.25"/>
      <point x="734.58" y="3.44428e-06"/>
      <point x="744.33" y="3.44428e-06" type="curve" smooth="yes"/>
      <point x="990.95" y="3.44428e-06" type="line" smooth="yes"/>
      <point x="1000.7" y="3.44428e-06"/>
      <point x="1005.95" y="5.25"/>
      <point x="1005.95" y="15" type="curve" smooth="yes"/>
      <point x="1005.95" y="45" type="line" smooth="yes"/>
      <point x="1005.95" y="54.75"/>
      <point x="1000.7" y="60"/>
      <point x="990.95" y="60" type="curve" smooth="yes"/>
      <point x="942.06" y="60"/>
      <point x="917.43" y="100.74"/>
      <point x="917.43" y="155.08" type="curve" smooth="yes"/>
    </contour>
  </outline>
</glyph>
<glyph name="P" format="1">
  <advance width="699.902"/>
  <unicode hex="0050"/>
  <outline>
    <contour>
      <point x="353.55" y="301.67" type="line" smooth="yes"/>
      <point x="597.38" y="301.67"/>
      <point x="679.9" y="401.05"/>
      <point x="679.9" y="528.75" type="curve" smooth="yes"/>
      <point x="679.9" y="643.09"/>
      <point x="575.29" y="750.04"/>
      <point x="413.1" y="750.04" type="curve" smooth="yes"/>
      <point x="45.67" y="750.04" type="line" smooth="yes"/>
      <point x="35.92" y="750.04"/>
      <point x="30.67" y="744.79"/>
      <point x="30.67" y="735.04" type="curve" smooth="yes"/>
      <point x="30.67" y="705.04" type="line" smooth="yes"/>
      <point x="30.67" y="695.29"/>
      <point x="35.92" y="690.04"/>
      <point x="45.67" y="690.04" type="curve" smooth="yes"/>
      <point x="46.67" y="690.04" type="line" smooth="yes"/>
      <point x="101.56" y="690.04"/>
      <point x="119.22" y="649.31"/>
      <point x="119.22" y="594.96" type="curve" smooth="yes"/>
      <point x="119.22" y="523.609" type="line"/>
      <point x="119.21" y="155.08" type="line" smooth="yes"/>
      <point x="119.21" y="102.439"/>
      <point x="102.643" y="62.5744"/>
      <point x="51.7268" y="60.12" type="curve"/>
      <point x="45" y="60.12" type="line" smooth="yes"/>
      <point x="35.25" y="60.12"/>
      <point x="30" y="54.87"/>
      <point x="30" y="45.12" type="curve" smooth="yes"/>
      <point x="30" y="15" type="line" smooth="yes"/>
      <point x="30" y="5.24999"/>
      <point x="35.25" y="-1.05667e-05"/>
      <point x="45" y="-1.05667e-05" type="curve" smooth="yes"/>
      <point x="352.48" y="-1.05667e-05" type="line" smooth="yes"/>
      <point x="362.23" y="-1.05667e-05"/>
      <point x="367.48" y="5.24999"/>
      <point x="367.48" y="15" type="curve" smooth="yes"/>
      <point x="367.48" y="45.12" type="line" smooth="yes"/>
      <point x="367.48" y="54.87"/>
      <point x="362.23" y="60.12"/>
      <point x="352.48" y="60.12" type="curve" smooth="yes"/>
      <point x="346.493" y="60.12" type="line"/>
      <point x="295.577" y="62.5744"/>
      <point x="279.01" y="102.439"/>
      <point x="279.01" y="155.08" type="curve" smooth="yes"/>
      <point x="279.01" y="301.67" type="line"/>
    </contour>
    <contour>
      <point x="282.48" y="690.04" type="line"/>
      <point x="369.39" y="689.82" type="line" smooth="yes"/>
      <point x="469.37" y="689.82"/>
      <point x="529.9" y="621.3"/>
      <point x="529.9" y="528.75" type="curve" smooth="yes"/>
      <point x="529.9" y="418.2"/>
      <point x="470.49" y="372.67"/>
      <point x="337.11" y="372.67" type="curve" smooth="yes"/>
      <point x="273.02" y="372.67" type="line"/>
      <point x="273.02" y="690.04" type="line"/>
    </contour>
  </outline>
</glyph>
<glyph name="Q" format="1">
  <advance width="821.709"/>
  <unicode hex="0051"/>
  <outline>
    <contour>
      <point x="724.21" y="-100" type="line" smooth="yes"/>
      <point x="721.228" y="-94.3875"/>
      <point x="717.056" y="-91.236"/>
      <point x="711.785" y="-91.236" type="curve" smooth="yes"/>
      <point x="709.543" y="-91.236"/>
      <point x="707.102" y="-91.8062"/>
      <point x="704.47" y="-93" type="curve"/>
      <point x="648.49" y="-113"/>
      <point x="593.27" y="-132"/>
      <point x="539.83" y="-132" type="curve" smooth="yes"/>
      <point x="480.52" y="-132"/>
      <point x="447.52" y="-112"/>
      <point x="447.52" y="-70" type="curve" smooth="yes"/>
      <point x="447.52" y="-20"/>
      <point x="493.27" y="-8"/>
      <point x="529.75" y="5" type="curve" smooth="yes"/>
      <point x="684.2" y="56.11"/>
      <point x="786.71" y="204.22"/>
      <point x="786.71" y="368.5" type="curve" smooth="yes"/>
      <point x="786.71" y="395.89"/>
      <point x="783.86" y="423.74"/>
      <point x="777.93" y="451.65" type="curve" smooth="yes"/>
      <point x="739.06" y="634.49"/>
      <point x="579.95" y="761.79"/>
      <point x="404.92" y="761.79" type="curve" smooth="yes"/>
      <point x="379.98" y="761.79"/>
      <point x="354.73" y="759.21"/>
      <point x="329.45" y="753.83" type="curve" smooth="yes"/>
      <point x="153.86" y="716.51"/>
      <point x="35" y="556.72"/>
      <point x="35" y="378.96" type="curve" smooth="yes"/>
      <point x="35" y="351.47"/>
      <point x="37.84" y="323.56"/>
      <point x="43.76" y="295.6" type="curve" smooth="yes"/>
      <point x="78.4469" y="132.376"/>
      <point x="208.326" y="14.1504"/>
      <point x="360.245" y="-9.2201" type="curve"/>
      <point x="333.599" y="-31.383"/>
      <point x="318.77" y="-60.3791"/>
      <point x="318.77" y="-94.4499" type="curve" smooth="yes"/>
      <point x="318.77" y="-156.45"/>
      <point x="363.71" y="-227.45"/>
      <point x="519.97" y="-227.45" type="curve" smooth="yes"/>
      <point x="602.69" y="-227.45"/>
      <point x="673.15" y="-197.45"/>
      <point x="739.56" y="-164.45" type="curve"/>
      <point x="745.375" y="-161.112"/>
      <point x="748.324" y="-156.883"/>
      <point x="748.324" y="-151.762" type="curve" smooth="yes"/>
      <point x="748.324" y="-149.212"/>
      <point x="747.593" y="-146.442"/>
      <point x="746.12" y="-143.45" type="curve" smooth="yes"/>
    </contour>
    <contour>
      <point x="188.3" y="361.37"/>
      <point x="184.05" y="396.75"/>
      <point x="184.05" y="431.57" type="curve" smooth="yes"/>
      <point x="184.05" y="539.61"/>
      <point x="224.95" y="642.34"/>
      <point x="347.61" y="668.41" type="curve" smooth="yes"/>
      <point x="363.99" y="671.89"/>
      <point x="379.6" y="673.54"/>
      <point x="394.47" y="673.54" type="curve" smooth="yes"/>
      <point x="526.81" y="673.54"/>
      <point x="599.93" y="543.26"/>
      <point x="626.26" y="419.41" type="curve" smooth="yes"/>
      <point x="633.32" y="386.18"/>
      <point x="637.5" y="351.29"/>
      <point x="637.5" y="316.99" type="curve" smooth="yes"/>
      <point x="637.5" y="209.08"/>
      <point x="596.14" y="107"/>
      <point x="473.07" y="80.8401" type="curve" smooth="yes"/>
      <point x="456.42" y="77.2701"/>
      <point x="440.57" y="75.5901"/>
      <point x="425.5" y="75.5901" type="curve" smooth="yes"/>
      <point x="293.75" y="75.5901"/>
      <point x="221.7" y="204.22"/>
      <point x="195.42" y="327.84" type="curve" smooth="yes"/>
    </contour>
  </outline>
</glyph>
<glyph name="T" format="1">
  <advance width="787.694"/>
  <unicode hex="0054"/>
  <outline>
    <contour>
      <point x="690.26" y="755.43" type="line"/>
      <point x="687.162" y="760.53"/>
      <point x="682.573" y="763.598"/>
      <point x="677.652" y="763.598" type="curve" smooth="yes"/>
      <point x="674.854" y="763.598"/>
      <point x="671.949" y="762.605"/>
      <point x="669.15" y="760.43" type="curve"/>
      <point x="663.58" y="755.43" type="line" smooth="yes"/>
      <point x="657.77" y="750.03"/>
      <point x="651.85" y="750"/>
      <point x="644.42" y="750" type="curve" smooth="yes"/>
      <point x="133.05" y="750" type="line" smooth="yes"/>
      <point x="125.62" y="750"/>
      <point x="119.7" y="750.03"/>
      <point x="113.89" y="755.43" type="curve" smooth="yes"/>
      <point x="108.32" y="760.43" type="line"/>
      <point x="105.521" y="762.605"/>
      <point x="102.616" y="763.598"/>
      <point x="99.8175" y="763.598" type="curve" smooth="yes"/>
      <point x="94.8973" y="763.598"/>
      <point x="90.3079" y="760.53"/>
      <point x="87.2099" y="755.43" type="curve"/>
      <point x="7.5199" y="609.04" type="line" smooth="yes"/>
      <point x="5.83307" y="605.961"/>
      <point x="4.9975" y="603.041"/>
      <point x="4.9975" y="600.33" type="curve" smooth="yes"/>
      <point x="4.9975" y="595.407"/>
      <point x="7.75292" y="591.174"/>
      <point x="13.1699" y="587.93" type="curve"/>
      <point x="55.0499" y="565.46" type="line" smooth="yes"/>
      <point x="58.1866" y="563.641"/>
      <point x="61.1501" y="562.74"/>
      <point x="63.8946" y="562.74" type="curve" smooth="yes"/>
      <point x="68.7535" y="562.74"/>
      <point x="72.9263" y="565.563"/>
      <point x="76.1599" y="571.11" type="curve" smooth="yes"/>
      <point x="79.3799" y="576.64" type="line" smooth="yes"/>
      <point x="117.11" y="641.47"/>
      <point x="177.54" y="668.94"/>
      <point x="258.7" y="668.94" type="curve" smooth="yes"/>
      <point x="307.5" y="668.94" type="line"/>
      <point x="307.5" y="155.08" type="line" smooth="yes"/>
      <point x="307.5" y="102.439"/>
      <point x="290.933" y="62.5744"/>
      <point x="240.017" y="60.12" type="curve"/>
      <point x="234.03" y="60.12" type="line" smooth="yes"/>
      <point x="224.28" y="60.12"/>
      <point x="219.03" y="54.87"/>
      <point x="219.03" y="45.12" type="curve" smooth="yes"/>
      <point x="219.03" y="15" type="line" smooth="yes"/>
      <point x="219.03" y="5.25"/>
      <point x="224.28" y="1.30653e-06"/>
      <point x="234.03" y="1.30653e-06" type="curve" smooth="yes"/>
      <point x="541.51" y="1.30653e-06" type="line" smooth="yes"/>
      <point x="551.26" y="1.30653e-06"/>
      <point x="556.51" y="5.25"/>
      <point x="556.51" y="15" type="curve" smooth="yes"/>
      <point x="556.51" y="45.12" type="line" smooth="yes"/>
      <point x="556.51" y="54.87"/>
      <point x="551.26" y="60.12"/>
      <point x="541.51" y="60.12" type="curve" smooth="yes"/>
      <point x="534.783" y="60.12" type="line"/>
      <point x="483.867" y="62.5744"/>
      <point x="467.3" y="102.439"/>
      <point x="467.3" y="155.08" type="curve" smooth="yes"/>
      <point x="467.3" y="668.94" type="line"/>
      <point x="518.77" y="668.94" type="line" smooth="yes"/>
      <point x="599.93" y="668.94"/>
      <point x="660.36" y="641.47"/>
      <point x="698.09" y="576.64" type="curve" smooth="yes"/>
      <point x="701.31" y="571.11" type="line" smooth="yes"/>
      <point x="704.543" y="565.563"/>
      <point x="708.716" y="562.74"/>
      <point x="713.575" y="562.74" type="curve" smooth="yes"/>
      <point x="716.32" y="562.74"/>
      <point x="719.283" y="563.641"/>
      <point x="722.42" y="565.46" type="curve" smooth="yes"/>
      <point x="764.3" y="587.93" type="line" smooth="yes"/>
      <point x="769.848" y="591.145"/>
      <point x="772.692" y="595.333"/>
      <point x="772.692" y="600.201" type="curve" smooth="yes"/>
      <point x="772.692" y="602.948"/>
      <point x="771.786" y="605.912"/>
      <point x="769.95" y="609.04" type="curve" smooth="yes"/>
    </contour>
    <contour>
      <point x="388.775" y="375" type="move" name="center"/>
    </contour>
    <contour>
      <point x="388.775" y="0" type="move" name="bottom"/>
    </contour>
    <contour>
      <point x="388.775" y="750" type="move" name="top"/>
    </contour>
  </outline>
</glyph>
<glyph name="V" format="1">
  <advance width="783.900"/>
  <unicode hex="0056"/>
  <outline>
    <contour>
      <point x="515.28" y="752.56" type="line" smooth="yes"/>
      <point x="505.53" y="752.56"/>
      <point x="500.28" y="747.31"/>
      <point x="500.28" y="737.56" type="curve" smooth="yes"/>
      <point x="500.28" y="707.56" type="line" smooth="yes"/>
      <point x="500.28" y="697.81"/>
      <point x="505.53" y="692.56"/>
      <point x="515.28" y="692.56" type="curve" smooth="yes"/>
      <point x="556.213" y="692.56"/>
      <point x="593.241" y="663.091"/>
      <point x="593.241" y="622.37" type="curve" smooth="yes"/>
      <point x="593.241" y="614.454"/>
      <point x="591.842" y="606.113"/>
      <point x="588.8" y="597.48" type="curve" smooth="yes"/>
      <point x="427.88" y="140.79" type="line"/>
      <point x="254.07" y="597.48" type="line" smooth="yes"/>
      <point x="250.603" y="606.589"/>
      <point x="249.018" y="615.367"/>
      <point x="249.018" y="623.661" type="curve" smooth="yes"/>
      <point x="249.018" y="663.779"/>
      <point x="286.105" y="692.56"/>
      <point x="326.62" y="692.56" type="curve" smooth="yes"/>
      <point x="336.37" y="692.56"/>
      <point x="341.62" y="697.81"/>
      <point x="341.62" y="707.56" type="curve" smooth="yes"/>
      <point x="341.62" y="737.56" type="line" smooth="yes"/>
      <point x="341.62" y="747.31"/>
      <point x="336.37" y="752.56"/>
      <point x="326.62" y="752.56" type="curve" smooth="yes"/>
      <point x="20" y="752.56" type="line" smooth="yes"/>
      <point x="10.25" y="752.56"/>
      <point x="5" y="747.31"/>
      <point x="5" y="737.56" type="curve" smooth="yes"/>
      <point x="5" y="707.56" type="line" smooth="yes"/>
      <point x="5" y="697.81"/>
      <point x="10.25" y="692.56"/>
      <point x="20" y="692.56" type="curve" smooth="yes"/>
      <point x="61.89" y="692.56"/>
      <point x="73.85" y="648.5"/>
      <point x="93.52" y="597.48" type="curve" smooth="yes"/>
      <point x="319.19" y="11.99" type="line" smooth="yes"/>
      <point x="322.32" y="3.86999"/>
      <point x="327.63" y="-5.41687e-06"/>
      <point x="336.34" y="-5.41687e-06" type="curve" smooth="yes"/>
      <point x="456.7" y="-5.41687e-06" type="line" smooth="yes"/>
      <point x="465.44" y="-5.41687e-06"/>
      <point x="470.76" y="3.92999"/>
      <point x="473.78" y="12.13" type="curve" smooth="yes"/>
      <point x="689.35" y="597.48" type="line" smooth="yes"/>
      <point x="708.57" y="649.66"/>
      <point x="720.01" y="692.56"/>
      <point x="763.9" y="692.56" type="curve" smooth="yes"/>
      <point x="773.65" y="692.56"/>
      <point x="778.9" y="697.81"/>
      <point x="778.9" y="707.56" type="curve" smooth="yes"/>
      <point x="778.9" y="737.56" type="line" smooth="yes"/>
      <point x="778.9" y="747.31"/>
      <point x="773.65" y="752.56"/>
      <point x="763.9" y="752.56" type="curve" smooth="yes"/>
    </contour>
  </outline>
</glyph>
<glyph name="X" format="1">
  <advance width="853.483"/>
  <unicode hex="0058"/>
  <outline>
    <contour>
      <point x="823.95" y="66.93" type="line" smooth="yes"/>
      <point x="795.83" y="66.93"/>
      <point x="764.57" y="89.84"/>
      <point x="725.58" y="137.55" type="curve" smooth="yes"/>
      <point x="511.686" y="399.177" type="line"/>
      <point x="681.08" y="613.34" type="line" smooth="yes"/>
      <point x="719.37" y="662.49"/>
      <point x="734.59" y="683.34"/>
      <point x="780.23" y="683.34" type="curve" smooth="yes"/>
      <point x="796.22" y="683.34" type="line" smooth="yes"/>
      <point x="807.14" y="683.34"/>
      <point x="813.02" y="689.22"/>
      <point x="813.02" y="700.14" type="curve" smooth="yes"/>
      <point x="813.02" y="733.74" type="line" smooth="yes"/>
      <point x="813.02" y="744.66"/>
      <point x="807.14" y="750.54"/>
      <point x="796.22" y="750.54" type="curve" smooth="yes"/>
      <point x="560.88" y="750.54" type="line" smooth="yes"/>
      <point x="549.96" y="750.54"/>
      <point x="544.08" y="744.66"/>
      <point x="544.08" y="733.74" type="curve" smooth="yes"/>
      <point x="544.08" y="700.14" type="line" smooth="yes"/>
      <point x="544.08" y="689.22"/>
      <point x="549.96" y="683.34"/>
      <point x="560.88" y="683.34" type="curve" smooth="yes"/>
      <point x="571.76" y="683.34" type="line" smooth="yes"/>
      <point x="590.774" y="683.34"/>
      <point x="599.115" y="678.818"/>
      <point x="599.115" y="669.488" type="curve" smooth="yes"/>
      <point x="599.115" y="658.004"/>
      <point x="586.474" y="639.234"/>
      <point x="565.54" y="612.65" type="curve" smooth="yes"/>
      <point x="453.496" y="470.353" type="line"/>
      <point x="322.29" y="630.84" type="line" smooth="yes"/>
      <point x="309.453" y="646.448"/>
      <point x="302.846" y="658.042"/>
      <point x="302.846" y="666.268" type="curve" smooth="yes"/>
      <point x="302.846" y="677.9"/>
      <point x="316.056" y="682.8"/>
      <point x="343.54" y="682.8" type="curve" smooth="yes"/>
      <point x="345.78" y="682.8" type="line" smooth="yes"/>
      <point x="356.495" y="682.916"/>
      <point x="362.26" y="688.787"/>
      <point x="362.26" y="699.6" type="curve" smooth="yes"/>
      <point x="362.26" y="733.2" type="line" smooth="yes"/>
      <point x="362.26" y="744.12"/>
      <point x="356.38" y="750"/>
      <point x="345.46" y="750" type="curve" smooth="yes"/>
      <point x="54.6" y="750" type="line" smooth="yes"/>
      <point x="43.68" y="750"/>
      <point x="37.8" y="744.12"/>
      <point x="37.8" y="733.2" type="curve" smooth="yes"/>
      <point x="37.8" y="699.6" type="line" smooth="yes"/>
      <point x="37.8" y="688.68"/>
      <point x="43.68" y="682.8"/>
      <point x="54.6" y="682.8" type="curve" smooth="yes"/>
      <point x="57.33" y="682.8" type="line" smooth="yes"/>
      <point x="85.45" y="682.8"/>
      <point x="117.08" y="659.23"/>
      <point x="155.7" y="612.19" type="curve" smooth="yes"/>
      <point x="332.883" y="396.373" type="line"/>
      <point x="130.74" y="137.02" type="line" smooth="yes"/>
      <point x="92.34" y="87.9598"/>
      <point x="77.22" y="67.0198"/>
      <point x="31.58" y="67.0198" type="curve" smooth="yes"/>
      <point x="18.14" y="67.0198" type="line"/>
      <point x="18.1482" y="65.3611" type="line"/>
      <point x="12.8087" y="62.906"/>
      <point x="10.0001" y="57.7667"/>
      <point x="10.0001" y="50.2199" type="curve" smooth="yes"/>
      <point x="10.0001" y="16.6199" type="line" smooth="yes"/>
      <point x="10.0001" y="8.9262"/>
      <point x="12.919" y="3.8238"/>
      <point x="18.4628" y="1.4803" type="curve"/>
      <point x="18.4701" y="-0.000101638" type="line"/>
      <point x="262.13" y="-0.000101638" type="line" smooth="yes"/>
      <point x="273.05" y="-0.000101638"/>
      <point x="278.93" y="5.6999"/>
      <point x="278.93" y="16.6199" type="curve" smooth="yes"/>
      <point x="278.93" y="50.2199" type="line" smooth="yes"/>
      <point x="278.93" y="61.1399"/>
      <point x="273.05" y="67.0199"/>
      <point x="262.13" y="67.0199" type="curve" smooth="yes"/>
      <point x="240.06" y="67.0199" type="line" smooth="yes"/>
      <point x="221.11" y="67.0199"/>
      <point x="212.844" y="71.4484"/>
      <point x="212.844" y="80.6736" type="curve" smooth="yes"/>
      <point x="212.844" y="92.0987"/>
      <point x="225.522" y="110.881"/>
      <point x="246.28" y="137.72" type="curve" smooth="yes"/>
      <point x="391.288" y="325.232" type="line"/>
      <point x="557.17" y="123.18" type="line" smooth="yes"/>
      <point x="568.613" y="109.363"/>
      <point x="573.031" y="98.822"/>
      <point x="573.031" y="90.8216" type="curve" smooth="yes"/>
      <point x="573.031" y="71.3595"/>
      <point x="546.888" y="66.9299"/>
      <point x="532.14" y="66.9299" type="curve" smooth="yes"/>
      <point x="529.9" y="66.9299" type="line" smooth="yes"/>
      <point x="519.185" y="66.8138"/>
      <point x="513.42" y="60.9427"/>
      <point x="513.42" y="50.1299" type="curve" smooth="yes"/>
      <point x="513.42" y="16.5299" type="line" smooth="yes"/>
      <point x="513.42" y="5.6099"/>
      <point x="519.3" y="-0.00010327"/>
      <point x="530.22" y="-0.00010327" type="curve" smooth="yes"/>
      <point x="826.68" y="-0.00010327" type="line" smooth="yes"/>
      <point x="837.6" y="-0.00010327"/>
      <point x="843.48" y="5.6099"/>
      <point x="843.48" y="16.5299" type="curve" smooth="yes"/>
      <point x="843.48" y="50.1299" type="line" smooth="yes"/>
      <point x="843.48" y="61.0499"/>
      <point x="837.6" y="66.9299"/>
      <point x="826.68" y="66.9299" type="curve" smooth="yes"/>
    </contour>
  </outline>
</glyph>
<glyph name="Z" format="1">
  <advance width="744.895"/>
  <unicode hex="005A"/>
  <outline>
    <contour>
      <point x="675.63" y="194.55" type="line" smooth="yes"/>
      <point x="672.515" y="196.351"/>
      <point x="669.572" y="197.251"/>
      <point x="666.845" y="197.251" type="curve" smooth="yes"/>
      <point x="661.955" y="197.251"/>
      <point x="657.758" y="194.358"/>
      <point x="654.51" y="188.58" type="curve" smooth="yes"/>
      <point x="651.3" y="183.05" type="line" smooth="yes"/>
      <point x="613.56" y="118.22"/>
      <point x="541.36" y="94.1"/>
      <point x="355.37" y="90.75" type="curve" smooth="yes"/>
      <point x="219.713" y="88.3033" type="line"/>
      <point x="712.53" y="731.33" type="line"/>
      <point x="715.434" y="734.76"/>
      <point x="716.802" y="738.04"/>
      <point x="716.802" y="740.854" type="curve" smooth="yes"/>
      <point x="716.802" y="746.073"/>
      <point x="712.099" y="749.69"/>
      <point x="703.77" y="749.69" type="curve" smooth="yes"/>
      <point x="176.25" y="749.69" type="line" smooth="yes"/>
      <point x="168.82" y="749.69"/>
      <point x="162.9" y="749.72"/>
      <point x="157.09" y="755.12" type="curve" smooth="yes"/>
      <point x="151.52" y="760.12" type="line"/>
      <point x="148.721" y="762.295"/>
      <point x="145.816" y="763.288"/>
      <point x="143.018" y="763.288" type="curve" smooth="yes"/>
      <point x="138.098" y="763.288"/>
      <point x="133.508" y="760.22"/>
      <point x="130.41" y="755.12" type="curve"/>
      <point x="50.7201" y="598.73" type="line" smooth="yes"/>
      <point x="49.0379" y="595.653"/>
      <point x="48.2046" y="592.735"/>
      <point x="48.2046" y="590.025" type="curve" smooth="yes"/>
      <point x="48.2046" y="585.1"/>
      <point x="50.9577" y="580.865"/>
      <point x="56.3701" y="577.62" type="curve"/>
      <point x="98.2501" y="555.15" type="line" smooth="yes"/>
      <point x="101.387" y="553.331"/>
      <point x="104.35" y="552.43"/>
      <point x="107.095" y="552.43" type="curve" smooth="yes"/>
      <point x="111.954" y="552.43"/>
      <point x="116.127" y="555.253"/>
      <point x="119.36" y="560.8" type="curve" smooth="yes"/>
      <point x="122.58" y="566.33" type="line" smooth="yes"/>
      <point x="160.31" y="631.16"/>
      <point x="220.74" y="668.63"/>
      <point x="301.9" y="668.63" type="curve" smooth="yes"/>
      <point x="472.463" y="668.63" type="line"/>
      <point x="15.0001" y="80.75" type="line"/>
      <point x="15.0001" y="15.14" type="line" smooth="yes"/>
      <point x="15.0001" y="5.1"/>
      <point x="20.4101" y="-0.309999"/>
      <point x="30.4601" y="-0.309999" type="curve" smooth="yes"/>
      <point x="597.62" y="-0.309999" type="line" smooth="yes"/>
      <point x="605.05" y="-0.309999"/>
      <point x="610.97" y="-0.309999"/>
      <point x="616.78" y="-5.31" type="curve" smooth="yes"/>
      <point x="622.35" y="-10.31" type="line"/>
      <point x="625.152" y="-12.4852"/>
      <point x="628.059" y="-13.4776"/>
      <point x="630.857" y="-13.4776" type="curve" smooth="yes"/>
      <point x="635.777" y="-13.4776"/>
      <point x="640.362" y="-10.4097"/>
      <point x="643.46" y="-5.31" type="curve"/>
      <point x="723.15" y="150.66" type="line"/>
      <point x="724.986" y="153.788"/>
      <point x="725.892" y="156.75"/>
      <point x="725.892" y="159.497" type="curve" smooth="yes"/>
      <point x="725.892" y="164.362"/>
      <point x="723.049" y="168.548"/>
      <point x="717.5" y="171.77" type="curve" smooth="yes"/>
    </contour>
    <contour>
      <point x="411.976" y="750" type="move" name="top"/>
    </contour>
  </outline>
</glyph>
<glyph name="bracketleft" format="1">
  <advance width="406.954"/>
  <unicode hex="005B"/>
  <outline>
    <contour>
      <point x="311.95" y="691.94" type="line" smooth="yes"/>
      <point x="321.7" y="691.94"/>
      <point x="326.95" y="696.94"/>
      <point x="326.95" y="706.94" type="curve" smooth="yes"/>
      <point x="326.95" y="753.94" type="line" smooth="yes"/>
      <point x="326.95" y="762.94"/>
      <point x="321.7" y="768.94"/>
      <point x="311.95" y="768.94" type="curve" smooth="yes"/>
      <point x="95" y="768.94" type="line" smooth="yes"/>
      <point x="85" y="768.94"/>
      <point x="80" y="762.94"/>
      <point x="80" y="753.94" type="curve" smooth="yes"/>
      <point x="80" y="-185" type="line" smooth="yes"/>
      <point x="80" y="-195"/>
      <point x="85.25" y="-200"/>
      <point x="95" y="-200" type="curve" smooth="yes"/>
      <point x="311.91" y="-200" type="line" smooth="yes"/>
      <point x="321.66" y="-200"/>
      <point x="326.91" y="-195"/>
      <point x="326.91" y="-185" type="curve" smooth="yes"/>
      <point x="326.91" y="-138" type="line" smooth="yes"/>
      <point x="326.91" y="-129"/>
      <point x="321.66" y="-123"/>
      <point x="311.91" y="-123" type="curve" smooth="yes"/>
      <point x="197" y="-123" type="line"/>
      <point x="197" y="691.94" type="line"/>
    </contour>
  </outline>
</glyph>
<glyph name="bracketright" format="1">
  <advance width="406.954"/>
  <unicode hex="005D"/>
  <outline>
    <contour>
      <point x="95" y="768.94" type="line" smooth="yes"/>
      <point x="85.25" y="768.94"/>
      <point x="80" y="762.94"/>
      <point x="80" y="753.94" type="curve" smooth="yes"/>
      <point x="80" y="706.94" type="line" smooth="yes"/>
      <point x="80" y="696.94"/>
      <point x="85.25" y="691.94"/>
      <point x="95" y="691.94" type="curve" smooth="yes"/>
      <point x="209.95" y="691.94" type="line"/>
      <point x="209.95" y="-123" type="line"/>
      <point x="95.04" y="-123" type="line" smooth="yes"/>
      <point x="85.29" y="-123"/>
      <point x="80.04" y="-129"/>
      <point x="80.04" y="-138" type="curve" smooth="yes"/>
      <point x="80.04" y="-185" type="line" smooth="yes"/>
      <point x="80.04" y="-195"/>
      <point x="85.29" y="-200"/>
      <point x="95.04" y="-200" type="curve" smooth="yes"/>
      <point x="311.95" y="-200" type="line" smooth="yes"/>
      <point x="321.7" y="-200"/>
      <point x="326.95" y="-195"/>
      <point x="326.95" y="-185" type="curve" smooth="yes"/>
      <point x="326.95" y="753.94" type="line" smooth="yes"/>
      <point x="326.95" y="762.94"/>
      <point x="321.95" y="768.94"/>
      <point x="311.95" y="768.94" type="curve" smooth="yes"/>
    </contour>
  </outline>
</glyph>
<glyph name="underscore" format="1">
  <advance width="600"/>
  <unicode hex="005F"/>
  <outline>
    <contour>
      <point x="20.71" y="-149" type="line" smooth="yes"/>
      <point x="18.05" y="-159"/>
      <point x="22.97" y="-165"/>
      <point x="33.67" y="-165" type="curve" smooth="yes"/>
      <point x="532.97" y="-165" type="line" smooth="yes"/>
      <point x="541.94" y="-165"/>
      <point x="547.38" y="-161"/>
      <point x="549.61" y="-153" type="curve" smooth="yes"/>
      <point x="572" y="-65" type="line" smooth="yes"/>
      <point x="574.66" y="-55"/>
      <point x="569.74" y="-49"/>
      <point x="559.05" y="-49" type="curve" smooth="yes"/>
      <point x="59.74" y="-49" type="line" smooth="yes"/>
      <point x="50.77" y="-49"/>
      <point x="45.34" y="-53"/>
      <point x="43.11" y="-62" type="curve" smooth="yes"/>
    </contour>
  </outline>
</glyph>
<glyph name="b" format="1">
  <advance width="608.600"/>
  <unicode hex="0062"/>
  <outline>
    <contour>
      <point x="75.89" y="215.19" type="line" smooth="yes"/>
      <point x="75.78" y="50.08"/>
      <point x="183.73" y="-12"/>
      <point x="316.54" y="-12" type="curve" smooth="yes"/>
      <point x="478.93" y="-12"/>
      <point x="578.6" y="95.53"/>
      <point x="578.6" y="249.11" type="curve" smooth="yes"/>
      <point x="578.6" y="442.56"/>
      <point x="443.58" y="513.11"/>
      <point x="336.28" y="513.11" type="curve" smooth="yes"/>
      <point x="279.96" y="513.11"/>
      <point x="232.53" y="490.89"/>
      <point x="215.36" y="464.15" type="curve"/>
      <point x="215.36" y="798.39" type="line"/>
      <point x="215.47" y="799.89"/>
      <point x="215.38" y="800.01"/>
      <point x="214.1" y="800.01" type="curve" smooth="yes"/>
      <point x="211.75" y="800" type="line" smooth="yes"/>
      <point x="210.2" y="799.99"/>
      <point x="208.84" y="798.74"/>
      <point x="207.29" y="797.62" type="curve" smooth="yes"/>
      <point x="180.42" y="778.27"/>
      <point x="124.85" y="740.04"/>
      <point x="19.48" y="705.07" type="curve" smooth="yes"/>
      <point x="10.09" y="701.96"/>
      <point x="5.02998" y="700.18"/>
      <point x="5.02998" y="691.88" type="curve" smooth="yes"/>
      <point x="5.02998" y="657.98" type="line"/>
      <point x="4.72998" y="651.12"/>
      <point x="6.89998" y="646.15"/>
      <point x="16.77" y="645.07" type="curve" smooth="yes"/>
      <point x="71.96" y="639.04"/>
      <point x="75.89" y="583.59"/>
      <point x="75.89" y="530" type="curve" smooth="yes"/>
    </contour>
    <contour>
      <point x="215.36" y="399.47" type="line"/>
      <point x="239.06" y="416.7"/>
      <point x="265.38" y="424.68"/>
      <point x="291.71" y="424.68" type="curve" smooth="yes"/>
      <point x="393.63" y="424.68"/>
      <point x="449.96" y="344.92"/>
      <point x="449.96" y="216.77" type="curve" smooth="yes"/>
      <point x="449.96" y="134.01"/>
      <point x="423.7" y="52.82"/>
      <point x="326.96" y="52.82" type="curve" smooth="yes"/>
      <point x="269.77" y="52.82"/>
      <point x="215.36" y="95.85"/>
      <point x="215.36" y="194.11" type="curve"/>
    </contour>
  </outline>
</glyph>
<glyph name="e" format="1">
  <advance width="515.100"/>
  <unicode hex="0065"/>
  <outline>
    <contour>
      <point x="465.37" y="305.63" type="line" smooth="yes"/>
      <point x="471.84" y="308.46"/>
      <point x="473.59" y="312.53"/>
      <point x="473.59" y="318.2" type="curve" smooth="yes"/>
      <point x="473.59" y="393.62"/>
      <point x="400.12" y="511.35"/>
      <point x="267.85" y="511.35" type="curve" smooth="yes"/>
      <point x="150.05" y="511.35"/>
      <point x="30" y="440.1"/>
      <point x="30" y="254.61" type="curve" smooth="yes"/>
      <point x="30" y="109.85"/>
      <point x="132.37" y="-12"/>
      <point x="298.27" y="-12" type="curve" smooth="yes"/>
      <point x="399.54" y="-12"/>
      <point x="461.38" y="34.86"/>
      <point x="498.76" y="104.67" type="curve" smooth="yes"/>
      <point x="501.67" y="110.11"/>
      <point x="505.1" y="116.79"/>
      <point x="505.1" y="122.2" type="curve" smooth="yes"/>
      <point x="505.1" y="125.34"/>
      <point x="503.93" y="128.05"/>
      <point x="500.84" y="129.86" type="curve" smooth="yes"/>
      <point x="468.94" y="148.55"/>
      <point x="467.21" y="149.38"/>
      <point x="461.15" y="149.38" type="curve" smooth="yes"/>
      <point x="458.76" y="149.38"/>
      <point x="454.73" y="148.17"/>
      <point x="452.55" y="145.01" type="curve" smooth="yes"/>
      <point x="417.58" y="94.39"/>
      <point x="367.62" y="71.12"/>
      <point x="325.36" y="71.12" type="curve" smooth="yes"/>
      <point x="247.53" y="71.12"/>
      <point x="197.91" y="123.46"/>
      <point x="175.09" y="178.77" type="curve"/>
    </contour>
    <contour>
      <point x="163.06" y="241.27" type="line"/>
      <point x="154.99" y="264.89"/>
      <point x="153.72" y="297.88"/>
      <point x="153.72" y="317.57" type="curve" smooth="yes"/>
      <point x="153.72" y="382.51"/>
      <point x="188.46" y="432.15"/>
      <point x="243.44" y="432.15" type="curve" smooth="yes"/>
      <point x="289.41" y="432.15"/>
      <point x="323.77" y="385.82"/>
      <point x="323.77" y="322.27" type="curve"/>
    </contour>
    <contour>
      <point x="433" y="10" type="move" name="ogonek"/>
    </contour>
    <contour>
      <point x="267" y="0" type="move" name="bottom"/>
    </contour>
    <contour>
      <point x="267" y="500" type="move" name="top"/>
    </contour>
  </outline>
</glyph>
<glyph name="j" format="1">
  <advance width="302.834"/>
  <unicode hex="006A"/>
  <outline>
    <contour>
      <point x="195.56" y="589.69"/>
      <point x="210.07" y="596.92"/>
      <point x="227.83" y="614.69" type="curve" smooth="yes"/>
      <point x="245.6" y="632.46"/>
      <point x="252.83" y="646.96"/>
      <point x="252.83" y="664.82" type="curve" smooth="yes"/>
      <point x="252.83" y="682.68"/>
      <point x="245.6" y="697.18"/>
      <point x="227.83" y="714.95" type="curve" smooth="yes"/>
      <point x="210.07" y="732.72"/>
      <point x="195.56" y="739.95"/>
      <point x="177.7" y="739.95" type="curve" smooth="yes"/>
      <point x="159.84" y="739.95"/>
      <point x="145.34" y="732.72"/>
      <point x="127.57" y="714.95" type="curve" smooth="yes"/>
      <point x="109.8" y="697.18"/>
      <point x="102.57" y="682.68"/>
      <point x="102.57" y="664.82" type="curve" smooth="yes"/>
      <point x="102.57" y="646.96"/>
      <point x="109.8" y="632.46"/>
      <point x="127.57" y="614.69" type="curve" smooth="yes"/>
      <point x="145.34" y="596.92"/>
      <point x="159.84" y="589.69"/>
      <point x="177.7" y="589.69" type="curve" smooth="yes"/>
    </contour>
    <contour>
      <point x="245.09" y="531.32" type="line"/>
      <point x="243.55" y="531.31"/>
      <point x="241.95" y="530.32"/>
      <point x="240.63" y="528.94" type="curve" smooth="yes"/>
      <point x="213.76" y="500.59"/>
      <point x="158.19" y="462.21"/>
      <point x="52.82" y="427.25" type="curve" smooth="yes"/>
      <point x="43.44" y="424.13"/>
      <point x="38.37" y="422.36"/>
      <point x="38.37" y="414.06" type="curve" smooth="yes"/>
      <point x="38.37" y="380.16" type="line"/>
      <point x="38.07" y="373.3"/>
      <point x="40.24" y="368.33"/>
      <point x="50.11" y="367.25" type="curve" smooth="yes"/>
      <point x="105.3" y="361.22"/>
      <point x="109.23" y="305.77"/>
      <point x="109.23" y="261.18" type="curve" smooth="yes"/>
      <point x="109.23" y="30.31" type="line"/>
      <point x="109.47" y="-5" type="line" smooth="yes"/>
      <point x="109.47" y="-87"/>
      <point x="106.52" y="-158"/>
      <point x="46.33" y="-158" type="curve" smooth="yes"/>
      <point x="-9.00001" y="-158"/>
      <point x="-23" y="-105"/>
      <point x="-23" y="-56" type="curve"/>
      <point x="-23.7039" y="-46.1449"/>
      <point x="-28.8676" y="-41.7406"/>
      <point x="-34.3052" y="-41.7406" type="curve" smooth="yes"/>
      <point x="-36.5921" y="-41.7406"/>
      <point x="-38.9276" y="-42.5197"/>
      <point x="-41" y="-44" type="curve" smooth="yes"/>
      <point x="-112" y="-95" type="line" smooth="yes"/>
      <point x="-120" y="-101"/>
      <point x="-123" y="-109"/>
      <point x="-123" y="-116" type="curve" smooth="yes"/>
      <point x="-123" y="-135"/>
      <point x="-84" y="-214"/>
      <point x="39.04" y="-214" type="curve" smooth="yes"/>
      <point x="214.36" y="-214"/>
      <point x="249.78" y="-62"/>
      <point x="249.78" y="62" type="curve" smooth="yes"/>
      <point x="249.78" y="529.95" type="line"/>
      <point x="248.81" y="531.45"/>
      <point x="248.72" y="531.57"/>
      <point x="247.44" y="531.57" type="curve"/>
    </contour>
  </outline>
</glyph>
<glyph name="m" format="1">
  <advance width="1030.500"/>
  <unicode hex="006D"/>
  <outline>
    <contour>
      <point x="995.42" y="60" type="line" smooth="yes"/>
      <point x="946.53" y="60"/>
      <point x="921.97" y="100.74"/>
      <point x="921.9" y="155.08" type="curve"/>
      <point x="921.9" y="320.06" type="line"/>
      <point x="921.66" y="415.69"/>
      <point x="894.86" y="513.11"/>
      <point x="751.91" y="513.11" type="curve" smooth="yes"/>
      <point x="672.808" y="513.11"/>
      <point x="612.901" y="473.18"/>
      <point x="568.42" y="415.413" type="curve"/>
      <point x="550.8" y="472.043"/>
      <point x="507.384" y="513.11"/>
      <point x="409.4" y="513.11" type="curve" smooth="yes"/>
      <point x="317.78" y="513.11"/>
      <point x="264.12" y="443.01"/>
      <point x="236.45" y="398.46" type="curve"/>
      <point x="254.13" y="529.73" type="line" smooth="yes"/>
      <point x="254.33" y="531.22"/>
      <point x="254.04" y="531.35"/>
      <point x="252.76" y="531.35" type="curve" smooth="yes"/>
      <point x="250.41" y="531.34" type="line" smooth="yes"/>
      <point x="248.86" y="531.34"/>
      <point x="247.5" y="530.08"/>
      <point x="245.95" y="528.96" type="curve" smooth="yes"/>
      <point x="219.08" y="509.61"/>
      <point x="143.51" y="470.81"/>
      <point x="48.1399" y="455.84" type="curve" smooth="yes"/>
      <point x="38.3699" y="454.31"/>
      <point x="33.6899" y="450.95"/>
      <point x="33.6899" y="442.65" type="curve" smooth="yes"/>
      <point x="33.6899" y="408.75" type="line"/>
      <point x="33.3899" y="401.89"/>
      <point x="35.5599" y="396.92"/>
      <point x="45.4299" y="395.84" type="curve" smooth="yes"/>
      <point x="100.62" y="389.81"/>
      <point x="104.55" y="334.36"/>
      <point x="104.55" y="280.77" type="curve" smooth="yes"/>
      <point x="104.55" y="155.08" type="line" smooth="yes"/>
      <point x="104.55" y="100.73"/>
      <point x="80.8899" y="60.0001"/>
      <point x="31.9999" y="60.0001" type="curve" smooth="yes"/>
      <point x="29.9999" y="60.0001" type="line" smooth="yes"/>
      <point x="20.2499" y="60.0001"/>
      <point x="14.9999" y="54.7501"/>
      <point x="14.9999" y="45.0001" type="curve" smooth="yes"/>
      <point x="14.9999" y="15.0001" type="line" smooth="yes"/>
      <point x="14.9999" y="5.2501"/>
      <point x="20.2499" y="0.000103498"/>
      <point x="29.9999" y="0.000103498" type="curve" smooth="yes"/>
      <point x="311.33" y="0.000103498" type="line" smooth="yes"/>
      <point x="321.08" y="0.000103498"/>
      <point x="326.33" y="5.2501"/>
      <point x="326.33" y="15.0001" type="curve" smooth="yes"/>
      <point x="326.33" y="45.0001" type="line" smooth="yes"/>
      <point x="326.33" y="54.7501"/>
      <point x="321.08" y="60.0001"/>
      <point x="311.33" y="60.0001" type="curve" smooth="yes"/>
      <point x="308.62" y="60.0001" type="line" smooth="yes"/>
      <point x="269.73" y="60.0001"/>
      <point x="245.1" y="100.74"/>
      <point x="245.1" y="155.08" type="curve" smooth="yes"/>
      <point x="245.1" y="339.47" type="line"/>
      <point x="262.35" y="381.65"/>
      <point x="317.16" y="424.68"/>
      <point x="366.74" y="424.68" type="curve" smooth="yes"/>
      <point x="443.47" y="424.68"/>
      <point x="438.84" y="370.1"/>
      <point x="438.84" y="305.64" type="curve" smooth="yes"/>
      <point x="438.84" y="155.08" type="line" smooth="yes"/>
      <point x="439.81" y="80.7401"/>
      <point x="414.16" y="60.0001"/>
      <point x="386.29" y="60.0001" type="curve" smooth="yes"/>
      <point x="379.43" y="60.0001" type="line" smooth="yes"/>
      <point x="369.68" y="60.0001"/>
      <point x="364.43" y="54.7501"/>
      <point x="364.43" y="45.0001" type="curve" smooth="yes"/>
      <point x="364.43" y="15.0001" type="line" smooth="yes"/>
      <point x="364.43" y="5.25011"/>
      <point x="369.68" y="0.000107388"/>
      <point x="379.43" y="0.000107388" type="curve" smooth="yes"/>
      <point x="650.76" y="0.000107388" type="line" smooth="yes"/>
      <point x="660.51" y="0.000107388"/>
      <point x="665.76" y="5.25011"/>
      <point x="665.76" y="15.0001" type="curve" smooth="yes"/>
      <point x="665.76" y="45.0001" type="line" smooth="yes"/>
      <point x="665.76" y="54.7501"/>
      <point x="660.51" y="60.0001"/>
      <point x="650.76" y="60.0001" type="curve" smooth="yes"/>
      <point x="642.91" y="60.0001" type="line" smooth="yes"/>
      <point x="604.02" y="60.0001"/>
      <point x="579.49" y="80.7401"/>
      <point x="579.39" y="155.08" type="curve"/>
      <point x="579.39" y="330.06" type="line"/>
      <point x="607.858" y="384.392"/>
      <point x="651.492" y="424.68"/>
      <point x="709.24" y="424.68" type="curve" smooth="yes"/>
      <point x="785.97" y="424.68"/>
      <point x="781.35" y="360.1"/>
      <point x="781.35" y="305.64" type="curve" smooth="yes"/>
      <point x="781.35" y="155.08" type="line" smooth="yes"/>
      <point x="781.35" y="90.73"/>
      <point x="770.96" y="60"/>
      <point x="729.09" y="60" type="curve" smooth="yes"/>
      <point x="724.17" y="60" type="line" smooth="yes"/>
      <point x="714.42" y="60"/>
      <point x="709.17" y="54.75"/>
      <point x="709.17" y="45" type="curve" smooth="yes"/>
      <point x="709.17" y="15" type="line" smooth="yes"/>
      <point x="709.17" y="5.25001"/>
      <point x="714.42" y="6.69584e-06"/>
      <point x="724.17" y="6.69584e-06" type="curve" smooth="yes"/>
      <point x="1005.5" y="6.69584e-06" type="line" smooth="yes"/>
      <point x="1015.25" y="6.69584e-06"/>
      <point x="1020.5" y="5.25001"/>
      <point x="1020.5" y="15" type="curve" smooth="yes"/>
      <point x="1020.5" y="45" type="line" smooth="yes"/>
      <point x="1020.5" y="54.75"/>
      <point x="1015.25" y="60"/>
      <point x="1005.5" y="60" type="curve" smooth="yes"/>
    </contour>
  </outline>
</glyph>
<glyph name="n" format="1">
  <advance width="682.619"/>
  <unicode hex="006E"/>
  <outline>
    <contour>
      <point x="653.35" y="60" type="line" smooth="yes"/>
      <point x="604.46" y="60"/>
      <point x="579.91" y="100.74"/>
      <point x="579.83" y="155.08" type="curve"/>
      <point x="579.83" y="320.06" type="line"/>
      <point x="579.6" y="415.69"/>
      <point x="552.8" y="513.11"/>
      <point x="409.84" y="513.11" type="curve" smooth="yes"/>
      <point x="318.22" y="513.11"/>
      <point x="264.56" y="443.01"/>
      <point x="236.89" y="398.46" type="curve"/>
      <point x="254.57" y="529.73" type="line" smooth="yes"/>
      <point x="254.77" y="531.22"/>
      <point x="254.48" y="531.35"/>
      <point x="253.2" y="531.35" type="curve" smooth="yes"/>
      <point x="250.85" y="531.34" type="line" smooth="yes"/>
      <point x="249.3" y="531.34"/>
      <point x="247.94" y="530.08"/>
      <point x="246.39" y="528.96" type="curve" smooth="yes"/>
      <point x="219.52" y="509.61"/>
      <point x="143.95" y="470.81"/>
      <point x="48.58" y="455.84" type="curve" smooth="yes"/>
      <point x="38.81" y="454.31"/>
      <point x="34.13" y="450.95"/>
      <point x="34.13" y="442.65" type="curve" smooth="yes"/>
      <point x="34.13" y="408.75" type="line"/>
      <point x="33.83" y="401.89"/>
      <point x="36" y="396.92"/>
      <point x="45.87" y="395.84" type="curve" smooth="yes"/>
      <point x="101.06" y="389.81"/>
      <point x="104.99" y="334.36"/>
      <point x="104.99" y="280.77" type="curve" smooth="yes"/>
      <point x="104.99" y="155.08" type="line" smooth="yes"/>
      <point x="104.99" y="100.73"/>
      <point x="81.33" y="60"/>
      <point x="32.44" y="60" type="curve" smooth="yes"/>
      <point x="30" y="60" type="line" smooth="yes"/>
      <point x="20.25" y="60"/>
      <point x="15" y="54.75"/>
      <point x="15" y="45" type="curve" smooth="yes"/>
      <point x="15" y="15" type="line" smooth="yes"/>
      <point x="15" y="5.25"/>
      <point x="20.25" y="5.00679e-07"/>
      <point x="30" y="5.00679e-07" type="curve" smooth="yes"/>
      <point x="320.77" y="5.00679e-07" type="line" smooth="yes"/>
      <point x="330.52" y="5.00679e-07"/>
      <point x="335.77" y="5.25"/>
      <point x="335.77" y="15" type="curve" smooth="yes"/>
      <point x="335.77" y="45" type="line" smooth="yes"/>
      <point x="335.77" y="54.6526"/>
      <point x="330.624" y="59.8938"/>
      <point x="321.06" y="59.9975" type="curve" smooth="yes"/>
      <point x="319.06" y="60" type="line" smooth="yes"/>
      <point x="270.17" y="60"/>
      <point x="245.54" y="100.74"/>
      <point x="245.54" y="155.08" type="curve" smooth="yes"/>
      <point x="245.54" y="339.47" type="line"/>
      <point x="262.79" y="381.65"/>
      <point x="317.59" y="424.68"/>
      <point x="367.17" y="424.68" type="curve" smooth="yes"/>
      <point x="443.91" y="424.68"/>
      <point x="439.28" y="360.1"/>
      <point x="439.28" y="305.64" type="curve" smooth="yes"/>
      <point x="439.28" y="155.08" type="line" smooth="yes"/>
      <point x="440.25" y="100.74"/>
      <point x="424.6" y="60"/>
      <point x="386.73" y="60" type="curve" smooth="yes"/>
      <point x="376.54" y="60"/>
      <point x="371.29" y="54.75"/>
      <point x="371.29" y="45" type="curve" smooth="yes"/>
      <point x="371.29" y="15" type="line" smooth="yes"/>
      <point x="371.29" y="5.25"/>
      <point x="376.54" y="-1.07467e-06"/>
      <point x="386.29" y="-1.07467e-06" type="curve" smooth="yes"/>
      <point x="657.62" y="-1.07467e-06" type="line" smooth="yes"/>
      <point x="667.37" y="-1.07467e-06"/>
      <point x="672.62" y="5.25"/>
      <point x="672.62" y="15" type="curve" smooth="yes"/>
      <point x="672.62" y="45" type="line" smooth="yes"/>
      <point x="672.62" y="54.75"/>
      <point x="667.37" y="60"/>
      <point x="657.62" y="60" type="curve" smooth="yes"/>
    </contour>
    <contour>
      <point x="342.756" y="500" type="move" name="top"/>
    </contour>
    <contour>
      <point x="342.756" y="0" type="move" name="bottom"/>
    </contour>
  </outline>
</glyph>
<glyph name="q" format="1">
  <advance width="624.794"/>
  <unicode hex="0071"/>
  <outline>
    <contour>
      <point x="555.64" y="-140"/>
      <point x="532.01" y="-99"/>
      <point x="532.98" y="-45" type="curve" smooth="yes"/>
      <point x="532.98" y="143.674" type="line"/>
      <point x="532.9" y="512.93" type="line"/>
      <point x="532.9" y="514.43"/>
      <point x="532.81" y="514.55"/>
      <point x="531.53" y="514.55" type="curve" smooth="yes"/>
      <point x="529.18" y="514.54" type="line" smooth="yes"/>
      <point x="527.63" y="514.53"/>
      <point x="526.27" y="513.28"/>
      <point x="524.72" y="512.16" type="curve" smooth="yes"/>
      <point x="504.257" y="497.424"/>
      <point x="481.249" y="478.147"/>
      <point x="424.902" y="454.347" type="curve"/>
      <point x="383.141" y="491.341"/>
      <point x="328.227" y="510.93"/>
      <point x="263.5" y="510.93" type="curve" smooth="yes"/>
      <point x="142.62" y="510.93"/>
      <point x="30" y="436.04"/>
      <point x="30" y="250.82" type="curve" smooth="yes"/>
      <point x="30" y="57.37"/>
      <point x="161.41" y="-13"/>
      <point x="251.59" y="-13" type="curve" smooth="yes"/>
      <point x="332.788" y="-13"/>
      <point x="374.224" y="27.7592"/>
      <point x="393.416" y="58.0834" type="curve"/>
      <point x="393.416" y="-7.102" type="line"/>
      <point x="393.424" y="-45" type="line" smooth="yes"/>
      <point x="393.43" y="-99"/>
      <point x="368.8" y="-140"/>
      <point x="319.91" y="-140" type="curve" smooth="yes"/>
      <point x="317.91" y="-140" type="line" smooth="yes"/>
      <point x="308.513" y="-140.192"/>
      <point x="303.46" y="-145.19"/>
      <point x="303.46" y="-155" type="curve" smooth="yes"/>
      <point x="303.46" y="-185" type="line" smooth="yes"/>
      <point x="303.46" y="-195"/>
      <point x="308.71" y="-200"/>
      <point x="318.46" y="-200" type="curve" smooth="yes"/>
      <point x="604.79" y="-200" type="line" smooth="yes"/>
      <point x="614.54" y="-200"/>
      <point x="619.79" y="-195"/>
      <point x="619.79" y="-185" type="curve" smooth="yes"/>
      <point x="619.79" y="-155" type="line" smooth="yes"/>
      <point x="619.79" y="-145"/>
      <point x="614.54" y="-140"/>
      <point x="604.79" y="-140" type="curve" smooth="yes"/>
    </contour>
    <contour>
      <point x="393.24" y="141.12" type="line"/>
      <point x="393.24" y="141.12"/>
      <point x="371.06" y="75.2499"/>
      <point x="296.89" y="75.2499" type="curve" smooth="yes"/>
      <point x="214.97" y="75.2499"/>
      <point x="158.64" y="155.01"/>
      <point x="158.64" y="283.16" type="curve" smooth="yes"/>
      <point x="158.64" y="365.92"/>
      <point x="184.9" y="446.11"/>
      <point x="281.64" y="446.11" type="curve" smooth="yes"/>
      <point x="380.47" y="446.11"/>
      <point x="393.32" y="328.58"/>
      <point x="393.32" y="268.56" type="curve"/>
      <point x="393.24" y="270.68" type="line"/>
    </contour>
  </outline>
</glyph>
<glyph name="r" format="1">
  <advance width="529.823"/>
  <unicode hex="0072"/>
  <outline>
    <contour>
      <point x="254.57" y="529.73" type="line"/>
      <point x="254.77" y="531.22"/>
      <point x="254.48" y="531.35"/>
      <point x="253.2" y="531.35" type="curve" smooth="yes"/>
      <point x="250.85" y="531.34" type="line" smooth="yes"/>
      <point x="249.31" y="531.34"/>
      <point x="247.94" y="530.08"/>
      <point x="246.39" y="528.96" type="curve" smooth="yes"/>
      <point x="219.52" y="509.61"/>
      <point x="143.95" y="470.81"/>
      <point x="48.58" y="455.84" type="curve" smooth="yes"/>
      <point x="38.81" y="454.31"/>
      <point x="34.13" y="450.95"/>
      <point x="34.13" y="442.65" type="curve" smooth="yes"/>
      <point x="34.13" y="408.75" type="line"/>
      <point x="33.83" y="401.89"/>
      <point x="36" y="396.92"/>
      <point x="45.87" y="395.84" type="curve" smooth="yes"/>
      <point x="101.06" y="389.81"/>
      <point x="104.99" y="334.36"/>
      <point x="104.99" y="280.77" type="curve" smooth="yes"/>
      <point x="104.99" y="155.08" type="line" smooth="yes"/>
      <point x="104.99" y="100.73"/>
      <point x="81.33" y="60.0001"/>
      <point x="32.44" y="60.0001" type="curve" smooth="yes"/>
      <point x="30" y="60.0001" type="line" smooth="yes"/>
      <point x="20.25" y="60.0001"/>
      <point x="15" y="54.7501"/>
      <point x="15" y="45.0001" type="curve" smooth="yes"/>
      <point x="15" y="15.0001" type="line" smooth="yes"/>
      <point x="15" y="5.2501"/>
      <point x="20.25" y="0.000100958"/>
      <point x="30" y="0.000100958" type="curve" smooth="yes"/>
      <point x="320.77" y="0.000100958" type="line" smooth="yes"/>
      <point x="330.52" y="0.000100958"/>
      <point x="335.77" y="5.2501"/>
      <point x="335.77" y="15.0001" type="curve" smooth="yes"/>
      <point x="335.77" y="45.0001" type="line" smooth="yes"/>
      <point x="335.77" y="54.7501"/>
      <point x="330.52" y="60.0001"/>
      <point x="320.77" y="60.0001" type="curve" smooth="yes"/>
      <point x="319.06" y="60.0001" type="line" smooth="yes"/>
      <point x="270.17" y="60.0001"/>
      <point x="245.54" y="100.74"/>
      <point x="245.54" y="155.08" type="curve" smooth="yes"/>
      <point x="245.54" y="339.47" type="line"/>
      <point x="260.45" y="375.92"/>
      <point x="300.11" y="425.91"/>
      <point x="345.88" y="425.91" type="curve" smooth="yes"/>
      <point x="373.36" y="425.91"/>
      <point x="393.07" y="410.39"/>
      <point x="393.07" y="374.17" type="curve" smooth="yes"/>
      <point x="393.07" y="360.46"/>
      <point x="391.87" y="343.22"/>
      <point x="383.96" y="323.98" type="curve" smooth="yes"/>
      <point x="382.687" y="320.885"/>
      <point x="382.045" y="317.915"/>
      <point x="382.045" y="315.299" type="curve" smooth="yes"/>
      <point x="382.045" y="309.632"/>
      <point x="385.059" y="305.63"/>
      <point x="391.21" y="305.63" type="curve" smooth="yes"/>
      <point x="393.68" y="305.63"/>
      <point x="396.65" y="306.27"/>
      <point x="400.13" y="307.71" type="curve" smooth="yes"/>
      <point x="493.62" y="346.3" type="line" smooth="yes"/>
      <point x="517.87" y="356.31"/>
      <point x="519.82" y="379.64"/>
      <point x="519.82" y="409.82" type="curve" smooth="yes"/>
      <point x="519.82" y="478.03"/>
      <point x="469.29" y="512.84"/>
      <point x="406.85" y="512.84" type="curve" smooth="yes"/>
      <point x="335.84" y="512.84"/>
      <point x="267.28" y="472.25"/>
      <point x="230.89" y="395.46" type="curve"/>
    </contour>
    <contour>
      <point x="299.106" y="500" type="move" name="top"/>
    </contour>
    <contour>
      <point x="172.999" y="0" type="move" name="bottom"/>
    </contour>
  </outline>
</glyph>
<glyph name="v" format="1">
  <advance width="599.619"/>
  <unicode hex="0076"/>
  <outline>
    <contour>
      <point x="395.29" y="500.37" type="line" smooth="yes"/>
      <point x="385.54" y="500.37"/>
      <point x="380.29" y="495.12"/>
      <point x="380.29" y="485.37" type="curve" smooth="yes"/>
      <point x="380.29" y="455.37" type="line" smooth="yes"/>
      <point x="380.29" y="445.62"/>
      <point x="385.54" y="440.37"/>
      <point x="395.29" y="440.37" type="curve" smooth="yes"/>
      <point x="415" y="440.37" type="line" smooth="yes"/>
      <point x="431.036" y="440.37"/>
      <point x="437.095" y="432.327"/>
      <point x="437.095" y="419.239" type="curve" smooth="yes"/>
      <point x="437.095" y="401.418"/>
      <point x="425.861" y="374.245"/>
      <point x="413.28" y="345.29" type="curve" smooth="yes"/>
      <point x="328.6" y="150.41" type="line"/>
      <point x="236.54" y="345.29" type="line" smooth="yes"/>
      <point x="225.045" y="369.623"/>
      <point x="216.26" y="393.175"/>
      <point x="216.26" y="410.752" type="curve" smooth="yes"/>
      <point x="216.26" y="428.664"/>
      <point x="225.384" y="440.37"/>
      <point x="250.06" y="440.37" type="curve" smooth="yes"/>
      <point x="252.06" y="440.37" type="line" smooth="yes"/>
      <point x="261.624" y="440.476"/>
      <point x="266.77" y="445.717"/>
      <point x="266.77" y="455.37" type="curve" smooth="yes"/>
      <point x="266.77" y="485.37" type="line" smooth="yes"/>
      <point x="266.77" y="495.12"/>
      <point x="261.52" y="500.37"/>
      <point x="251.77" y="500.37" type="curve" smooth="yes"/>
      <point x="21" y="500.37" type="line" smooth="yes"/>
      <point x="11.25" y="500.37"/>
      <point x="6" y="495.12"/>
      <point x="6" y="485.37" type="curve" smooth="yes"/>
      <point x="6" y="455.37" type="line" smooth="yes"/>
      <point x="6" y="445.62"/>
      <point x="11.25" y="440.37"/>
      <point x="21" y="440.37" type="curve" smooth="yes"/>
      <point x="23.44" y="440.37" type="line" smooth="yes"/>
      <point x="48.55" y="440.37"/>
      <point x="58.59" y="426.71"/>
      <point x="81.28" y="377.32" type="curve" smooth="yes"/>
      <point x="249.43" y="11.23" type="line" smooth="yes"/>
      <point x="252.97" y="3.51"/>
      <point x="258.44" y="1.24305e-06"/>
      <point x="266.94" y="1.24305e-06" type="curve" smooth="yes"/>
      <point x="319.65" y="1.24305e-06" type="line" smooth="yes"/>
      <point x="328.14" y="1.24305e-06"/>
      <point x="333.61" y="3.51"/>
      <point x="337.16" y="11.22" type="curve" smooth="yes"/>
      <point x="505.82" y="377.87" type="line" smooth="yes"/>
      <point x="528.73" y="427.69"/>
      <point x="543.09" y="440.37"/>
      <point x="564.35" y="440.37" type="curve" smooth="yes"/>
      <point x="578.62" y="440.37" type="line" smooth="yes"/>
      <point x="588.37" y="440.37"/>
      <point x="593.62" y="445.62"/>
      <point x="593.62" y="455.37" type="curve" smooth="yes"/>
      <point x="593.62" y="485.37" type="line" smooth="yes"/>
      <point x="593.62" y="495.12"/>
      <point x="588.37" y="500.37"/>
      <point x="578.62" y="500.37" type="curve" smooth="yes"/>
    </contour>
  </outline>
</glyph>
<glyph name="w" format="1">
  <advance width="931.528"/>
  <unicode hex="0077"/>
  <outline>
    <contour>
      <point x="727.2" y="500.37" type="line" smooth="yes"/>
      <point x="717.45" y="500.37"/>
      <point x="712.2" y="495.12"/>
      <point x="712.2" y="485.37" type="curve" smooth="yes"/>
      <point x="712.2" y="455.37" type="line" smooth="yes"/>
      <point x="712.2" y="445.62"/>
      <point x="717.45" y="440.37"/>
      <point x="727.2" y="440.37" type="curve" smooth="yes"/>
      <point x="746.91" y="440.37" type="line" smooth="yes"/>
      <point x="760.449" y="440.37"/>
      <point x="768.032" y="434.055"/>
      <point x="768.032" y="418.939" type="curve" smooth="yes"/>
      <point x="768.032" y="407.896"/>
      <point x="763.985" y="392.156"/>
      <point x="755.26" y="370.75" type="curve" smooth="yes"/>
      <point x="668.51" y="157.99" type="line"/>
      <point x="588.45" y="345.29" type="line"/>
      <point x="576.955" y="369.623"/>
      <point x="568.17" y="393.175"/>
      <point x="568.17" y="410.752" type="curve" smooth="yes"/>
      <point x="568.17" y="428.664"/>
      <point x="577.294" y="440.37"/>
      <point x="601.97" y="440.37" type="curve" smooth="yes"/>
      <point x="613.97" y="440.37" type="line" smooth="yes"/>
      <point x="623.534" y="440.476"/>
      <point x="628.68" y="445.717"/>
      <point x="628.68" y="455.37" type="curve" smooth="yes"/>
      <point x="628.68" y="485.37" type="line" smooth="yes"/>
      <point x="628.68" y="495.12"/>
      <point x="623.43" y="500.37"/>
      <point x="613.68" y="500.37" type="curve" smooth="yes"/>
      <point x="373.64" y="500.37" type="line"/>
      <point x="364.95" y="499.745"/>
      <point x="360.29" y="494.555"/>
      <point x="360.29" y="485.37" type="curve" smooth="yes"/>
      <point x="360.29" y="455.37" type="line" smooth="yes"/>
      <point x="360.29" y="446.288"/>
      <point x="364.846" y="441.111"/>
      <point x="373.351" y="440.445" type="curve"/>
      <point x="395.001" y="440.37" type="line" smooth="yes"/>
      <point x="408.541" y="440.37"/>
      <point x="416.126" y="434.055"/>
      <point x="416.126" y="418.936" type="curve" smooth="yes"/>
      <point x="416.126" y="407.893"/>
      <point x="412.08" y="392.155"/>
      <point x="403.351" y="370.75" type="curve" smooth="yes"/>
      <point x="316.601" y="157.99" type="line"/>
      <point x="236.541" y="345.29" type="line"/>
      <point x="225.045" y="369.622"/>
      <point x="216.261" y="393.175"/>
      <point x="216.261" y="410.752" type="curve" smooth="yes"/>
      <point x="216.261" y="428.664"/>
      <point x="225.384" y="440.37"/>
      <point x="250.061" y="440.37" type="curve" smooth="yes"/>
      <point x="252.061" y="440.37" type="line" smooth="yes"/>
      <point x="261.624" y="440.476"/>
      <point x="266.771" y="445.717"/>
      <point x="266.771" y="455.37" type="curve" smooth="yes"/>
      <point x="266.771" y="485.37" type="line" smooth="yes"/>
      <point x="266.771" y="495.12"/>
      <point x="261.521" y="500.37"/>
      <point x="251.771" y="500.37" type="curve" smooth="yes"/>
      <point x="21.0006" y="500.37" type="line" smooth="yes"/>
      <point x="11.2506" y="500.37"/>
      <point x="6.0006" y="495.12"/>
      <point x="6.0006" y="485.37" type="curve" smooth="yes"/>
      <point x="6.0006" y="455.37" type="line" smooth="yes"/>
      <point x="6.0006" y="445.62"/>
      <point x="11.2506" y="440.37"/>
      <point x="21.0006" y="440.37" type="curve" smooth="yes"/>
      <point x="23.4406" y="440.37" type="line" smooth="yes"/>
      <point x="48.5506" y="440.37"/>
      <point x="59.7206" y="427.22"/>
      <point x="81.2706" y="377.32" type="curve" smooth="yes"/>
      <point x="239.431" y="11.2299" type="line" smooth="yes"/>
      <point x="242.971" y="3.50991"/>
      <point x="248.441" y="-9.40312e-05"/>
      <point x="256.941" y="-9.40312e-05" type="curve" smooth="yes"/>
      <point x="309.651" y="-9.40312e-05" type="line" smooth="yes"/>
      <point x="318.141" y="-9.40312e-05"/>
      <point x="323.791" y="3.42991"/>
      <point x="327.161" y="11.2199" type="curve" smooth="yes"/>
      <point x="459.36" y="316.72" type="line"/>
      <point x="591.331" y="11.2299" type="line" smooth="yes"/>
      <point x="594.881" y="3.50991"/>
      <point x="600.351" y="-9.37832e-05"/>
      <point x="608.851" y="-9.37832e-05" type="curve" smooth="yes"/>
      <point x="661.561" y="-9.37832e-05" type="line" smooth="yes"/>
      <point x="670.051" y="-9.37832e-05"/>
      <point x="675.701" y="3.42991"/>
      <point x="679.071" y="11.2199" type="curve" smooth="yes"/>
      <point x="837.721" y="377.87" type="line" smooth="yes"/>
      <point x="860.641" y="427.69"/>
      <point x="875.001" y="440.37"/>
      <point x="896.261" y="440.37" type="curve" smooth="yes"/>
      <point x="910.531" y="440.37" type="line" smooth="yes"/>
      <point x="920.281" y="440.37"/>
      <point x="925.531" y="445.62"/>
      <point x="925.531" y="455.37" type="curve" smooth="yes"/>
      <point x="925.531" y="485.37" type="line" smooth="yes"/>
      <point x="925.531" y="495.12"/>
      <point x="920.281" y="500.37"/>
      <point x="910.531" y="500.37" type="curve" smooth="yes"/>
    </contour>
    <contour>
      <point x="466" y="500" type="move" name="top"/>
    </contour>
  </outline>
</glyph>
<glyph name="braceright" format="1">
  <advance width="453.148"/>
  <unicode hex="007D"/>
  <outline>
    <contour>
      <point x="373.14" y="322.54" type="line" smooth="yes"/>
      <point x="373.15" y="332.23"/>
      <point x="367.94" y="337.32"/>
      <point x="358.2" y="337.67" type="curve" smooth="yes"/>
      <point x="295.52" y="339.97"/>
      <point x="237.14" y="358.16"/>
      <point x="237.14" y="428.7" type="curve" smooth="yes"/>
      <point x="237.14" y="479.41"/>
      <point x="284.47" y="534.37"/>
      <point x="280.14" y="625.82" type="curve" smooth="yes"/>
      <point x="275.51" y="723.76"/>
      <point x="180.64" y="756.33"/>
      <point x="130.95" y="769.05" type="curve" smooth="yes"/>
      <point x="123.33" y="771.01"/>
      <point x="117.46" y="769.58"/>
      <point x="111.27" y="764.53" type="curve" smooth="yes"/>
      <point x="101.24" y="756.34" type="line" smooth="yes"/>
      <point x="97.3007" y="753.124"/>
      <point x="95.3917" y="749.758"/>
      <point x="95.3917" y="746.597" type="curve" smooth="yes"/>
      <point x="95.3917" y="742.287"/>
      <point x="98.9402" y="738.358"/>
      <point x="105.73" y="735.71" type="curve" smooth="yes"/>
      <point x="166.67" y="712.02"/>
      <point x="186.95" y="685.26"/>
      <point x="186.95" y="663.91" type="curve" smooth="yes"/>
      <point x="186.95" y="603.45"/>
      <point x="106.64" y="532.07"/>
      <point x="106.64" y="458.4" type="curve" smooth="yes"/>
      <point x="106.64" y="358.18"/>
      <point x="176.54" y="326.24"/>
      <point x="261.79" y="305.68" type="curve"/>
      <point x="176.54" y="285.12"/>
      <point x="106.64" y="253.18"/>
      <point x="106.64" y="152.97" type="curve" smooth="yes"/>
      <point x="106.64" y="79.3"/>
      <point x="186.95" y="7.92001"/>
      <point x="186.95" y="-53" type="curve" smooth="yes"/>
      <point x="186.95" y="-74"/>
      <point x="166.67" y="-101"/>
      <point x="105.73" y="-124" type="curve"/>
      <point x="98.9442" y="-126.885"/>
      <point x="95.3948" y="-130.769"/>
      <point x="95.3948" y="-135.076" type="curve" smooth="yes"/>
      <point x="95.3948" y="-138.232"/>
      <point x="97.3021" y="-141.616"/>
      <point x="101.24" y="-145" type="curve"/>
      <point x="111.27" y="-153" type="line" smooth="yes"/>
      <point x="115.861" y="-156.708"/>
      <point x="120.276" y="-158.766"/>
      <point x="125.355" y="-158.766" type="curve" smooth="yes"/>
      <point x="127.124" y="-158.766"/>
      <point x="128.974" y="-158.517"/>
      <point x="130.94" y="-158" type="curve" smooth="yes"/>
      <point x="182.15" y="-144"/>
      <point x="280.38" y="-110"/>
      <point x="280.38" y="-3.99999" type="curve" smooth="yes"/>
      <point x="280.38" y="81.45"/>
      <point x="237.14" y="134"/>
      <point x="237.14" y="182.67" type="curve" smooth="yes"/>
      <point x="237.14" y="253.21"/>
      <point x="295.52" y="271.41"/>
      <point x="358.19" y="273.7" type="curve" smooth="yes"/>
      <point x="367.93" y="274.05"/>
      <point x="373.14" y="279.14"/>
      <point x="373.14" y="288.82" type="curve" smooth="yes"/>
    </contour>
  </outline>
</glyph>
<glyph name="yen" format="1">
  <advance width="793.900"/>
  <unicode hex="00A5"/>
  <outline>
    <contour>
      <point x="520.28" y="752.56" type="line" smooth="yes"/>
      <point x="510.53" y="752.56"/>
      <point x="505.28" y="747.31"/>
      <point x="505.28" y="737.56" type="curve" smooth="yes"/>
      <point x="505.28" y="707.56" type="line" smooth="yes"/>
      <point x="505.28" y="697.81"/>
      <point x="510.53" y="692.56"/>
      <point x="520.28" y="692.56" type="curve" smooth="yes"/>
      <point x="549.736" y="692.56"/>
      <point x="566.092" y="682.49"/>
      <point x="566.092" y="659.757" type="curve" smooth="yes"/>
      <point x="566.092" y="644.758"/>
      <point x="558.973" y="624.248"/>
      <point x="543.8" y="597.48" type="curve" smooth="yes"/>
      <point x="435.57" y="406.54" type="line"/>
      <point x="319.07" y="597.48" type="line" smooth="yes"/>
      <point x="307.156" y="617.004"/>
      <point x="302.13" y="633.011"/>
      <point x="302.13" y="645.95" type="curve" smooth="yes"/>
      <point x="302.13" y="679.679"/>
      <point x="336.285" y="692.56"/>
      <point x="371.62" y="692.56" type="curve" smooth="yes"/>
      <point x="381.37" y="692.56"/>
      <point x="386.62" y="697.81"/>
      <point x="386.62" y="707.56" type="curve" smooth="yes"/>
      <point x="386.62" y="737.56" type="line" smooth="yes"/>
      <point x="386.62" y="747.31"/>
      <point x="381.37" y="752.56"/>
      <point x="371.62" y="752.56" type="curve" smooth="yes"/>
      <point x="25" y="752.56" type="line" smooth="yes"/>
      <point x="15.25" y="752.56"/>
      <point x="10" y="747.31"/>
      <point x="10" y="737.56" type="curve" smooth="yes"/>
      <point x="10" y="707.56" type="line" smooth="yes"/>
      <point x="10" y="697.81"/>
      <point x="15.25" y="692.56"/>
      <point x="25" y="692.56" type="curve" smooth="yes"/>
      <point x="66.89" y="692.56"/>
      <point x="94.29" y="663.69"/>
      <point x="138.52" y="597.48" type="curve" smooth="yes"/>
      <point x="226.157" y="466.28" type="line"/>
      <point x="91.1801" y="466.28" type="line" smooth="yes"/>
      <point x="81.1801" y="466.28"/>
      <point x="76.1801" y="461.03"/>
      <point x="76.1801" y="451.28" type="curve" smooth="yes"/>
      <point x="76.1801" y="383.46" type="line" smooth="yes"/>
      <point x="76.1801" y="373.71"/>
      <point x="81.1801" y="368.46"/>
      <point x="91.1801" y="368.46" type="curve" smooth="yes"/>
      <point x="291.497" y="368.46" type="line"/>
      <point x="319.07" y="327.18" type="line" smooth="yes"/>
      <point x="323.15" y="321.08"/>
      <point x="324.72" y="315.89"/>
      <point x="324.72" y="308.55" type="curve" smooth="yes"/>
      <point x="324.72" y="298.34" type="line"/>
      <point x="91.1801" y="298.34" type="line" smooth="yes"/>
      <point x="81.1801" y="298.34"/>
      <point x="76.1801" y="293.09"/>
      <point x="76.1801" y="283.34" type="curve" smooth="yes"/>
      <point x="76.1801" y="215.51" type="line" smooth="yes"/>
      <point x="76.1801" y="205.76"/>
      <point x="81.1801" y="200.51"/>
      <point x="91.1801" y="200.51" type="curve" smooth="yes"/>
      <point x="324.72" y="200.51" type="line"/>
      <point x="324.72" y="155.08" type="line" smooth="yes"/>
      <point x="324.72" y="102.439"/>
      <point x="308.153" y="62.5745"/>
      <point x="257.237" y="60.12" type="curve"/>
      <point x="251.26" y="60.12" type="line" smooth="yes"/>
      <point x="241.51" y="60.12"/>
      <point x="236.26" y="54.87"/>
      <point x="236.26" y="45.12" type="curve" smooth="yes"/>
      <point x="236.26" y="15" type="line" smooth="yes"/>
      <point x="236.26" y="5.25"/>
      <point x="241.51" y="1.1158e-06"/>
      <point x="251.26" y="1.1158e-06" type="curve" smooth="yes"/>
      <point x="558.74" y="1.1158e-06" type="line" smooth="yes"/>
      <point x="568.49" y="1.1158e-06"/>
      <point x="573.74" y="5.25"/>
      <point x="573.74" y="15" type="curve" smooth="yes"/>
      <point x="573.74" y="45.12" type="line" smooth="yes"/>
      <point x="573.74" y="54.87"/>
      <point x="568.49" y="60.12"/>
      <point x="558.74" y="60.12" type="curve" smooth="yes"/>
      <point x="551.74" y="60.12" type="line"/>
      <point x="501.088" y="62.5745"/>
      <point x="484.521" y="102.439"/>
      <point x="484.521" y="155.08" type="curve" smooth="yes"/>
      <point x="484.521" y="200.51" type="line"/>
      <point x="698.111" y="200.51" type="line" smooth="yes"/>
      <point x="707.861" y="200.51"/>
      <point x="713.111" y="205.76"/>
      <point x="713.111" y="215.51" type="curve" smooth="yes"/>
      <point x="713.111" y="283.34" type="line" smooth="yes"/>
      <point x="713.111" y="293.09"/>
      <point x="707.861" y="298.34"/>
      <point x="698.111" y="298.34" type="curve" smooth="yes"/>
      <point x="484.521" y="298.34" type="line"/>
      <point x="484.521" y="314.22" type="line" smooth="yes"/>
      <point x="484.521" y="321.46"/>
      <point x="485.911" y="326.59"/>
      <point x="489.561" y="332.83" type="curve" smooth="yes"/>
      <point x="510.4" y="368.46" type="line"/>
      <point x="698.111" y="368.46" type="line" smooth="yes"/>
      <point x="707.861" y="368.46"/>
      <point x="713.111" y="373.71"/>
      <point x="713.111" y="383.46" type="curve" smooth="yes"/>
      <point x="713.111" y="451.28" type="line" smooth="yes"/>
      <point x="713.111" y="461.03"/>
      <point x="707.861" y="466.28"/>
      <point x="698.111" y="466.28" type="curve" smooth="yes"/>
      <point x="567.614" y="466.28" type="line"/>
      <point x="644.351" y="597.48" type="line" smooth="yes"/>
      <point x="682.951" y="663.48"/>
      <point x="725.011" y="692.56"/>
      <point x="768.901" y="692.56" type="curve" smooth="yes"/>
      <point x="778.651" y="692.56"/>
      <point x="783.901" y="697.81"/>
      <point x="783.901" y="707.56" type="curve" smooth="yes"/>
      <point x="783.901" y="737.56" type="line" smooth="yes"/>
      <point x="783.901" y="747.31"/>
      <point x="778.651" y="752.56"/>
      <point x="768.901" y="752.56" type="curve" smooth="yes"/>
    </contour>
  </outline>
</glyph>
<glyph name="section" format="1">
  <advance width="733.709"/>
  <unicode hex="00A7"/>
  <outline>
    <contour>
      <point x="645.56" y="611.31" type="line" smooth="yes"/>
      <point x="653.793" y="615.65"/>
      <point x="656.851" y="620.282"/>
      <point x="656.851" y="626.175" type="curve" smooth="yes"/>
      <point x="656.851" y="630.167"/>
      <point x="655.448" y="634.738"/>
      <point x="653.3" y="640.19" type="curve" smooth="yes"/>
      <point x="582.74" y="819.23" type="line" smooth="yes"/>
      <point x="578.28" y="830.55"/>
      <point x="570.59" y="835.8"/>
      <point x="558.42" y="835.82" type="curve" smooth="yes"/>
      <point x="521.72" y="835.82" type="line" smooth="yes"/>
      <point x="509.691" y="835.905"/>
      <point x="503.913" y="830.536"/>
      <point x="503.913" y="821.097" type="curve" smooth="yes"/>
      <point x="503.913" y="818.303"/>
      <point x="504.42" y="815.152"/>
      <point x="505.42" y="811.68" type="curve" smooth="yes"/>
      <point x="509.818" y="796.429"/>
      <point x="511.114" y="782.091"/>
      <point x="503.484" y="782.091" type="curve" smooth="yes"/>
      <point x="501.834" y="782.091"/>
      <point x="499.765" y="782.762"/>
      <point x="497.22" y="784.24" type="curve" smooth="yes"/>
      <point x="472.72" y="798.47"/>
      <point x="399.5" y="830"/>
      <point x="325.93" y="830" type="curve" smooth="yes"/>
      <point x="171.43" y="830"/>
      <point x="73.01" y="760.68"/>
      <point x="73.01" y="648.66" type="curve" smooth="yes"/>
      <point x="73.01" y="597.529"/>
      <point x="88.0606" y="538.332"/>
      <point x="163.554" y="484.311" type="curve"/>
      <point x="105.919" y="453.239"/>
      <point x="73.01" y="402.739"/>
      <point x="73.01" y="337.96" type="curve" smooth="yes"/>
      <point x="73.01" y="260.12"/>
      <point x="107.9" y="163.56"/>
      <point x="337.9" y="95.05" type="curve" smooth="yes"/>
      <point x="445.1" y="63.12"/>
      <point x="551.44" y="48.62"/>
      <point x="551.44" y="-55" type="curve" smooth="yes"/>
      <point x="551.44" y="-115"/>
      <point x="502.7" y="-159"/>
      <point x="415.86" y="-159" type="curve" smooth="yes"/>
      <point x="300.79" y="-159"/>
      <point x="187.37" y="-94"/>
      <point x="96.75" y="45" type="curve"/>
      <point x="92.3283" y="52.591"/>
      <point x="86.6164" y="56.4544"/>
      <point x="79.9691" y="56.4544" type="curve" smooth="yes"/>
      <point x="76.2133" y="56.4544"/>
      <point x="72.159" y="55.2211"/>
      <point x="67.87" y="52.73" type="curve" smooth="yes"/>
      <point x="24.28" y="27.22" type="line" smooth="yes"/>
      <point x="16.7002" y="22.7538"/>
      <point x="12.9999" y="17.4734"/>
      <point x="12.9999" y="10.8594" type="curve" smooth="yes"/>
      <point x="12.9999" y="7.10709"/>
      <point x="14.1908" y="2.92559"/>
      <point x="16.54" y="-1.78" type="curve" smooth="yes"/>
      <point x="137.93" y="-228.78" type="line" smooth="yes"/>
      <point x="143.47" y="-238.78"/>
      <point x="151.15" y="-242.78"/>
      <point x="162.9" y="-242.78" type="curve" smooth="yes"/>
      <point x="213.4" y="-242.78" type="line"/>
      <point x="224.615" y="-243.494"/>
      <point x="229.348" y="-239.621"/>
      <point x="229.348" y="-231.525" type="curve" smooth="yes"/>
      <point x="229.348" y="-228.281"/>
      <point x="228.588" y="-224.358"/>
      <point x="227.18" y="-219.78" type="curve" smooth="yes"/>
      <point x="223.183" y="-206.603"/>
      <point x="225.526" y="-198.249"/>
      <point x="234.314" y="-198.249" type="curve" smooth="yes"/>
      <point x="237.531" y="-198.249"/>
      <point x="241.611" y="-199.368"/>
      <point x="246.56" y="-201.78" type="curve" smooth="yes"/>
      <point x="295.34" y="-225.78"/>
      <point x="352.36" y="-238.78"/>
      <point x="410.08" y="-238.78" type="curve" smooth="yes"/>
      <point x="593.88" y="-238.78"/>
      <point x="700.71" y="-141.78"/>
      <point x="700.71" y="-9.78" type="curve" smooth="yes"/>
      <point x="700.71" y="55.4071"/>
      <point x="670.875" y="101.973"/>
      <point x="624.601" y="137.434" type="curve"/>
      <point x="674.104" y="178.133"/>
      <point x="700.71" y="235.202"/>
      <point x="700.71" y="300.85" type="curve" smooth="yes"/>
      <point x="700.71" y="451.36"/>
      <point x="541.79" y="502.63"/>
      <point x="388.62" y="547.11" type="curve" smooth="yes"/>
      <point x="312.16" y="569.32"/>
      <point x="231.66" y="602.03"/>
      <point x="231.66" y="663.73" type="curve" smooth="yes"/>
      <point x="231.66" y="734.17"/>
      <point x="288.69" y="749.83"/>
      <point x="338.7" y="749.83" type="curve" smooth="yes"/>
      <point x="406.51" y="749.83"/>
      <point x="497.54" y="707.46"/>
      <point x="582.65" y="601.33" type="curve" smooth="yes"/>
      <point x="588.319" y="594.27"/>
      <point x="593.783" y="590.378"/>
      <point x="600.327" y="590.378" type="curve" smooth="yes"/>
      <point x="603.71" y="590.378"/>
      <point x="607.382" y="591.419"/>
      <point x="611.52" y="593.6" type="curve" smooth="yes"/>
    </contour>
    <contour>
      <point x="231.66" y="392.979"/>
      <point x="250.007" y="415.312"/>
      <point x="275.012" y="427.157" type="curve"/>
      <point x="294.156" y="419.849"/>
      <point x="315.067" y="412.771"/>
      <point x="337.9" y="405.97" type="curve" smooth="yes"/>
      <point x="445.1" y="374.03"/>
      <point x="551.44" y="359.54"/>
      <point x="551.44" y="256.24" type="curve" smooth="yes"/>
      <point x="551.44" y="231.046"/>
      <point x="542.798" y="208.551"/>
      <point x="526.314" y="190.949" type="curve"/>
      <point x="483.035" y="208.512"/>
      <point x="435.558" y="222.779"/>
      <point x="388.62" y="236.41" type="curve" smooth="yes"/>
      <point x="312.16" y="258.62"/>
      <point x="231.66" y="291.34"/>
      <point x="231.66" y="353.03" type="curve" smooth="yes"/>
    </contour>
  </outline>
</glyph>
<glyph name="dieresis" format="1">
  <advance width="600"/>
  <unicode hex="00A8"/>
  <outline>
    <contour>
      <point x="167.82" y="739.95"/>
      <point x="153.32" y="732.72"/>
      <point x="135.55" y="714.95" type="curve" smooth="yes"/>
      <point x="117.79" y="697.18"/>
      <point x="110.55" y="682.68"/>
      <point x="110.55" y="664.82" type="curve" smooth="yes"/>
      <point x="110.55" y="646.96"/>
      <point x="117.78" y="632.46"/>
      <point x="135.55" y="614.69" type="curve" smooth="yes"/>
      <point x="153.32" y="596.92"/>
      <point x="167.82" y="589.69"/>
      <point x="185.68" y="589.69" type="curve" smooth="yes"/>
      <point x="203.55" y="589.69"/>
      <point x="218.05" y="596.92"/>
      <point x="235.82" y="614.69" type="curve" smooth="yes"/>
      <point x="253.58" y="632.46"/>
      <point x="260.82" y="646.96"/>
      <point x="260.82" y="664.82" type="curve" smooth="yes"/>
      <point x="260.82" y="682.68"/>
      <point x="253.58" y="697.18"/>
      <point x="235.82" y="714.95" type="curve" smooth="yes"/>
      <point x="218.05" y="732.72"/>
      <point x="203.55" y="739.95"/>
      <point x="185.68" y="739.95" type="curve" smooth="yes"/>
    </contour>
    <contour>
      <point x="400.54" y="739.95"/>
      <point x="386.04" y="732.72"/>
      <point x="368.27" y="714.95" type="curve" smooth="yes"/>
      <point x="350.5" y="697.18"/>
      <point x="343.27" y="682.68"/>
      <point x="343.27" y="664.82" type="curve" smooth="yes"/>
      <point x="343.27" y="646.96"/>
      <point x="350.5" y="632.46"/>
      <point x="368.27" y="614.69" type="curve" smooth="yes"/>
      <point x="386.04" y="596.92"/>
      <point x="400.54" y="589.69"/>
      <point x="418.4" y="589.69" type="curve" smooth="yes"/>
      <point x="436.26" y="589.69"/>
      <point x="450.76" y="596.92"/>
      <point x="468.53" y="614.69" type="curve" smooth="yes"/>
      <point x="486.3" y="632.46"/>
      <point x="493.53" y="646.96"/>
      <point x="493.53" y="664.82" type="curve" smooth="yes"/>
      <point x="493.53" y="682.68"/>
      <point x="486.3" y="697.18"/>
      <point x="468.53" y="714.95" type="curve" smooth="yes"/>
      <point x="450.76" y="732.72"/>
      <point x="436.26" y="739.95"/>
      <point x="418.4" y="739.95" type="curve" smooth="yes"/>
    </contour>
    <contour>
      <point x="300.594" y="500" type="move" name="_top"/>
    </contour>
  </outline>
</glyph>
<glyph name="copyright" format="1">
  <advance width="787.718"/>
  <unicode hex="00A9"/>
  <outline>
    <contour>
      <point x="603" y="-8"/>
      <point x="772.72" y="161.54"/>
      <point x="772.72" y="370.91" type="curve" smooth="yes"/>
      <point x="772.72" y="580.28"/>
      <point x="603" y="750"/>
      <point x="393.63" y="750" type="curve" smooth="yes"/>
      <point x="184.26" y="750"/>
      <point x="15" y="580.28"/>
      <point x="15" y="370.91" type="curve" smooth="yes"/>
      <point x="15" y="161.54"/>
      <point x="184.26" y="-8"/>
      <point x="393.63" y="-8" type="curve" smooth="yes"/>
    </contour>
    <contour>
      <point x="223.06" y="61.82"/>
      <point x="85" y="200.34"/>
      <point x="85" y="370.91" type="curve" smooth="yes"/>
      <point x="85" y="541.48"/>
      <point x="223.06" y="680"/>
      <point x="393.63" y="680" type="curve" smooth="yes"/>
      <point x="564.2" y="680"/>
      <point x="702.72" y="541.48"/>
      <point x="702.72" y="370.91" type="curve" smooth="yes"/>
      <point x="702.72" y="200.34"/>
      <point x="564.2" y="61.82"/>
      <point x="393.63" y="61.82" type="curve" smooth="yes"/>
    </contour>
    <contour>
      <point x="529.78" y="305.34" type="line" smooth="yes"/>
      <point x="523.59" y="309.69"/>
      <point x="518.24" y="308.38"/>
      <point x="513.97" y="301.91" type="curve" smooth="yes"/>
      <point x="491.46" y="268.26"/>
      <point x="457.64" y="246.77"/>
      <point x="428.54" y="243.71" type="curve" smooth="yes"/>
      <point x="341.281" y="234.54"/>
      <point x="311.801" y="311.554"/>
      <point x="311.801" y="391.767" type="curve" smooth="yes"/>
      <point x="311.801" y="401.567"/>
      <point x="312.241" y="411.415"/>
      <point x="313.07" y="421.16" type="curve" smooth="yes"/>
      <point x="317.52" y="473.408"/>
      <point x="340.77" y="521.115"/>
      <point x="389.181" y="521.115" type="curve" smooth="yes"/>
      <point x="433.458" y="521.115"/>
      <point x="453.875" y="491.541"/>
      <point x="450.85" y="448.29" type="curve"/>
      <point x="449.94" y="440.4" type="line"/>
      <point x="449.19" y="435.7"/>
      <point x="454.06" y="434.09"/>
      <point x="462.44" y="436.32" type="curve" smooth="yes"/>
      <point x="549.54" y="459.48" type="line" smooth="yes"/>
      <point x="555.351" y="461.025"/>
      <point x="558.527" y="464.5"/>
      <point x="558.527" y="469.662" type="curve" smooth="yes"/>
      <point x="558.527" y="470.682"/>
      <point x="558.403" y="471.769"/>
      <point x="558.15" y="472.92" type="curve" smooth="yes"/>
      <point x="547.61" y="520.67"/>
      <point x="512.86" y="570.37"/>
      <point x="420.38" y="576.83" type="curve" smooth="yes"/>
      <point x="331.2" y="583.07"/>
      <point x="225.78" y="529.8"/>
      <point x="214.82" y="396.9" type="curve" smooth="yes"/>
      <point x="205.903" y="288.831"/>
      <point x="281.355" y="181.975"/>
      <point x="395.262" y="181.975" type="curve" smooth="yes"/>
      <point x="401.945" y="181.975"/>
      <point x="408.761" y="182.343"/>
      <point x="415.7" y="183.1" type="curve" smooth="yes"/>
      <point x="487.71" y="190.44"/>
      <point x="530.42" y="225.65"/>
      <point x="554.08" y="275.89" type="curve" smooth="yes"/>
      <point x="557.02" y="282.2"/>
      <point x="555.43" y="287.29"/>
      <point x="549.78" y="291.27" type="curve" smooth="yes"/>
    </contour>
  </outline>
</glyph>
<glyph name="ordfeminine" format="1">
  <advance width="518"/>
  <unicode hex="00AA"/>
  <outline>
    <contour>
      <point x="447.42" y="756.34" type="line"/>
      <point x="447.42" y="757.59"/>
      <point x="447.34" y="757.69"/>
      <point x="446.27" y="757.69" type="curve" smooth="yes"/>
      <point x="444.32" y="757.68" type="line" smooth="yes"/>
      <point x="443.03" y="757.67"/>
      <point x="441.89" y="756.63"/>
      <point x="440.6" y="755.7" type="curve" smooth="yes"/>
      <point x="423.645" y="743.485"/>
      <point x="404.585" y="728.3"/>
      <point x="358.204" y="708.998" type="curve"/>
      <point x="323.307" y="740.567"/>
      <point x="277.264" y="757.39"/>
      <point x="222.92" y="757.39" type="curve" smooth="yes"/>
      <point x="122.18" y="757.39"/>
      <point x="28.33" y="693.6"/>
      <point x="28.33" y="539.26" type="curve" smooth="yes"/>
      <point x="28.33" y="378.05"/>
      <point x="137.84" y="319.41"/>
      <point x="212.99" y="319.41" type="curve" smooth="yes"/>
      <point x="298.68" y="319.41"/>
      <point x="331.23" y="373.88"/>
      <point x="340.29" y="396.18" type="curve"/>
      <point x="330.63" y="321.91" type="line" smooth="yes"/>
      <point x="330.47" y="320.24"/>
      <point x="330.71" y="319.41"/>
      <point x="331.77" y="319.41" type="curve" smooth="yes"/>
      <point x="333.73" y="319.41" type="line" smooth="yes"/>
      <point x="336.17" y="319.41"/>
      <point x="339.32" y="320.24"/>
      <point x="340.78" y="321.08" type="curve"/>
      <point x="378.461" y="337.774"/>
      <point x="412.801" y="353.03"/>
      <point x="494.3" y="353.03" type="curve" smooth="yes"/>
      <point x="502.519" y="353.03"/>
      <point x="506.31" y="357.108"/>
      <point x="506.31" y="364.02" type="curve" smooth="yes"/>
      <point x="506.31" y="392.27" type="line"/>
      <point x="506.56" y="397.98"/>
      <point x="504.75" y="402.13"/>
      <point x="496.53" y="403.03" type="curve" smooth="yes"/>
      <point x="455.55" y="407.503"/>
      <point x="448.458" y="444.681"/>
      <point x="447.42" y="484.324" type="curve" smooth="yes"/>
    </contour>
    <contour>
      <point x="331.03" y="447.85" type="line"/>
      <point x="331.03" y="447.85"/>
      <point x="312.55" y="392.95"/>
      <point x="250.74" y="392.95" type="curve" smooth="yes"/>
      <point x="182.48" y="392.95"/>
      <point x="135.54" y="459.41"/>
      <point x="135.54" y="566.21" type="curve" smooth="yes"/>
      <point x="135.54" y="635.17"/>
      <point x="157.42" y="702"/>
      <point x="238.03" y="702" type="curve" smooth="yes"/>
      <point x="303.74" y="702"/>
      <point x="324.58" y="648.78"/>
      <point x="331.03" y="615.23" type="curve"/>
    </contour>
  </outline>
</glyph>
<glyph name="registered" format="1">
  <advance width="788.180"/>
  <unicode hex="00AE"/>
  <outline>
    <contour>
      <point x="184.72" y="750"/>
      <point x="15" y="580.28"/>
      <point x="15" y="370.91" type="curve" smooth="yes"/>
      <point x="15" y="161.54"/>
      <point x="184.72" y="-7.99998"/>
      <point x="394.09" y="-7.99998" type="curve" smooth="yes"/>
      <point x="603.46" y="-7.99998"/>
      <point x="773.18" y="161.54"/>
      <point x="773.18" y="370.91" type="curve" smooth="yes"/>
      <point x="773.18" y="580.28"/>
      <point x="603.46" y="750"/>
      <point x="394.09" y="750" type="curve" smooth="yes"/>
    </contour>
    <contour>
      <point x="223.52" y="61.82"/>
      <point x="85" y="200.34"/>
      <point x="85" y="370.91" type="curve" smooth="yes"/>
      <point x="85" y="541.48"/>
      <point x="223.52" y="680"/>
      <point x="394.09" y="680" type="curve" smooth="yes"/>
      <point x="564.66" y="680"/>
      <point x="703.18" y="541.48"/>
      <point x="703.18" y="370.91" type="curve" smooth="yes"/>
      <point x="703.18" y="200.34"/>
      <point x="564.66" y="61.82"/>
      <point x="394.09" y="61.82" type="curve" smooth="yes"/>
    </contour>
    <contour>
      <point x="596.298" y="224.63" type="line"/>
      <point x="570.115" y="225.748"/>
      <point x="558.255" y="242.569"/>
      <point x="545.63" y="266.36" type="curve" smooth="yes"/>
      <point x="491.732" y="367.93" type="line"/>
      <point x="536.757" y="389.418"/>
      <point x="550.71" y="426.948"/>
      <point x="550.71" y="463.24" type="curve" smooth="yes"/>
      <point x="550.71" y="521.92"/>
      <point x="507.02" y="571.67"/>
      <point x="423.79" y="571.67" type="curve" smooth="yes"/>
      <point x="220.25" y="571.67" type="line" smooth="yes"/>
      <point x="215.24" y="571.67"/>
      <point x="212.55" y="568.98"/>
      <point x="212.55" y="563.97" type="curve" smooth="yes"/>
      <point x="212.55" y="541.58" type="line" smooth="yes"/>
      <point x="212.55" y="536.57"/>
      <point x="215.24" y="533.88"/>
      <point x="220.25" y="533.88" type="curve"/>
      <point x="227.049" y="533.503" type="line"/>
      <point x="250.297" y="530.596"/>
      <point x="257.99" y="511.339"/>
      <point x="257.99" y="492.09" type="curve" smooth="yes"/>
      <point x="257.99" y="266.36" type="line" smooth="yes"/>
      <point x="257.98" y="239.525"/>
      <point x="249.592" y="225.642"/>
      <point x="223.873" y="224.63" type="curve"/>
      <point x="219.9" y="224.63" type="line" smooth="yes"/>
      <point x="214.9" y="224.63"/>
      <point x="212.2" y="221.94"/>
      <point x="212.2" y="216.94" type="curve" smooth="yes"/>
      <point x="212.2" y="194.48" type="line" smooth="yes"/>
      <point x="212.2" y="189.47"/>
      <point x="214.9" y="186.78"/>
      <point x="219.9" y="186.78" type="curve" smooth="yes"/>
      <point x="382.69" y="186.78" type="line" smooth="yes"/>
      <point x="387.69" y="186.78"/>
      <point x="390.38" y="189.47"/>
      <point x="390.38" y="194.48" type="curve" smooth="yes"/>
      <point x="390.38" y="216.94" type="line" smooth="yes"/>
      <point x="390.38" y="221.94"/>
      <point x="387.69" y="224.63"/>
      <point x="382.69" y="224.63" type="curve" smooth="yes"/>
      <point x="379.105" y="224.63" type="line"/>
      <point x="353.378" y="225.642"/>
      <point x="344.99" y="239.525"/>
      <point x="344.99" y="266.36" type="curve" smooth="yes"/>
      <point x="344.99" y="349.85" type="line"/>
      <point x="393.23" y="349.85" type="line"/>
      <point x="411.587" y="350.292" type="line"/>
      <point x="456.62" y="266.36" type="line" smooth="yes"/>
      <point x="461.041" y="258.125"/>
      <point x="463.308" y="250.715"/>
      <point x="463.308" y="244.503" type="curve" smooth="yes"/>
      <point x="463.308" y="232.814"/>
      <point x="455.281" y="225.364"/>
      <point x="438.468" y="224.63" type="curve"/>
      <point x="434.81" y="224.63" type="line" smooth="yes"/>
      <point x="429.8" y="224.63"/>
      <point x="427.11" y="221.94"/>
      <point x="427.11" y="216.94" type="curve" smooth="yes"/>
      <point x="427.11" y="194.48" type="line" smooth="yes"/>
      <point x="427.11" y="189.47"/>
      <point x="429.8" y="186.78"/>
      <point x="434.81" y="186.78" type="curve" smooth="yes"/>
      <point x="599.59" y="186.78" type="line" smooth="yes"/>
      <point x="604.59" y="186.78"/>
      <point x="607.29" y="189.47"/>
      <point x="607.29" y="194.48" type="curve" smooth="yes"/>
      <point x="607.29" y="216.94" type="line" smooth="yes"/>
      <point x="607.29" y="221.94"/>
      <point x="604.59" y="224.63"/>
      <point x="599.59" y="224.63" type="curve" smooth="yes"/>
    </contour>
    <contour>
      <point x="344.99" y="395.28" type="line"/>
      <point x="344.99" y="524.76" type="line"/>
      <point x="391.36" y="524.76" type="line" smooth="yes"/>
      <point x="432.67" y="524.76"/>
      <point x="463.73" y="510.73"/>
      <point x="463.73" y="463.24" type="curve" smooth="yes"/>
      <point x="463.73" y="416.78"/>
      <point x="433.24" y="395.28"/>
      <point x="374.8" y="395.28" type="curve" smooth="yes"/>
    </contour>
  </outline>
</glyph>
<glyph name="macron" format="1">
  <advance width="600"/>
  <unicode hex="00AF"/>
  <outline>
    <contour>
      <point x="441.18" y="685" type="line" smooth="yes"/>
      <point x="441.18" y="694.75"/>
      <point x="435.93" y="700"/>
      <point x="426.18" y="700" type="curve" smooth="yes"/>
      <point x="158.7" y="700" type="line" smooth="yes"/>
      <point x="148.95" y="700"/>
      <point x="143.7" y="694.75"/>
      <point x="143.7" y="685" type="curve" smooth="yes"/>
      <point x="143.7" y="624.88" type="line" smooth="yes"/>
      <point x="143.7" y="615.13"/>
      <point x="148.95" y="609.88"/>
      <point x="158.7" y="609.88" type="curve" smooth="yes"/>
      <point x="426.18" y="609.88" type="line" smooth="yes"/>
      <point x="435.93" y="609.88"/>
      <point x="441.18" y="615.13"/>
      <point x="441.18" y="624.88" type="curve" smooth="yes"/>
    </contour>
    <contour>
      <point x="291.522" y="500" type="move" name="_top"/>
    </contour>
  </outline>
</glyph>
<glyph name="degree" format="1">
  <advance width="354.765"/>
  <unicode hex="00B0"/>
  <outline>
    <contour>
      <point x="251.13" y="529.72"/>
      <point x="314.77" y="587.57"/>
      <point x="314.77" y="654.61" type="curve" smooth="yes"/>
      <point x="314.77" y="721.66"/>
      <point x="251.13" y="779.51"/>
      <point x="177.38" y="779.51" type="curve" smooth="yes"/>
      <point x="103.63" y="779.51"/>
      <point x="40" y="721.66"/>
      <point x="40" y="654.61" type="curve" smooth="yes"/>
      <point x="40" y="587.57"/>
      <point x="103.63" y="529.72"/>
      <point x="177.38" y="529.72" type="curve" smooth="yes"/>
    </contour>
    <contour>
      <point x="143.75" y="599.72"/>
      <point x="117" y="624.04"/>
      <point x="117" y="654.61" type="curve" smooth="yes"/>
      <point x="117" y="685.19"/>
      <point x="143.75" y="709.51"/>
      <point x="177.38" y="709.51" type="curve" smooth="yes"/>
      <point x="211.01" y="709.51"/>
      <point x="237.77" y="685.19"/>
      <point x="237.77" y="654.61" type="curve" smooth="yes"/>
      <point x="237.77" y="624.04"/>
      <point x="211.01" y="599.72"/>
      <point x="177.38" y="599.72" type="curve" smooth="yes"/>
    </contour>
  </outline>
</glyph>
<glyph name="twosuperior" format="1">
  <advance width="425.649"/>
  <unicode hex="00B2"/>
  <outline>
    <contour>
      <point x="375.55" y="500.99" type="line" smooth="yes"/>
      <point x="369.06" y="504.75"/>
      <point x="363.56" y="503.25"/>
      <point x="359.79" y="496.77" type="curve" smooth="yes"/>
      <point x="357.39" y="492.63" type="line" smooth="yes"/>
      <point x="330.27" y="446.07"/>
      <point x="237.83" y="447.41"/>
      <point x="184.87" y="445.94" type="curve" smooth="yes"/>
      <point x="113.04" y="443.96" type="line"/>
      <point x="183.041" y="535.229"/>
      <point x="352.93" y="569.199"/>
      <point x="352.93" y="686.929" type="curve" smooth="yes"/>
      <point x="352.93" y="763.381"/>
      <point x="295.824" y="800.18"/>
      <point x="191.46" y="800.18" type="curve" smooth="yes"/>
      <point x="96.5403" y="800.18"/>
      <point x="32.6759" y="747.525"/>
      <point x="32.6759" y="692.398" type="curve" smooth="yes"/>
      <point x="32.6759" y="683.21"/>
      <point x="34.4499" y="673.953"/>
      <point x="38.15" y="664.86" type="curve" smooth="yes"/>
      <point x="41.52" y="656.6"/>
      <point x="46.01" y="652.78"/>
      <point x="57.45" y="650.2" type="curve" smooth="yes"/>
      <point x="138.13" y="632.05" type="line" smooth="yes"/>
      <point x="143.308" y="630.88"/>
      <point x="145.682" y="634.397"/>
      <point x="145.682" y="639.098" type="curve" smooth="yes"/>
      <point x="145.682" y="641.751"/>
      <point x="144.926" y="644.782"/>
      <point x="143.49" y="647.56" type="curve" smooth="yes"/>
      <point x="131.652" y="670.466"/>
      <point x="126.798" y="688.982"/>
      <point x="126.798" y="703.782" type="curve" smooth="yes"/>
      <point x="126.798" y="742.377"/>
      <point x="159.807" y="755.7"/>
      <point x="188.04" y="755.7" type="curve" smooth="yes"/>
      <point x="221.73" y="755.7"/>
      <point x="242.13" y="732.76"/>
      <point x="242.13" y="687.75" type="curve" smooth="yes"/>
      <point x="242.13" y="594.08"/>
      <point x="76.45" y="534.17"/>
      <point x="22.66" y="425.55" type="curve" smooth="yes"/>
      <point x="21.5" y="423.21"/>
      <point x="20" y="418.97"/>
      <point x="20" y="415.4" type="curve" smooth="yes"/>
      <point x="20" y="391.91" type="line" smooth="yes"/>
      <point x="20" y="384.89"/>
      <point x="24.04" y="379.89"/>
      <point x="31.54" y="379.89" type="curve" smooth="yes"/>
      <point x="312.15" y="379.89" type="line" smooth="yes"/>
      <point x="317.7" y="379.89"/>
      <point x="322.12" y="379.89"/>
      <point x="326.45" y="376.89" type="curve"/>
      <point x="330.62" y="372.89" type="line"/>
      <point x="336.38" y="367.89"/>
      <point x="342.69" y="369.89"/>
      <point x="346.38" y="376.89" type="curve"/>
      <point x="403.57" y="471.43" type="line" smooth="yes"/>
      <point x="407.45" y="477.87"/>
      <point x="405.83" y="483.44"/>
      <point x="399.35" y="487.2" type="curve" smooth="yes"/>
    </contour>
  </outline>
</glyph>
<glyph name="threesuperior" format="1">
  <advance width="408.300"/>
  <unicode hex="00B3"/>
  <outline>
    <contour>
      <point x="125.56" y="633.98" type="line" smooth="yes"/>
      <point x="130.738" y="632.81"/>
      <point x="133.112" y="636.331"/>
      <point x="133.112" y="641.035" type="curve" smooth="yes"/>
      <point x="133.112" y="643.69"/>
      <point x="132.356" y="646.722"/>
      <point x="130.92" y="649.5" type="curve" smooth="yes"/>
      <point x="119.082" y="672.406"/>
      <point x="114.228" y="690.921"/>
      <point x="114.228" y="705.72" type="curve" smooth="yes"/>
      <point x="114.228" y="744.312"/>
      <point x="147.237" y="757.63"/>
      <point x="175.47" y="757.63" type="curve" smooth="yes"/>
      <point x="209.16" y="757.63"/>
      <point x="229.56" y="734.69"/>
      <point x="229.56" y="689.68" type="curve" smooth="yes"/>
      <point x="229.56" y="634.52"/>
      <point x="181.07" y="585.64"/>
      <point x="94.09" y="557.47" type="curve" smooth="yes"/>
      <point x="91.779" y="556.718"/>
      <point x="89.9128" y="555.75"/>
      <point x="88.5139" y="554.592" type="curve"/>
      <point x="85.3747" y="552.703"/>
      <point x="83.7719" y="549.747"/>
      <point x="83.7719" y="545.88" type="curve" smooth="yes"/>
      <point x="83.7719" y="544.856"/>
      <point x="83.8842" y="543.768"/>
      <point x="84.1101" y="542.62" type="curve" smooth="yes"/>
      <point x="88.5601" y="519.96" type="line" smooth="yes"/>
      <point x="89.7706" y="513.791"/>
      <point x="93.3438" y="510.639"/>
      <point x="98.8724" y="510.639" type="curve" smooth="yes"/>
      <point x="99.9661" y="510.639"/>
      <point x="101.136" y="510.762"/>
      <point x="102.38" y="511.01" type="curve" smooth="yes"/>
      <point x="124.48" y="515.393"/>
      <point x="145.306" y="517.833"/>
      <point x="164.267" y="517.833" type="curve" smooth="yes"/>
      <point x="227.376" y="517.833"/>
      <point x="269.82" y="490.803"/>
      <point x="269.82" y="418.42" type="curve" smooth="yes"/>
      <point x="269.82" y="326.209"/>
      <point x="205.308" y="285.872"/>
      <point x="121.287" y="285.872" type="curve" smooth="yes"/>
      <point x="99.4829" y="285.872"/>
      <point x="76.3651" y="288.589"/>
      <point x="52.7201" y="293.82" type="curve" smooth="yes"/>
      <point x="45.3868" y="295.216"/>
      <point x="41.1019" y="290.918"/>
      <point x="41.1019" y="284.374" type="curve" smooth="yes"/>
      <point x="41.1019" y="283.698"/>
      <point x="41.1475" y="282.999"/>
      <point x="41.2401" y="282.28" type="curve" smooth="yes"/>
      <point x="45.2301" y="249.2" type="line" smooth="yes"/>
      <point x="46.0901" y="242.28"/>
      <point x="50.3001" y="239.2"/>
      <point x="57.4701" y="238.44" type="curve" smooth="yes"/>
      <point x="81.9136" y="235.364"/>
      <point x="105.906" y="233.824"/>
      <point x="129.106" y="233.824" type="curve" smooth="yes"/>
      <point x="274.179" y="233.824"/>
      <point x="388.3" y="294.062"/>
      <point x="388.3" y="415.82" type="curve" smooth="yes"/>
      <point x="388.3" y="501.351"/>
      <point x="325.765" y="551.014"/>
      <point x="237.438" y="563.95" type="curve"/>
      <point x="298.126" y="586.68"/>
      <point x="340.363" y="624.756"/>
      <point x="340.363" y="689.09" type="curve" smooth="yes"/>
      <point x="340.363" y="765.385"/>
      <point x="283.149" y="802.11"/>
      <point x="178.89" y="802.11" type="curve" smooth="yes"/>
      <point x="84.18" y="802.11"/>
      <point x="19.8909" y="749.687"/>
      <point x="19.8909" y="694.699" type="curve" smooth="yes"/>
      <point x="19.8909" y="685.392"/>
      <point x="21.7326" y="676.012"/>
      <point x="25.5801" y="666.8" type="curve" smooth="yes"/>
      <point x="28.9401" y="658.54"/>
      <point x="33.4401" y="654.71"/>
      <point x="44.8801" y="652.14" type="curve" smooth="yes"/>
    </contour>
  </outline>
</glyph>
<glyph name="paragraph" format="1">
  <advance width="600"/>
  <unicode hex="00B6"/>
  <outline>
    <contour>
      <point x="247.78" y="700" type="line" smooth="yes"/>
      <point x="118.85" y="700"/>
      <point x="72.6" y="616.88"/>
      <point x="72.6" y="537.85" type="curve" smooth="yes"/>
      <point x="72.6" y="453.94"/>
      <point x="135.06" y="382.8"/>
      <point x="204.08" y="382.8" type="curve" smooth="yes"/>
      <point x="237.09" y="382.8" type="line"/>
      <point x="237.09" y="-115" type="line" smooth="yes"/>
      <point x="237.09" y="-125"/>
      <point x="242.34" y="-130"/>
      <point x="252.09" y="-130" type="curve" smooth="yes"/>
      <point x="301.89" y="-130" type="line" smooth="yes"/>
      <point x="311.64" y="-130"/>
      <point x="316.89" y="-125"/>
      <point x="316.89" y="-115" type="curve" smooth="yes"/>
      <point x="316.89" y="639.88" type="line"/>
      <point x="382.61" y="639.88" type="line"/>
      <point x="382.61" y="-115" type="line" smooth="yes"/>
      <point x="382.61" y="-125"/>
      <point x="387.86" y="-130"/>
      <point x="397.61" y="-130" type="curve" smooth="yes"/>
      <point x="447.41" y="-130" type="line" smooth="yes"/>
      <point x="457.16" y="-130"/>
      <point x="462.41" y="-125"/>
      <point x="462.41" y="-115" type="curve" smooth="yes"/>
      <point x="462.41" y="544.92" type="line" smooth="yes"/>
      <point x="462.41" y="597.56"/>
      <point x="478.98" y="637.42"/>
      <point x="529.89" y="639.88" type="curve"/>
      <point x="535.87" y="639.88" type="line" smooth="yes"/>
      <point x="545.62" y="639.88"/>
      <point x="550.87" y="645.13"/>
      <point x="550.87" y="654.88" type="curve" smooth="yes"/>
      <point x="550.87" y="685" type="line" smooth="yes"/>
      <point x="550.87" y="694.75"/>
      <point x="545.62" y="700"/>
      <point x="535.87" y="700" type="curve" smooth="yes"/>
    </contour>
  </outline>
</glyph>
<glyph name="periodcentered" format="1">
  <advance width="600"/>
  <unicode hex="00B7"/>
  <outline>
    <contour>
      <point x="221.02" y="395.92" type="line" smooth="yes"/>
      <point x="208.38" y="383.28"/>
      <point x="202.06" y="370.155"/>
      <point x="202.06" y="357.03" type="curve" smooth="yes"/>
      <point x="202.06" y="343.905"/>
      <point x="208.38" y="330.78"/>
      <point x="221.02" y="318.14" type="curve" smooth="yes"/>
      <point x="260.12" y="279.04" type="line" smooth="yes"/>
      <point x="272.76" y="266.54"/>
      <point x="285.885" y="260.29"/>
      <point x="299.01" y="260.29" type="curve" smooth="yes"/>
      <point x="312.135" y="260.29"/>
      <point x="325.26" y="266.54"/>
      <point x="337.9" y="279.04" type="curve" smooth="yes"/>
      <point x="376.99" y="318.14" type="line" smooth="yes"/>
      <point x="389.63" y="330.78"/>
      <point x="395.95" y="343.905"/>
      <point x="395.95" y="357.03" type="curve" smooth="yes"/>
      <point x="395.95" y="370.155"/>
      <point x="389.63" y="383.28"/>
      <point x="376.99" y="395.92" type="curve" smooth="yes"/>
      <point x="337.9" y="435.01" type="line" smooth="yes"/>
      <point x="325.225" y="447.685"/>
      <point x="312.062" y="454.005"/>
      <point x="298.9" y="454.005" type="curve" smooth="yes"/>
      <point x="285.812" y="454.005"/>
      <point x="272.725" y="447.755"/>
      <point x="260.12" y="435.29" type="curve" smooth="yes"/>
    </contour>
  </outline>
</glyph>
<glyph name="onehalf" format="1">
  <advance width="834.422"/>
  <unicode hex="00BD"/>
  <outline>
    <contour>
      <point x="298.83" y="392.62" type="line" smooth="yes"/>
      <point x="306.33" y="392.62"/>
      <point x="310.37" y="396.66"/>
      <point x="310.37" y="404.16" type="curve" smooth="yes"/>
      <point x="310.37" y="427.33" type="line" smooth="yes"/>
      <point x="310.37" y="434.83"/>
      <point x="306.33" y="438.87"/>
      <point x="298.83" y="438.87" type="curve" smooth="yes"/>
      <point x="278.891" y="438.87" type="line"/>
      <point x="239.69" y="440.735"/>
      <point x="226.93" y="471.408"/>
      <point x="226.93" y="511.92" type="curve" smooth="yes"/>
      <point x="226.93" y="667.75" type="line" smooth="yes"/>
      <point x="226.93" y="732.62"/>
      <point x="240.52" y="759.34"/>
      <point x="282.74" y="762.42" type="curve" smooth="yes"/>
      <point x="298.83" y="763.86" type="line"/>
      <point x="306.33" y="763.86"/>
      <point x="310.37" y="767.9"/>
      <point x="310.37" y="775.4" type="curve" smooth="yes"/>
      <point x="310.37" y="798.57" type="line" smooth="yes"/>
      <point x="310.37" y="806.07"/>
      <point x="306.33" y="810.11"/>
      <point x="298.83" y="810.11" type="curve"/>
      <point x="219.73" y="794.72"/>
      <point x="130.64" y="787.03"/>
      <point x="41.54" y="787.03" type="curve" smooth="yes"/>
      <point x="34.04" y="787.03"/>
      <point x="30" y="782.99"/>
      <point x="30" y="775.49" type="curve" smooth="yes"/>
      <point x="30" y="752.32" type="line" smooth="yes"/>
      <point x="30" y="744.82"/>
      <point x="34.04" y="740.78"/>
      <point x="41.54" y="740.78" type="curve" smooth="yes"/>
      <point x="104.07" y="740.78"/>
      <point x="114.01" y="709.55"/>
      <point x="114.01" y="667.75" type="curve" smooth="yes"/>
      <point x="114.01" y="511.92" type="line" smooth="yes"/>
      <point x="114.01" y="471.408"/>
      <point x="101.26" y="440.735"/>
      <point x="62.0497" y="438.87" type="curve"/>
      <point x="41.54" y="438.87" type="line" smooth="yes"/>
      <point x="34.04" y="438.87"/>
      <point x="30" y="434.83"/>
      <point x="30" y="427.33" type="curve" smooth="yes"/>
      <point x="30" y="404.16" type="line" smooth="yes"/>
      <point x="30" y="396.66"/>
      <point x="34.04" y="392.62"/>
      <point x="41.54" y="392.62" type="curve" smooth="yes"/>
    </contour>
    <contour>
      <point x="615.4" y="735.49" type="line" smooth="yes"/>
      <point x="607.42" y="735.49"/>
      <point x="601.99" y="732.49"/>
      <point x="597.13" y="726.49" type="curve" smooth="yes"/>
      <point x="43.92" y="7.32" type="line" smooth="yes"/>
      <point x="41.2648" y="3.77518"/>
      <point x="40.0019" y="0.504087"/>
      <point x="40.0019" y="-2.26309" type="curve" smooth="yes"/>
      <point x="40.0019" y="-7.55196"/>
      <point x="44.6155" y="-11"/>
      <point x="52.94" y="-11" type="curve" smooth="yes"/>
      <point x="94.19" y="-11" type="line" smooth="yes"/>
      <point x="102.17" y="-11"/>
      <point x="107.59" y="-8"/>
      <point x="112.46" y="-2" type="curve" smooth="yes"/>
      <point x="665.66" y="717.18" type="line" smooth="yes"/>
      <point x="668.315" y="720.721"/>
      <point x="669.578" y="723.99"/>
      <point x="669.578" y="726.756" type="curve" smooth="yes"/>
      <point x="669.578" y="732.042"/>
      <point x="664.965" y="735.49"/>
      <point x="656.64" y="735.49" type="curve" smooth="yes"/>
    </contour>
    <contour>
      <point x="784.32" y="112.09" type="line" smooth="yes"/>
      <point x="777.84" y="115.85"/>
      <point x="772.34" y="114.35"/>
      <point x="768.56" y="107.87" type="curve" smooth="yes"/>
      <point x="766.16" y="103.74" type="line" smooth="yes"/>
      <point x="739.04" y="57.17"/>
      <point x="646.6" y="58.51"/>
      <point x="593.64" y="57.05" type="curve" smooth="yes"/>
      <point x="521.81" y="55.06" type="line"/>
      <point x="591.821" y="146.34"/>
      <point x="761.7" y="180.309"/>
      <point x="761.7" y="298.04" type="curve" smooth="yes"/>
      <point x="761.7" y="374.481"/>
      <point x="704.603" y="411.29"/>
      <point x="600.24" y="411.29" type="curve" smooth="yes"/>
      <point x="505.316" y="411.29"/>
      <point x="441.452" y="358.64"/>
      <point x="441.452" y="303.516" type="curve" smooth="yes"/>
      <point x="441.452" y="294.325"/>
      <point x="443.227" y="285.066"/>
      <point x="446.93" y="275.97" type="curve" smooth="yes"/>
      <point x="450.29" y="267.71"/>
      <point x="454.78" y="263.89"/>
      <point x="466.22" y="261.31" type="curve" smooth="yes"/>
      <point x="546.9" y="243.16" type="line" smooth="yes"/>
      <point x="552.081" y="241.99"/>
      <point x="554.455" y="245.511"/>
      <point x="554.455" y="250.216" type="curve" smooth="yes"/>
      <point x="554.455" y="252.867"/>
      <point x="553.701" y="255.895"/>
      <point x="552.27" y="258.67" type="curve" smooth="yes"/>
      <point x="540.427" y="281.579"/>
      <point x="535.572" y="300.097"/>
      <point x="535.572" y="314.897" type="curve" smooth="yes"/>
      <point x="535.572" y="353.484"/>
      <point x="568.578" y="366.8"/>
      <point x="596.81" y="366.8" type="curve" smooth="yes"/>
      <point x="630.5" y="366.8"/>
      <point x="650.9" y="343.87"/>
      <point x="650.9" y="298.86" type="curve" smooth="yes"/>
      <point x="650.9" y="205.18"/>
      <point x="485.22" y="145.28"/>
      <point x="431.43" y="36.66" type="curve" smooth="yes"/>
      <point x="430.27" y="34.31"/>
      <point x="428.77" y="30.07"/>
      <point x="428.77" y="26.51" type="curve" smooth="yes"/>
      <point x="428.77" y="3.02" type="line" smooth="yes"/>
      <point x="428.77" y="-4"/>
      <point x="432.81" y="-9"/>
      <point x="440.31" y="-9" type="curve" smooth="yes"/>
      <point x="720.92" y="-9" type="line" smooth="yes"/>
      <point x="726.47" y="-9"/>
      <point x="730.89" y="-9"/>
      <point x="735.23" y="-12" type="curve"/>
      <point x="739.39" y="-16" type="line"/>
      <point x="745.15" y="-21"/>
      <point x="751.46" y="-19"/>
      <point x="755.15" y="-12" type="curve"/>
      <point x="812.34" y="82.54" type="line" smooth="yes"/>
      <point x="816.22" y="88.97"/>
      <point x="814.6" y="94.55"/>
      <point x="808.12" y="98.3" type="curve" smooth="yes"/>
    </contour>
  </outline>
</glyph>
